{"glyphs":{"0":{"ha":782,"x_min":74,"x_max":708,"o":"m 390 -15 q 153 117 233 -15 q 74 458 74 250 q 153 799 74 667 q 390 932 233 932 q 628 799 547 932 q 708 458 708 667 q 628 117 708 250 q 390 -15 547 -15 m 390 29 q 499 74 460 29 q 553 210 538 118 q 569 458 569 303 q 553 706 569 614 q 499 844 538 799 q 390 889 460 889 q 282 844 321 889 q 227 706 243 799 q 211 458 211 614 q 227 206 211 297 q 281 72 243 114 q 390 29 319 29 z "},"1":{"ha":653,"x_min":101,"x_max":572,"o":"m 150 43 l 226 43 q 285 56 271 43 q 300 108 300 69 l 300 806 q 101 714 211 760 l 101 768 q 227 840 158 794 q 328 917 296 886 l 422 917 l 422 108 q 438 56 422 69 q 496 43 453 43 l 572 43 l 572 0 l 150 0 l 150 43 z "},"2":{"ha":758,"x_min":67,"x_max":676,"o":"m 67 14 q 131 187 67 99 q 310 375 196 275 q 413 471 375 432 q 478 568 450 510 q 507 701 507 626 q 464 840 507 790 q 343 889 421 889 q 259 867 292 889 q 226 814 226 844 q 239 782 226 800 q 253 740 253 760 q 232 683 253 703 q 176 663 211 663 q 117 685 140 663 q 94 753 94 708 q 175 886 94 839 q 365 933 256 933 q 572 867 499 933 q 644 682 644 800 q 617 558 644 610 q 546 469 590 507 q 418 375 501 431 q 235 226 296 289 q 169 115 175 163 l 496 115 q 574 125 547 115 q 613 152 601 135 q 636 203 625 169 l 676 203 l 626 0 l 67 0 l 67 14 z "},"3":{"ha":757,"x_min":60,"x_max":656,"o":"m 335 -15 q 138 31 217 -15 q 60 157 60 76 q 83 224 60 200 q 143 249 106 249 q 195 229 175 249 q 215 175 215 210 q 212 150 215 160 q 201 129 208 140 q 192 101 192 115 q 227 50 192 71 q 319 29 263 29 q 466 89 415 29 q 517 260 517 149 q 315 476 517 476 l 254 474 l 254 529 q 315 526 293 526 q 437 578 396 526 q 478 708 478 631 q 439 837 478 786 q 328 888 400 888 q 246 868 281 888 q 211 819 211 849 q 222 790 211 810 q 236 744 236 768 q 216 692 236 711 q 163 674 196 674 q 103 696 125 674 q 81 760 81 718 q 160 886 81 840 q 350 932 239 932 q 540 878 467 932 q 614 715 614 824 q 569 579 615 632 q 435 510 524 526 l 435 506 q 541 474 490 503 q 624 390 592 446 q 656 257 656 335 q 569 57 656 129 q 335 -15 483 -15 z "},"4":{"ha":743,"x_min":46,"x_max":690,"o":"m 325 43 l 390 43 q 426 56 417 43 q 436 97 436 69 l 436 256 l 46 256 l 46 329 q 464 928 249 647 l 557 928 l 557 346 l 690 346 l 690 256 l 557 256 l 557 97 q 565 56 557 68 q 600 43 574 43 l 654 43 l 654 0 l 325 0 l 325 43 m 436 346 l 436 794 l 431 794 q 119 346 264 574 l 436 346 z "},"5":{"ha":735,"x_min":74,"x_max":647,"o":"m 311 -15 q 138 25 203 -15 q 74 139 74 65 q 97 205 74 182 q 156 228 119 228 q 208 208 188 228 q 229 154 229 189 q 225 129 229 139 q 214 107 221 119 q 208 97 213 106 q 204 79 204 89 q 235 41 204 53 q 311 29 267 29 q 461 88 410 29 q 513 263 513 146 q 465 438 513 379 q 324 497 417 497 q 233 478 272 497 q 156 419 194 458 l 122 419 l 163 917 l 514 917 q 560 924 547 917 q 581 950 572 931 l 618 950 l 579 807 l 199 807 l 168 494 l 171 493 q 388 565 265 565 q 581 488 514 565 q 647 292 647 410 q 608 133 647 203 q 492 24 568 63 q 311 -15 417 -15 z "},"6":{"ha":774,"x_min":74,"x_max":693,"o":"m 390 -17 q 156 92 239 -17 q 74 393 74 201 q 139 685 74 563 q 321 874 204 808 q 592 944 438 940 l 592 901 q 400 840 483 897 q 267 681 317 782 q 208 446 217 581 l 211 446 q 308 552 250 515 q 436 589 365 589 q 564 553 506 588 q 658 451 622 518 q 693 292 693 385 q 657 134 693 204 q 553 24 621 64 q 390 -17 485 -17 m 394 29 q 517 93 474 29 q 560 269 560 157 q 515 444 560 385 q 388 503 471 503 q 257 447 306 503 q 208 288 208 390 q 257 106 208 182 q 394 29 306 29 z "},"7":{"ha":722,"x_min":53,"x_max":642,"o":"m 275 -17 q 207 81 207 -17 q 376 524 207 257 q 565 807 513 738 l 206 807 q 140 792 160 807 q 104 740 119 778 l 93 714 l 53 714 l 76 917 l 642 917 l 642 826 q 547 690 604 782 q 456 538 489 597 q 383 374 407 449 q 352 242 358 299 q 344 107 346 185 q 343 75 343 96 q 326 7 342 31 q 275 -17 311 -17 z "},"8":{"ha":740,"x_min":67,"x_max":658,"o":"m 350 -15 q 146 43 225 -15 q 67 207 67 101 q 116 348 67 286 q 267 464 165 410 q 140 572 179 517 q 101 696 101 628 q 142 826 101 772 q 249 906 183 879 q 385 932 314 932 q 557 884 482 932 q 632 738 632 836 q 465 504 632 603 q 612 388 565 446 q 658 246 658 331 q 621 110 658 169 q 513 17 583 50 q 350 -15 443 -15 m 426 529 q 547 726 547 613 q 501 842 547 797 q 379 888 456 888 q 260 849 308 888 q 213 743 213 810 q 234 672 213 703 q 299 609 256 640 q 426 529 342 578 m 358 31 q 495 76 443 31 q 547 199 547 121 q 526 274 547 242 q 456 341 504 307 q 303 440 408 375 q 193 343 235 400 q 151 217 151 286 q 210 81 151 132 q 358 31 268 31 z "},"9":{"ha":774,"x_min":81,"x_max":700,"o":"m 182 11 q 374 74 290 17 q 508 233 458 132 q 565 469 557 335 l 563 469 q 466 363 524 400 q 339 326 408 326 q 211 364 271 328 q 116 468 151 400 q 81 626 81 536 q 117 781 81 711 q 222 891 153 850 q 383 932 290 932 q 617 823 535 932 q 700 522 700 714 q 635 230 700 353 q 453 41 569 107 q 182 -29 336 -25 l 182 11 m 389 413 q 517 469 469 413 q 565 628 565 525 q 517 810 565 733 q 381 886 469 886 q 258 822 301 886 q 214 649 214 758 q 260 474 214 535 q 389 413 306 413 z "}," ":{"ha":332,"x_min":0,"x_max":0,"o":""},"A":{"ha":897,"x_min":10,"x_max":886,"o":"m 783 117 q 817 54 799 68 q 886 40 836 40 l 886 0 l 568 0 l 568 40 l 621 40 q 661 75 661 40 q 657 103 661 89 l 569 347 l 261 347 l 174 99 q 168 71 168 79 q 207 40 168 40 l 257 40 l 257 0 l 10 0 l 10 40 q 65 48 46 40 q 97 73 85 56 q 121 126 108 90 l 415 917 l 493 917 l 783 117 m 553 394 l 417 772 l 413 772 l 279 394 l 553 394 z "},"Á":{"ha":897,"x_min":10,"x_max":886,"o":"m 783 117 q 817 54 799 68 q 886 40 836 40 l 886 0 l 568 0 l 568 40 l 621 40 q 661 75 661 40 q 657 103 661 89 l 569 347 l 261 347 l 174 99 q 168 71 168 79 q 207 40 168 40 l 257 40 l 257 0 l 10 0 l 10 40 q 65 48 46 40 q 97 73 85 56 q 121 126 108 90 l 415 917 l 493 917 l 783 117 m 553 394 l 417 772 l 413 772 l 279 394 l 553 394 m 451 1269 q 477 1304 464 1293 q 510 1315 490 1315 q 544 1300 529 1315 q 560 1264 560 1285 q 553 1238 560 1250 q 526 1203 547 1226 l 383 1047 l 344 1047 l 451 1269 z "},"Ă":{"ha":897,"x_min":10,"x_max":886,"o":"m 783 117 q 817 54 799 68 q 886 40 836 40 l 886 0 l 568 0 l 568 40 l 621 40 q 661 75 661 40 q 657 103 661 89 l 569 347 l 261 347 l 174 99 q 168 71 168 79 q 207 40 168 40 l 257 40 l 257 0 l 10 0 l 10 40 q 65 48 46 40 q 97 73 85 56 q 121 126 108 90 l 415 917 l 493 917 l 783 117 m 553 394 l 417 772 l 413 772 l 279 394 l 553 394 m 451 1036 q 329 1086 369 1036 q 286 1225 289 1136 l 333 1225 q 372 1147 339 1174 q 451 1119 404 1119 q 533 1147 499 1119 q 572 1225 567 1174 l 618 1225 q 575 1085 615 1135 q 451 1036 535 1036 z "},"Â":{"ha":897,"x_min":10,"x_max":886,"o":"m 783 117 q 817 54 799 68 q 886 40 836 40 l 886 0 l 568 0 l 568 40 l 621 40 q 661 75 661 40 q 657 103 661 89 l 569 347 l 261 347 l 174 99 q 168 71 168 79 q 207 40 168 40 l 257 40 l 257 0 l 10 0 l 10 40 q 65 48 46 40 q 97 73 85 56 q 121 126 108 90 l 415 917 l 493 917 l 783 117 m 553 394 l 417 772 l 413 772 l 279 394 l 553 394 m 407 1250 l 500 1250 l 636 1036 l 583 1036 l 450 1165 l 321 1036 l 268 1036 l 407 1250 z "},"Ä":{"ha":897,"x_min":10,"x_max":886,"o":"m 783 117 q 817 54 799 68 q 886 40 836 40 l 886 0 l 568 0 l 568 40 l 621 40 q 661 75 661 40 q 657 103 661 89 l 569 347 l 261 347 l 174 99 q 168 71 168 79 q 207 40 168 40 l 257 40 l 257 0 l 10 0 l 10 40 q 65 48 46 40 q 97 73 85 56 q 121 126 108 90 l 415 917 l 493 917 l 783 117 m 553 394 l 417 772 l 413 772 l 279 394 l 553 394 m 332 1064 q 284 1083 304 1064 q 264 1131 264 1103 q 284 1178 264 1158 q 332 1199 304 1199 q 380 1178 360 1199 q 400 1131 400 1158 q 380 1083 400 1103 q 332 1064 360 1064 m 572 1064 q 524 1083 544 1064 q 504 1131 504 1103 q 524 1178 504 1158 q 572 1199 544 1199 q 620 1178 600 1199 q 640 1131 640 1158 q 620 1083 640 1103 q 572 1064 600 1064 z "},"À":{"ha":897,"x_min":10,"x_max":886,"o":"m 783 117 q 817 54 799 68 q 886 40 836 40 l 886 0 l 568 0 l 568 40 l 621 40 q 661 75 661 40 q 657 103 661 89 l 569 347 l 261 347 l 174 99 q 168 71 168 79 q 207 40 168 40 l 257 40 l 257 0 l 10 0 l 10 40 q 65 48 46 40 q 97 73 85 56 q 121 126 108 90 l 415 917 l 493 917 l 783 117 m 553 394 l 417 772 l 413 772 l 279 394 l 553 394 m 378 1203 q 351 1238 357 1226 q 344 1264 344 1250 q 360 1300 344 1285 q 394 1315 375 1315 q 427 1304 414 1315 q 453 1269 440 1293 l 560 1047 l 521 1047 l 378 1203 z "},"Ą":{"ha":897,"x_min":10,"x_max":886,"o":"m 751 0 q 669 -77 694 -44 q 644 -149 644 -110 q 662 -188 644 -172 q 703 -204 679 -204 q 768 -164 746 -204 l 789 -179 q 738 -242 769 -221 q 664 -262 706 -262 q 588 -239 617 -262 q 558 -168 558 -215 q 703 0 558 -90 l 568 0 l 568 40 l 621 40 q 661 75 661 40 q 657 103 661 89 l 569 347 l 261 347 l 174 99 q 168 71 168 79 q 207 40 168 40 l 257 40 l 257 0 l 10 0 l 10 40 q 65 48 46 40 q 97 73 85 56 q 121 126 108 90 l 415 917 l 493 917 l 783 117 q 817 54 799 68 q 886 40 836 40 l 886 0 l 751 0 m 553 394 l 417 772 l 413 772 l 279 394 l 553 394 z "},"Å":{"ha":897,"x_min":10,"x_max":886,"o":"m 783 117 q 817 54 799 68 q 886 40 836 40 l 886 0 l 568 0 l 568 40 l 621 40 q 661 75 661 40 q 657 103 661 89 l 569 347 l 261 347 l 174 99 q 168 71 168 79 q 207 40 168 40 l 257 40 l 257 0 l 10 0 l 10 40 q 65 48 46 40 q 97 73 85 56 q 121 126 108 90 l 415 917 l 493 917 l 783 117 m 553 394 l 417 772 l 413 772 l 279 394 l 553 394 m 453 1000 q 365 1036 401 1000 q 329 1124 329 1072 q 365 1210 329 1175 q 453 1246 401 1246 q 540 1210 504 1246 q 575 1124 575 1175 q 540 1036 575 1072 q 453 1000 504 1000 m 453 1049 q 506 1071 483 1049 q 528 1124 528 1093 q 506 1178 528 1156 q 453 1200 483 1200 q 399 1178 421 1200 q 376 1124 376 1156 q 399 1071 376 1093 q 453 1049 421 1049 z "},"Ã":{"ha":897,"x_min":10,"x_max":886,"o":"m 783 117 q 817 54 799 68 q 886 40 836 40 l 886 0 l 568 0 l 568 40 l 621 40 q 661 75 661 40 q 657 103 661 89 l 569 347 l 261 347 l 174 99 q 168 71 168 79 q 207 40 168 40 l 257 40 l 257 0 l 10 0 l 10 40 q 65 48 46 40 q 97 73 85 56 q 121 126 108 90 l 415 917 l 493 917 l 783 117 m 553 394 l 417 772 l 413 772 l 279 394 l 553 394 m 529 1046 q 487 1053 507 1046 q 433 1075 467 1060 q 350 1101 381 1101 q 308 1086 324 1101 q 289 1049 292 1071 l 257 1049 q 292 1144 260 1107 q 376 1182 324 1182 q 423 1175 400 1182 q 475 1154 446 1168 q 556 1131 528 1131 q 599 1146 583 1131 q 615 1181 614 1161 l 649 1181 q 613 1086 646 1126 q 529 1046 579 1046 z "},"Æ":{"ha":1222,"x_min":10,"x_max":1168,"o":"m 1168 239 l 1153 0 l 479 0 l 479 40 q 553 47 532 40 q 580 69 574 53 q 586 125 586 85 l 586 451 l 371 451 l 186 90 q 181 65 181 78 q 208 40 181 40 l 286 40 l 286 0 l 10 0 l 10 40 q 80 53 58 40 q 122 107 101 67 l 500 825 q 508 854 508 842 q 483 876 508 875 l 400 876 l 400 917 l 1121 917 l 1121 694 l 1086 694 q 1056 803 1074 767 q 998 854 1038 839 q 882 869 958 869 l 760 869 q 718 860 728 869 q 708 819 708 850 l 708 504 l 868 504 q 946 515 921 504 q 980 547 971 525 q 997 619 989 569 l 1031 619 l 1031 336 l 997 336 q 980 407 989 385 q 946 440 971 429 q 868 451 921 451 l 708 451 l 708 163 q 723 83 708 107 q 771 53 738 60 q 879 47 804 47 q 1013 63 965 47 q 1089 118 1061 78 q 1135 239 1117 158 l 1168 239 m 586 504 l 586 860 l 579 860 l 397 504 l 586 504 z "},"B":{"ha":858,"x_min":69,"x_max":796,"o":"m 69 40 q 144 46 122 40 q 171 67 165 51 q 176 124 176 83 l 176 793 q 170 848 176 832 q 142 870 164 864 q 69 876 121 876 l 69 917 l 418 917 q 665 865 575 917 q 754 706 754 814 q 706 574 754 628 q 572 500 658 519 l 572 499 q 735 416 674 481 q 796 247 796 351 q 442 0 796 0 l 69 0 l 69 40 m 407 517 q 619 692 619 517 q 394 869 619 869 q 335 864 354 869 q 310 845 315 858 q 304 806 304 832 l 304 517 l 407 517 m 418 46 q 590 94 528 46 q 653 249 653 143 q 591 410 653 353 q 411 468 529 468 l 304 468 l 304 147 q 328 67 304 89 q 418 46 351 46 z "},"C":{"ha":904,"x_min":74,"x_max":840,"o":"m 508 -17 q 187 107 300 -17 q 74 447 74 231 q 191 804 74 675 q 519 933 308 933 q 617 923 576 933 q 699 896 657 913 q 746 882 731 882 q 779 901 771 882 l 783 917 l 821 917 l 835 667 l 797 667 q 529 886 740 886 q 345 819 414 886 q 249 654 276 751 q 221 460 221 557 q 253 249 221 347 q 354 91 285 151 q 529 31 424 31 q 669 59 614 31 q 753 128 724 88 q 806 224 782 169 l 840 206 q 733 49 807 114 q 508 -17 658 -17 z "},"Ć":{"ha":904,"x_min":74,"x_max":840,"o":"m 508 -17 q 187 107 300 -17 q 74 447 74 231 q 191 804 74 675 q 519 933 308 933 q 617 923 576 933 q 699 896 657 913 q 746 882 731 882 q 779 901 771 882 l 783 917 l 821 917 l 835 667 l 797 667 q 529 886 740 886 q 345 819 414 886 q 249 654 276 751 q 221 460 221 557 q 253 249 221 347 q 354 91 285 151 q 529 31 424 31 q 669 59 614 31 q 753 128 724 88 q 806 224 782 169 l 840 206 q 733 49 807 114 q 508 -17 658 -17 m 479 1269 q 505 1304 492 1293 q 538 1315 518 1315 q 572 1300 557 1315 q 588 1264 588 1285 q 581 1238 588 1250 q 554 1203 575 1226 l 411 1047 l 372 1047 l 479 1269 z "},"Č":{"ha":904,"x_min":74,"x_max":840,"o":"m 508 -17 q 187 107 300 -17 q 74 447 74 231 q 191 804 74 675 q 519 933 308 933 q 617 923 576 933 q 699 896 657 913 q 746 882 731 882 q 779 901 771 882 l 783 917 l 821 917 l 835 667 l 797 667 q 529 886 740 886 q 345 819 414 886 q 249 654 276 751 q 221 460 221 557 q 253 249 221 347 q 354 91 285 151 q 529 31 424 31 q 669 59 614 31 q 753 128 724 88 q 806 224 782 169 l 840 206 q 733 49 807 114 q 508 -17 658 -17 m 296 1250 l 347 1250 l 482 1121 l 611 1250 l 664 1250 l 525 1036 l 432 1036 l 296 1250 z "},"Ç":{"ha":904,"x_min":74,"x_max":840,"o":"m 494 -17 l 468 -76 q 507 -71 488 -71 q 573 -93 543 -71 q 603 -158 603 -115 q 560 -235 603 -211 q 461 -260 517 -260 q 347 -237 399 -260 l 364 -197 q 438 -215 400 -215 q 490 -203 468 -215 q 511 -165 511 -190 q 494 -129 511 -142 q 456 -117 478 -117 q 418 -126 440 -117 l 401 -118 l 449 -14 q 171 126 268 4 q 74 447 74 247 q 191 804 74 675 q 519 933 308 933 q 617 923 576 933 q 699 896 657 913 q 746 882 731 882 q 779 901 771 882 l 783 917 l 821 917 l 835 667 l 797 667 q 529 886 740 886 q 345 819 414 886 q 249 654 276 751 q 221 460 221 557 q 253 249 221 347 q 354 91 285 151 q 529 31 424 31 q 669 59 614 31 q 753 128 724 88 q 806 224 782 169 l 840 206 q 733 49 807 114 q 508 -17 658 -17 l 494 -17 z "},"D":{"ha":1007,"x_min":69,"x_max":933,"o":"m 69 40 q 144 46 122 40 q 171 67 165 51 q 176 124 176 83 l 176 793 q 170 849 176 833 q 143 871 164 865 q 69 876 122 876 l 69 917 l 482 917 q 817 801 700 914 q 933 474 933 689 q 807 120 933 240 q 449 0 681 0 l 69 0 l 69 40 m 436 46 q 785 468 785 46 q 703 763 785 657 q 449 869 622 868 q 353 865 382 869 q 314 847 324 861 q 304 801 304 833 l 304 153 q 317 85 304 108 q 357 54 329 63 q 436 46 385 46 z "},"Ð":{"ha":1011,"x_min":71,"x_max":938,"o":"m 486 917 q 821 801 704 914 q 938 474 938 689 q 811 120 938 240 q 453 0 685 0 l 74 0 l 74 40 q 148 46 126 40 q 175 67 169 51 q 181 124 181 83 l 181 436 l 71 436 l 71 489 l 181 489 l 181 793 q 174 849 181 833 q 147 871 168 865 q 74 876 126 876 l 74 917 l 486 917 m 440 46 q 789 468 789 46 q 708 763 789 657 q 453 869 626 868 q 357 865 386 869 q 318 847 328 861 q 308 801 308 833 l 308 489 l 578 489 l 578 436 l 308 436 l 308 153 q 321 85 308 108 q 361 54 333 63 q 440 46 389 46 z "},"Ď":{"ha":1007,"x_min":69,"x_max":933,"o":"m 69 40 q 144 46 122 40 q 171 67 165 51 q 176 124 176 83 l 176 793 q 170 849 176 833 q 143 871 164 865 q 69 876 122 876 l 69 917 l 482 917 q 817 801 700 914 q 933 474 933 689 q 807 120 933 240 q 449 0 681 0 l 69 0 l 69 40 m 436 46 q 785 468 785 46 q 703 763 785 657 q 449 869 622 868 q 353 865 382 869 q 314 847 324 861 q 304 801 304 833 l 304 153 q 317 85 304 108 q 357 54 329 63 q 436 46 385 46 m 303 1250 l 354 1250 l 489 1121 l 618 1250 l 671 1250 l 532 1036 l 439 1036 l 303 1250 z "},"Đ":{"ha":1011,"x_min":71,"x_max":938,"o":"m 486 917 q 821 801 704 914 q 938 474 938 689 q 811 120 938 240 q 453 0 685 0 l 74 0 l 74 40 q 148 46 126 40 q 175 67 169 51 q 181 124 181 83 l 181 436 l 71 436 l 71 489 l 181 489 l 181 793 q 174 849 181 833 q 147 871 168 865 q 74 876 126 876 l 74 917 l 486 917 m 440 46 q 789 468 789 46 q 708 763 789 657 q 453 869 626 868 q 357 865 386 869 q 318 847 328 861 q 308 801 308 833 l 308 489 l 578 489 l 578 436 l 308 436 l 308 153 q 321 85 308 108 q 361 54 333 63 q 440 46 389 46 z "},"E":{"ha":815,"x_min":69,"x_max":763,"o":"m 69 40 q 144 46 122 40 q 171 67 165 51 q 176 124 176 83 l 176 793 q 170 849 176 833 q 143 871 164 865 q 69 876 122 876 l 69 917 l 715 917 l 715 694 l 679 694 q 649 803 667 768 q 592 854 631 839 q 476 869 553 869 l 354 869 q 313 860 322 869 q 304 819 304 851 l 304 504 l 463 504 q 540 515 515 504 q 574 547 565 525 q 592 619 583 569 l 625 619 l 625 336 l 592 336 q 574 407 583 385 q 540 440 565 429 q 463 451 515 451 l 304 451 l 304 154 q 317 84 304 106 q 363 54 329 63 q 474 46 397 46 q 608 61 561 46 q 682 117 656 76 q 726 239 708 158 l 763 239 l 747 0 l 69 0 l 69 40 z "},"É":{"ha":815,"x_min":69,"x_max":763,"o":"m 69 40 q 144 46 122 40 q 171 67 165 51 q 176 124 176 83 l 176 793 q 170 849 176 833 q 143 871 164 865 q 69 876 122 876 l 69 917 l 715 917 l 715 694 l 679 694 q 649 803 667 768 q 592 854 631 839 q 476 869 553 869 l 354 869 q 313 860 322 869 q 304 819 304 851 l 304 504 l 463 504 q 540 515 515 504 q 574 547 565 525 q 592 619 583 569 l 625 619 l 625 336 l 592 336 q 574 407 583 385 q 540 440 565 429 q 463 451 515 451 l 304 451 l 304 154 q 317 84 304 106 q 363 54 329 63 q 474 46 397 46 q 608 61 561 46 q 682 117 656 76 q 726 239 708 158 l 763 239 l 747 0 l 69 0 l 69 40 m 417 1269 q 442 1304 429 1293 q 475 1315 456 1315 q 510 1300 494 1315 q 525 1264 525 1285 q 519 1238 525 1250 q 492 1203 513 1226 l 349 1047 l 310 1047 l 417 1269 z "},"Ě":{"ha":815,"x_min":69,"x_max":763,"o":"m 69 40 q 144 46 122 40 q 171 67 165 51 q 176 124 176 83 l 176 793 q 170 849 176 833 q 143 871 164 865 q 69 876 122 876 l 69 917 l 715 917 l 715 694 l 679 694 q 649 803 667 768 q 592 854 631 839 q 476 869 553 869 l 354 869 q 313 860 322 869 q 304 819 304 851 l 304 504 l 463 504 q 540 515 515 504 q 574 547 565 525 q 592 619 583 569 l 625 619 l 625 336 l 592 336 q 574 407 583 385 q 540 440 565 429 q 463 451 515 451 l 304 451 l 304 154 q 317 84 304 106 q 363 54 329 63 q 474 46 397 46 q 608 61 561 46 q 682 117 656 76 q 726 239 708 158 l 763 239 l 747 0 l 69 0 l 69 40 m 233 1250 l 285 1250 l 419 1121 l 549 1250 l 601 1250 l 463 1036 l 369 1036 l 233 1250 z "},"Ê":{"ha":815,"x_min":69,"x_max":763,"o":"m 69 40 q 144 46 122 40 q 171 67 165 51 q 176 124 176 83 l 176 793 q 170 849 176 833 q 143 871 164 865 q 69 876 122 876 l 69 917 l 715 917 l 715 694 l 679 694 q 649 803 667 768 q 592 854 631 839 q 476 869 553 869 l 354 869 q 313 860 322 869 q 304 819 304 851 l 304 504 l 463 504 q 540 515 515 504 q 574 547 565 525 q 592 619 583 569 l 625 619 l 625 336 l 592 336 q 574 407 583 385 q 540 440 565 429 q 463 451 515 451 l 304 451 l 304 154 q 317 84 304 106 q 363 54 329 63 q 474 46 397 46 q 608 61 561 46 q 682 117 656 76 q 726 239 708 158 l 763 239 l 747 0 l 69 0 l 69 40 m 372 1250 l 465 1250 l 601 1036 l 549 1036 l 415 1165 l 286 1036 l 233 1036 l 372 1250 z "},"Ë":{"ha":815,"x_min":69,"x_max":763,"o":"m 69 40 q 144 46 122 40 q 171 67 165 51 q 176 124 176 83 l 176 793 q 170 849 176 833 q 143 871 164 865 q 69 876 122 876 l 69 917 l 715 917 l 715 694 l 679 694 q 649 803 667 768 q 592 854 631 839 q 476 869 553 869 l 354 869 q 313 860 322 869 q 304 819 304 851 l 304 504 l 463 504 q 540 515 515 504 q 574 547 565 525 q 592 619 583 569 l 625 619 l 625 336 l 592 336 q 574 407 583 385 q 540 440 565 429 q 463 451 515 451 l 304 451 l 304 154 q 317 84 304 106 q 363 54 329 63 q 474 46 397 46 q 608 61 561 46 q 682 117 656 76 q 726 239 708 158 l 763 239 l 747 0 l 69 0 l 69 40 m 297 1064 q 249 1083 269 1064 q 229 1131 229 1103 q 249 1178 229 1158 q 297 1199 269 1199 q 345 1178 325 1199 q 365 1131 365 1158 q 345 1083 365 1103 q 297 1064 325 1064 m 538 1064 q 490 1083 510 1064 q 469 1131 469 1103 q 490 1178 469 1158 q 538 1199 510 1199 q 585 1178 565 1199 q 606 1131 606 1158 q 585 1083 606 1103 q 538 1064 565 1064 z "},"Ė":{"ha":815,"x_min":69,"x_max":763,"o":"m 69 40 q 144 46 122 40 q 171 67 165 51 q 176 124 176 83 l 176 793 q 170 849 176 833 q 143 871 164 865 q 69 876 122 876 l 69 917 l 715 917 l 715 694 l 679 694 q 649 803 667 768 q 592 854 631 839 q 476 869 553 869 l 354 869 q 313 860 322 869 q 304 819 304 851 l 304 504 l 463 504 q 540 515 515 504 q 574 547 565 525 q 592 619 583 569 l 625 619 l 625 336 l 592 336 q 574 407 583 385 q 540 440 565 429 q 463 451 515 451 l 304 451 l 304 154 q 317 84 304 106 q 363 54 329 63 q 474 46 397 46 q 608 61 561 46 q 682 117 656 76 q 726 239 708 158 l 763 239 l 747 0 l 69 0 l 69 40 m 417 1065 q 369 1085 389 1065 q 349 1133 349 1106 q 369 1181 349 1161 q 417 1201 389 1201 q 465 1181 444 1201 q 486 1133 486 1161 q 465 1085 486 1106 q 417 1065 444 1065 z "},"È":{"ha":815,"x_min":69,"x_max":763,"o":"m 69 40 q 144 46 122 40 q 171 67 165 51 q 176 124 176 83 l 176 793 q 170 849 176 833 q 143 871 164 865 q 69 876 122 876 l 69 917 l 715 917 l 715 694 l 679 694 q 649 803 667 768 q 592 854 631 839 q 476 869 553 869 l 354 869 q 313 860 322 869 q 304 819 304 851 l 304 504 l 463 504 q 540 515 515 504 q 574 547 565 525 q 592 619 583 569 l 625 619 l 625 336 l 592 336 q 574 407 583 385 q 540 440 565 429 q 463 451 515 451 l 304 451 l 304 154 q 317 84 304 106 q 363 54 329 63 q 474 46 397 46 q 608 61 561 46 q 682 117 656 76 q 726 239 708 158 l 763 239 l 747 0 l 69 0 l 69 40 m 343 1203 q 316 1238 322 1226 q 310 1264 310 1250 q 325 1300 310 1285 q 360 1315 340 1315 q 392 1304 379 1315 q 418 1269 406 1293 l 525 1047 l 486 1047 l 343 1203 z "},"Ē":{"ha":815,"x_min":69,"x_max":763,"o":"m 69 40 q 144 46 122 40 q 171 67 165 51 q 176 124 176 83 l 176 793 q 170 849 176 833 q 143 871 164 865 q 69 876 122 876 l 69 917 l 715 917 l 715 694 l 679 694 q 649 803 667 768 q 592 854 631 839 q 476 869 553 869 l 354 869 q 313 860 322 869 q 304 819 304 851 l 304 504 l 463 504 q 540 515 515 504 q 574 547 565 525 q 592 619 583 569 l 625 619 l 625 336 l 592 336 q 574 407 583 385 q 540 440 565 429 q 463 451 515 451 l 304 451 l 304 154 q 317 84 304 106 q 363 54 329 63 q 474 46 397 46 q 608 61 561 46 q 682 117 656 76 q 726 239 708 158 l 763 239 l 747 0 l 69 0 l 69 40 m 246 1133 l 590 1133 l 590 1061 l 246 1061 l 246 1133 z "},"Ę":{"ha":815,"x_min":69,"x_max":763,"o":"m 665 -204 q 731 -164 708 -204 l 751 -179 q 700 -242 732 -221 q 626 -262 668 -262 q 550 -239 579 -262 q 521 -168 521 -215 q 665 0 521 -90 l 69 0 l 69 40 q 144 46 122 40 q 171 67 165 51 q 176 124 176 83 l 176 793 q 170 849 176 833 q 143 871 164 865 q 69 876 122 876 l 69 917 l 715 917 l 715 694 l 679 694 q 649 803 667 768 q 592 854 631 839 q 476 869 553 869 l 354 869 q 313 860 322 869 q 304 819 304 851 l 304 504 l 463 504 q 540 515 515 504 q 574 547 565 525 q 592 619 583 569 l 625 619 l 625 336 l 592 336 q 574 407 583 385 q 540 440 565 429 q 463 451 515 451 l 304 451 l 304 154 q 317 84 304 106 q 363 54 329 63 q 474 46 397 46 q 608 61 561 46 q 682 117 656 76 q 726 239 708 158 l 763 239 l 747 0 l 714 0 q 632 -77 657 -44 q 607 -149 607 -110 q 624 -188 607 -172 q 665 -204 642 -204 z "},"F":{"ha":761,"x_min":69,"x_max":718,"o":"m 69 40 q 144 47 122 40 q 171 69 165 53 q 176 124 176 85 l 176 793 q 170 848 176 832 q 142 870 164 864 q 69 876 121 876 l 69 917 l 718 917 l 718 699 l 681 699 q 650 806 668 771 q 592 855 632 840 q 475 869 553 869 l 356 869 q 315 861 324 869 q 306 819 306 853 l 306 483 l 469 483 q 547 494 522 483 q 582 528 572 506 q 600 600 592 550 l 632 600 l 632 313 l 600 313 q 582 385 592 363 q 547 418 572 407 q 469 429 522 429 l 306 429 l 306 124 q 313 69 306 85 q 345 47 319 53 q 433 40 371 40 l 433 0 l 69 0 l 69 40 z "},"G":{"ha":922,"x_min":74,"x_max":904,"o":"m 500 -17 q 271 40 367 -17 q 124 202 175 97 q 74 450 74 307 q 126 705 74 596 q 278 874 179 814 q 515 933 378 933 q 615 924 575 933 q 696 897 656 914 q 749 882 733 882 q 781 901 774 882 l 788 917 l 821 917 l 835 667 l 797 667 q 713 820 775 754 q 532 886 650 886 q 346 819 415 886 q 249 653 276 751 q 221 456 221 556 q 254 248 221 344 q 359 91 288 151 q 540 31 431 31 q 650 52 603 31 q 706 126 697 74 l 706 310 q 689 363 706 347 q 628 378 672 378 l 604 378 l 604 418 l 904 418 l 904 378 l 885 378 q 846 365 858 378 q 833 319 833 351 l 833 -3 l 807 -3 q 790 24 800 15 q 761 33 779 33 q 696 18 744 33 q 603 -7 649 3 q 500 -17 558 -17 z "},"Ğ":{"ha":922,"x_min":74,"x_max":904,"o":"m 500 -17 q 271 40 367 -17 q 124 202 175 97 q 74 450 74 307 q 126 705 74 596 q 278 874 179 814 q 515 933 378 933 q 615 924 575 933 q 696 897 656 914 q 749 882 733 882 q 781 901 774 882 l 788 917 l 821 917 l 835 667 l 797 667 q 713 820 775 754 q 532 886 650 886 q 346 819 415 886 q 249 653 276 751 q 221 456 221 556 q 254 248 221 344 q 359 91 288 151 q 540 31 431 31 q 650 52 603 31 q 706 126 697 74 l 706 310 q 689 363 706 347 q 628 378 672 378 l 604 378 l 604 418 l 904 418 l 904 378 l 885 378 q 846 365 858 378 q 833 319 833 351 l 833 -3 l 807 -3 q 790 24 800 15 q 761 33 779 33 q 696 18 744 33 q 603 -7 649 3 q 500 -17 558 -17 m 469 1036 q 347 1086 388 1036 q 304 1225 307 1136 l 351 1225 q 390 1147 357 1174 q 469 1119 422 1119 q 551 1147 517 1119 q 590 1225 585 1174 l 636 1225 q 593 1085 633 1135 q 469 1036 553 1036 z "},"Ģ":{"ha":922,"x_min":74,"x_max":904,"o":"m 500 -17 q 271 40 367 -17 q 124 202 175 97 q 74 450 74 307 q 126 705 74 596 q 278 874 179 814 q 515 933 378 933 q 615 924 575 933 q 696 897 656 914 q 749 882 733 882 q 781 901 774 882 l 788 917 l 821 917 l 835 667 l 797 667 q 713 820 775 754 q 532 886 650 886 q 346 819 415 886 q 249 653 276 751 q 221 456 221 556 q 254 248 221 344 q 359 91 288 151 q 540 31 431 31 q 650 52 603 31 q 706 126 697 74 l 706 310 q 689 363 706 347 q 628 378 672 378 l 604 378 l 604 418 l 904 418 l 904 378 l 885 378 q 846 365 858 378 q 833 319 833 351 l 833 -3 l 807 -3 q 790 24 800 15 q 761 33 779 33 q 696 18 744 33 q 603 -7 649 3 q 500 -17 558 -17 z "},"H":{"ha":1054,"x_min":69,"x_max":986,"o":"m 69 40 q 144 46 122 40 q 171 66 165 51 q 176 118 176 81 l 176 797 q 170 849 176 833 q 142 869 164 864 q 69 876 121 875 l 69 917 l 411 917 l 411 876 q 338 870 360 876 q 310 849 317 864 q 304 797 304 833 l 304 504 l 751 504 l 751 797 q 745 849 751 833 q 717 870 739 864 q 644 876 696 876 l 644 917 l 986 917 l 986 876 q 913 869 935 875 q 885 849 892 864 q 879 797 879 833 l 879 118 q 885 67 879 82 q 913 46 892 51 q 986 40 935 40 l 986 0 l 644 0 l 644 40 q 719 46 697 40 q 746 66 740 51 q 751 118 751 81 l 751 451 l 304 451 l 304 118 q 310 67 304 82 q 338 46 317 51 q 411 40 360 40 l 411 0 l 69 0 l 69 40 z "},"I":{"ha":479,"x_min":69,"x_max":411,"o":"m 69 40 q 144 47 122 40 q 171 69 165 53 q 176 124 176 85 l 176 792 q 170 848 176 832 q 142 870 164 864 q 69 876 121 876 l 69 917 l 411 917 l 411 876 q 338 870 358 876 q 310 848 317 864 q 304 792 304 832 l 304 124 q 310 69 304 85 q 338 47 317 53 q 411 40 360 40 l 411 0 l 69 0 l 69 40 z "},"Í":{"ha":479,"x_min":69,"x_max":411,"o":"m 69 40 q 144 47 122 40 q 171 69 165 53 q 176 124 176 85 l 176 792 q 170 848 176 832 q 142 870 164 864 q 69 876 121 876 l 69 917 l 411 917 l 411 876 q 338 870 358 876 q 310 848 317 864 q 304 792 304 832 l 304 124 q 310 69 304 85 q 338 47 317 53 q 411 40 360 40 l 411 0 l 69 0 l 69 40 m 239 1269 q 265 1304 251 1293 q 297 1315 278 1315 q 332 1300 317 1315 q 347 1264 347 1285 q 341 1238 347 1250 q 314 1203 335 1226 l 171 1047 l 132 1047 l 239 1269 z "},"Î":{"ha":479,"x_min":56,"x_max":424,"o":"m 69 40 q 144 47 122 40 q 171 69 165 53 q 176 124 176 85 l 176 792 q 170 848 176 832 q 142 870 164 864 q 69 876 121 876 l 69 917 l 411 917 l 411 876 q 338 870 358 876 q 310 848 317 864 q 304 792 304 832 l 304 124 q 310 69 304 85 q 338 47 317 53 q 411 40 360 40 l 411 0 l 69 0 l 69 40 m 194 1250 l 288 1250 l 424 1036 l 371 1036 l 238 1165 l 108 1036 l 56 1036 l 194 1250 z "},"Ï":{"ha":479,"x_min":51,"x_max":428,"o":"m 69 40 q 144 47 122 40 q 171 69 165 53 q 176 124 176 85 l 176 792 q 170 848 176 832 q 142 870 164 864 q 69 876 121 876 l 69 917 l 411 917 l 411 876 q 338 870 358 876 q 310 848 317 864 q 304 792 304 832 l 304 124 q 310 69 304 85 q 338 47 317 53 q 411 40 360 40 l 411 0 l 69 0 l 69 40 m 119 1064 q 72 1083 92 1064 q 51 1131 51 1103 q 72 1178 51 1158 q 119 1199 92 1199 q 167 1178 147 1199 q 188 1131 188 1158 q 167 1083 188 1103 q 119 1064 147 1064 m 360 1064 q 312 1083 332 1064 q 292 1131 292 1103 q 312 1178 292 1158 q 360 1199 332 1199 q 408 1178 388 1199 q 428 1131 428 1158 q 408 1083 428 1103 q 360 1064 388 1064 z "},"Ì":{"ha":479,"x_min":69,"x_max":411,"o":"m 69 40 q 144 47 122 40 q 171 69 165 53 q 176 124 176 85 l 176 792 q 170 848 176 832 q 142 870 164 864 q 69 876 121 876 l 69 917 l 411 917 l 411 876 q 338 870 358 876 q 310 848 317 864 q 304 792 304 832 l 304 124 q 310 69 304 85 q 338 47 317 53 q 411 40 360 40 l 411 0 l 69 0 l 69 40 m 165 1203 q 138 1238 144 1226 q 132 1264 132 1250 q 147 1300 132 1285 q 182 1315 163 1315 q 215 1304 201 1315 q 240 1269 228 1293 l 347 1047 l 308 1047 l 165 1203 z "},"Ī":{"ha":479,"x_min":68,"x_max":413,"o":"m 69 40 q 144 47 122 40 q 171 69 165 53 q 176 124 176 85 l 176 792 q 170 848 176 832 q 142 870 164 864 q 69 876 121 876 l 69 917 l 411 917 l 411 876 q 338 870 358 876 q 310 848 317 864 q 304 792 304 832 l 304 124 q 310 69 304 85 q 338 47 317 53 q 411 40 360 40 l 411 0 l 69 0 l 69 40 m 68 1133 l 413 1133 l 413 1061 l 68 1061 l 68 1133 z "},"Į":{"ha":479,"x_min":69,"x_max":411,"o":"m 411 876 q 338 870 358 876 q 310 848 317 864 q 304 792 304 832 l 304 124 q 310 69 304 85 q 338 47 317 53 q 411 40 360 40 l 411 0 l 372 0 q 290 -77 315 -44 q 265 -149 265 -110 q 283 -188 265 -172 q 324 -204 300 -204 q 389 -164 367 -204 l 410 -179 q 358 -242 390 -221 q 285 -262 326 -262 q 208 -239 238 -262 q 179 -168 179 -215 q 324 0 179 -90 l 69 0 l 69 40 q 144 47 122 40 q 171 69 165 53 q 176 124 176 85 l 176 792 q 170 848 176 832 q 142 870 164 864 q 69 876 121 876 l 69 917 l 411 917 l 411 876 z "},"J":{"ha":526,"x_min":-53,"x_max":476,"o":"m 108 -292 q -8 -256 38 -292 q -53 -171 -53 -221 q -31 -106 -53 -129 q 29 -82 -10 -82 q 81 -100 60 -82 q 101 -150 101 -118 q 97 -176 101 -167 q 85 -197 93 -186 q 76 -217 76 -207 q 89 -238 76 -231 q 121 -246 101 -246 q 216 -185 190 -246 q 242 -8 242 -125 l 242 792 q 235 848 242 832 q 208 870 229 864 q 135 876 186 876 l 135 917 l 476 917 l 476 876 q 403 870 424 876 q 376 848 382 864 q 369 792 369 832 l 369 110 q 314 -187 369 -82 q 108 -292 258 -292 z "},"K":{"ha":888,"x_min":69,"x_max":879,"o":"m 713 165 q 794 72 756 103 q 879 40 833 40 l 879 0 l 547 0 l 547 40 l 572 40 q 603 67 603 40 q 586 108 603 83 l 336 457 l 304 425 l 304 124 q 310 69 304 85 q 338 47 317 53 q 411 40 360 40 l 411 0 l 69 0 l 69 40 q 144 47 122 40 q 171 69 165 53 q 176 124 176 85 l 176 792 q 170 848 176 832 q 142 870 164 864 q 69 876 121 876 l 69 917 l 411 917 l 411 876 q 338 870 358 876 q 310 848 317 864 q 304 792 304 832 l 304 483 l 635 819 q 656 858 656 840 q 629 876 656 876 l 586 876 l 586 917 l 850 917 l 850 876 q 761 852 800 876 q 651 758 722 828 l 428 543 l 713 165 z "},"Ķ":{"ha":888,"x_min":69,"x_max":879,"o":"m 713 165 q 794 72 756 103 q 879 40 833 40 l 879 0 l 547 0 l 547 40 l 572 40 q 603 67 603 40 q 586 108 603 83 l 336 457 l 304 425 l 304 124 q 310 69 304 85 q 338 47 317 53 q 411 40 360 40 l 411 0 l 69 0 l 69 40 q 144 47 122 40 q 171 69 165 53 q 176 124 176 85 l 176 792 q 170 848 176 832 q 142 870 164 864 q 69 876 121 876 l 69 917 l 411 917 l 411 876 q 338 870 358 876 q 310 848 317 864 q 304 792 304 832 l 304 483 l 635 819 q 656 858 656 840 q 629 876 656 876 l 586 876 l 586 917 l 850 917 l 850 876 q 761 852 800 876 q 651 758 722 828 l 428 543 l 713 165 m 404 -246 q 453 -227 431 -243 q 475 -193 475 -211 q 468 -179 475 -183 q 446 -169 461 -175 q 413 -149 424 -160 q 401 -115 401 -137 q 419 -72 401 -89 q 464 -56 436 -56 q 517 -79 499 -56 q 536 -139 536 -103 q 501 -230 536 -192 q 408 -276 465 -268 l 404 -246 z "},"L":{"ha":800,"x_min":69,"x_max":746,"o":"m 69 40 q 144 46 122 40 q 171 67 165 51 q 176 124 176 83 l 176 793 q 170 848 176 832 q 142 870 164 864 q 69 876 121 876 l 69 917 l 414 917 l 414 876 q 339 870 361 876 q 310 848 317 864 q 304 793 304 832 l 304 158 q 317 84 304 107 q 364 54 331 61 q 471 47 397 47 q 597 63 553 47 q 667 117 642 78 q 710 238 692 157 l 746 238 l 731 0 l 69 0 l 69 40 z "},"Ĺ":{"ha":800,"x_min":69,"x_max":746,"o":"m 69 40 q 144 46 122 40 q 171 67 165 51 q 176 124 176 83 l 176 793 q 170 848 176 832 q 142 870 164 864 q 69 876 121 876 l 69 917 l 414 917 l 414 876 q 339 870 361 876 q 310 848 317 864 q 304 793 304 832 l 304 158 q 317 84 304 107 q 364 54 331 61 q 471 47 397 47 q 597 63 553 47 q 667 117 642 78 q 710 238 692 157 l 746 238 l 731 0 l 69 0 l 69 40 m 324 1253 q 349 1288 336 1276 q 382 1299 363 1299 q 417 1283 401 1299 q 432 1247 432 1268 q 426 1222 432 1233 q 399 1186 419 1210 l 256 1031 l 217 1031 l 324 1253 z "},"Ľ":{"ha":800,"x_min":69,"x_max":746,"o":"m 69 40 q 144 46 122 40 q 171 67 165 51 q 176 124 176 83 l 176 793 q 170 848 176 832 q 142 870 164 864 q 69 876 121 876 l 69 917 l 414 917 l 414 876 q 339 870 361 876 q 310 848 317 864 q 304 793 304 832 l 304 158 q 317 84 304 107 q 364 54 331 61 q 471 47 397 47 q 597 63 553 47 q 667 117 642 78 q 710 238 692 157 l 746 238 l 731 0 l 69 0 l 69 40 m 485 761 q 533 780 511 764 q 556 814 556 796 q 549 828 556 824 q 526 838 542 832 q 493 858 504 847 q 482 892 482 869 q 499 935 482 918 q 544 951 517 951 q 598 928 579 951 q 617 868 617 904 q 581 777 617 815 q 489 731 546 739 l 485 761 z "},"Ļ":{"ha":800,"x_min":69,"x_max":746,"o":"m 69 40 q 144 46 122 40 q 171 67 165 51 q 176 124 176 83 l 176 793 q 170 848 176 832 q 142 870 164 864 q 69 876 121 876 l 69 917 l 414 917 l 414 876 q 339 870 361 876 q 310 848 317 864 q 304 793 304 832 l 304 158 q 317 84 304 107 q 364 54 331 61 q 471 47 397 47 q 597 63 553 47 q 667 117 642 78 q 710 238 692 157 l 746 238 l 731 0 l 69 0 l 69 40 m 322 -246 q 371 -227 349 -243 q 393 -193 393 -211 q 386 -179 393 -183 q 364 -169 379 -175 q 331 -149 342 -160 q 319 -115 319 -137 q 337 -72 319 -89 q 382 -56 354 -56 q 435 -79 417 -56 q 454 -139 454 -103 q 419 -230 454 -192 q 326 -276 383 -268 l 322 -246 z "},"Ł":{"ha":833,"x_min":69,"x_max":779,"o":"m 779 238 l 764 0 l 103 0 l 103 40 q 177 46 156 40 q 204 67 199 51 q 210 124 210 83 l 210 354 l 69 256 l 69 322 l 210 421 l 210 793 q 203 848 210 832 q 176 870 197 864 q 103 876 154 876 l 103 917 l 447 917 l 447 876 q 372 870 394 876 q 344 848 350 864 q 338 793 338 832 l 338 511 l 564 671 l 564 604 l 338 444 l 338 158 q 351 84 338 107 q 397 54 364 61 q 504 47 431 47 q 631 63 586 47 q 700 117 675 78 q 743 238 725 157 l 779 238 z "},"M":{"ha":1164,"x_min":53,"x_max":1093,"o":"m 53 40 l 93 40 q 147 55 135 40 q 158 114 158 69 l 158 797 q 151 849 158 833 q 124 869 144 864 q 53 876 103 875 l 53 917 l 297 917 l 578 235 l 579 235 l 860 917 l 1093 917 l 1093 876 q 1022 869 1043 875 q 994 849 1001 864 q 988 797 988 833 l 988 118 q 994 67 988 83 q 1023 46 1001 51 q 1093 40 1044 40 l 1093 0 l 754 0 l 754 40 q 828 47 806 40 q 856 68 850 53 q 863 118 863 83 l 863 792 l 860 792 l 551 36 l 526 36 l 214 792 l 211 792 l 211 114 q 215 65 211 79 q 233 46 218 51 q 281 40 247 40 l 332 40 l 332 0 l 53 0 l 53 40 z "},"N":{"ha":975,"x_min":56,"x_max":919,"o":"m 219 781 l 217 781 l 217 113 q 233 57 217 74 q 286 40 249 40 l 340 40 l 340 0 l 57 0 l 57 40 l 97 40 q 147 58 131 40 q 163 113 163 75 l 163 797 q 156 849 163 833 q 128 869 149 864 q 56 876 107 875 l 56 917 l 289 917 l 757 206 l 761 206 l 761 810 q 690 876 761 876 l 636 876 l 636 917 l 919 917 l 919 876 l 878 876 q 814 810 814 876 l 814 -8 l 746 -8 l 219 781 z "},"Ń":{"ha":975,"x_min":56,"x_max":919,"o":"m 219 781 l 217 781 l 217 113 q 233 57 217 74 q 286 40 249 40 l 340 40 l 340 0 l 57 0 l 57 40 l 97 40 q 147 58 131 40 q 163 113 163 75 l 163 797 q 156 849 163 833 q 128 869 149 864 q 56 876 107 875 l 56 917 l 289 917 l 757 206 l 761 206 l 761 810 q 690 876 761 876 l 636 876 l 636 917 l 919 917 l 919 876 l 878 876 q 814 810 814 876 l 814 -8 l 746 -8 l 219 781 m 499 1269 q 524 1304 511 1293 q 557 1315 538 1315 q 592 1300 576 1315 q 607 1264 607 1285 q 601 1238 607 1250 q 574 1203 594 1226 l 431 1047 l 392 1047 l 499 1269 z "},"Ň":{"ha":975,"x_min":56,"x_max":919,"o":"m 219 781 l 217 781 l 217 113 q 233 57 217 74 q 286 40 249 40 l 340 40 l 340 0 l 57 0 l 57 40 l 97 40 q 147 58 131 40 q 163 113 163 75 l 163 797 q 156 849 163 833 q 128 869 149 864 q 56 876 107 875 l 56 917 l 289 917 l 757 206 l 761 206 l 761 810 q 690 876 761 876 l 636 876 l 636 917 l 919 917 l 919 876 l 878 876 q 814 810 814 876 l 814 -8 l 746 -8 l 219 781 m 315 1250 l 367 1250 l 501 1121 l 631 1250 l 683 1250 l 544 1036 l 451 1036 l 315 1250 z "},"Ņ":{"ha":975,"x_min":56,"x_max":919,"o":"m 219 781 l 217 781 l 217 113 q 233 57 217 74 q 286 40 249 40 l 340 40 l 340 0 l 57 0 l 57 40 l 97 40 q 147 58 131 40 q 163 113 163 75 l 163 797 q 156 849 163 833 q 128 869 149 864 q 56 876 107 875 l 56 917 l 289 917 l 757 206 l 761 206 l 761 810 q 690 876 761 876 l 636 876 l 636 917 l 919 917 l 919 876 l 878 876 q 814 810 814 876 l 814 -8 l 746 -8 l 219 781 m 435 -246 q 483 -227 461 -243 q 506 -193 506 -211 q 499 -179 506 -183 q 476 -169 492 -175 q 443 -149 454 -160 q 432 -115 432 -137 q 449 -72 432 -89 q 494 -56 467 -56 q 548 -79 529 -56 q 567 -139 567 -103 q 531 -230 567 -192 q 439 -276 496 -268 l 435 -246 z "},"Ñ":{"ha":975,"x_min":56,"x_max":919,"o":"m 219 781 l 217 781 l 217 113 q 233 57 217 74 q 286 40 249 40 l 340 40 l 340 0 l 57 0 l 57 40 l 97 40 q 147 58 131 40 q 163 113 163 75 l 163 797 q 156 849 163 833 q 128 869 149 864 q 56 876 107 875 l 56 917 l 289 917 l 757 206 l 761 206 l 761 810 q 690 876 761 876 l 636 876 l 636 917 l 919 917 l 919 876 l 878 876 q 814 810 814 876 l 814 -8 l 746 -8 l 219 781 m 576 1046 q 534 1053 554 1046 q 481 1075 514 1060 q 397 1101 428 1101 q 355 1086 371 1101 q 336 1049 339 1071 l 304 1049 q 339 1144 307 1107 q 424 1182 371 1182 q 470 1175 447 1182 q 522 1154 493 1168 q 603 1131 575 1131 q 646 1146 631 1131 q 663 1181 661 1161 l 696 1181 q 660 1086 693 1126 q 576 1046 626 1046 z "},"O":{"ha":986,"x_min":74,"x_max":914,"o":"m 493 -17 q 178 113 283 -17 q 74 457 74 243 q 178 801 74 669 q 493 933 282 933 q 810 801 706 933 q 914 457 914 669 q 809 113 914 243 q 493 -17 704 -17 m 494 31 q 706 152 644 31 q 767 457 767 274 q 707 769 767 651 q 494 886 647 886 q 282 769 342 886 q 222 457 222 651 q 283 152 222 274 q 494 31 344 31 z "},"Ó":{"ha":986,"x_min":74,"x_max":914,"o":"m 493 -17 q 178 113 283 -17 q 74 457 74 243 q 178 801 74 669 q 493 933 282 933 q 810 801 706 933 q 914 457 914 669 q 809 113 914 243 q 493 -17 704 -17 m 494 31 q 706 152 644 31 q 767 457 767 274 q 707 769 767 651 q 494 886 647 886 q 282 769 342 886 q 222 457 222 651 q 283 152 222 274 q 494 31 344 31 m 493 1269 q 519 1304 506 1293 q 551 1315 532 1315 q 586 1300 571 1315 q 601 1264 601 1285 q 595 1238 601 1250 q 568 1203 589 1226 l 425 1047 l 386 1047 l 493 1269 z "},"Ô":{"ha":986,"x_min":74,"x_max":914,"o":"m 493 -17 q 178 113 283 -17 q 74 457 74 243 q 178 801 74 669 q 493 933 282 933 q 810 801 706 933 q 914 457 914 669 q 809 113 914 243 q 493 -17 704 -17 m 494 31 q 706 152 644 31 q 767 457 767 274 q 707 769 767 651 q 494 886 647 886 q 282 769 342 886 q 222 457 222 651 q 283 152 222 274 q 494 31 344 31 m 449 1250 l 542 1250 l 678 1036 l 625 1036 l 492 1165 l 363 1036 l 310 1036 l 449 1250 z "},"Ö":{"ha":986,"x_min":74,"x_max":914,"o":"m 493 -17 q 178 113 283 -17 q 74 457 74 243 q 178 801 74 669 q 493 933 282 933 q 810 801 706 933 q 914 457 914 669 q 809 113 914 243 q 493 -17 704 -17 m 494 31 q 706 152 644 31 q 767 457 767 274 q 707 769 767 651 q 494 886 647 886 q 282 769 342 886 q 222 457 222 651 q 283 152 222 274 q 494 31 344 31 m 374 1064 q 326 1083 346 1064 q 306 1131 306 1103 q 326 1178 306 1158 q 374 1199 346 1199 q 422 1178 401 1199 q 442 1131 442 1158 q 422 1083 442 1103 q 374 1064 401 1064 m 614 1064 q 566 1083 586 1064 q 546 1131 546 1103 q 566 1178 546 1158 q 614 1199 586 1199 q 662 1178 642 1199 q 682 1131 682 1158 q 662 1083 682 1103 q 614 1064 642 1064 z "},"Ò":{"ha":986,"x_min":74,"x_max":914,"o":"m 493 -17 q 178 113 283 -17 q 74 457 74 243 q 178 801 74 669 q 493 933 282 933 q 810 801 706 933 q 914 457 914 669 q 809 113 914 243 q 493 -17 704 -17 m 494 31 q 706 152 644 31 q 767 457 767 274 q 707 769 767 651 q 494 886 647 886 q 282 769 342 886 q 222 457 222 651 q 283 152 222 274 q 494 31 344 31 m 419 1203 q 392 1238 399 1226 q 386 1264 386 1250 q 401 1300 386 1285 q 436 1315 417 1315 q 469 1304 456 1315 q 494 1269 482 1293 l 601 1047 l 563 1047 l 419 1203 z "},"Ō":{"ha":986,"x_min":74,"x_max":914,"o":"m 493 -17 q 178 113 283 -17 q 74 457 74 243 q 178 801 74 669 q 493 933 282 933 q 810 801 706 933 q 914 457 914 669 q 809 113 914 243 q 493 -17 704 -17 m 494 31 q 706 152 644 31 q 767 457 767 274 q 707 769 767 651 q 494 886 647 886 q 282 769 342 886 q 222 457 222 651 q 283 152 222 274 q 494 31 344 31 m 322 1133 l 667 1133 l 667 1061 l 322 1061 l 322 1133 z "},"Ø":{"ha":990,"x_min":76,"x_max":918,"o":"m 797 819 q 888 663 858 756 q 918 457 918 569 q 813 113 918 243 q 497 -17 708 -17 q 211 83 318 -17 l 139 -8 l 76 -8 l 178 119 q 103 267 128 181 q 78 457 78 354 q 182 801 78 669 q 497 933 286 933 q 763 851 658 933 l 821 925 l 882 925 l 797 819 m 226 457 q 258 219 226 317 l 704 779 q 499 886 636 886 q 286 769 346 886 q 226 457 226 651 m 499 31 q 710 152 649 31 q 771 457 771 274 q 729 732 771 628 l 279 168 q 499 31 347 31 z "},"Õ":{"ha":986,"x_min":74,"x_max":914,"o":"m 493 -17 q 178 113 283 -17 q 74 457 74 243 q 178 801 74 669 q 493 933 282 933 q 810 801 706 933 q 914 457 914 669 q 809 113 914 243 q 493 -17 704 -17 m 494 31 q 706 152 644 31 q 767 457 767 274 q 707 769 767 651 q 494 886 647 886 q 282 769 342 886 q 222 457 222 651 q 283 152 222 274 q 494 31 344 31 m 571 1046 q 528 1053 549 1046 q 475 1075 508 1060 q 392 1101 422 1101 q 349 1086 365 1101 q 331 1049 333 1071 l 299 1049 q 333 1144 301 1107 q 418 1182 365 1182 q 465 1175 442 1182 q 517 1154 488 1168 q 597 1131 569 1131 q 640 1146 625 1131 q 657 1181 656 1161 l 690 1181 q 654 1086 688 1126 q 571 1046 621 1046 z "},"Œ":{"ha":1349,"x_min":74,"x_max":1294,"o":"m 539 0 q 288 57 393 0 q 128 219 183 114 q 74 465 74 324 q 193 797 74 678 q 529 917 313 917 l 1247 917 l 1247 694 l 1211 694 q 1181 803 1199 768 q 1124 854 1163 839 q 1008 869 1085 869 l 886 869 q 845 860 854 869 q 836 819 836 851 l 836 504 l 994 504 q 1072 515 1047 504 q 1106 547 1097 525 q 1124 619 1115 569 l 1157 619 l 1157 336 l 1124 336 q 1106 407 1115 385 q 1072 440 1097 429 q 994 451 1047 451 l 836 451 l 836 158 q 849 86 836 110 q 895 54 861 63 q 1000 46 929 46 q 1138 60 1090 46 q 1213 115 1186 75 q 1258 239 1240 156 l 1294 239 l 1279 0 l 539 0 m 582 46 q 681 69 653 46 q 710 156 710 92 l 710 788 q 702 836 710 819 q 669 861 694 853 q 589 869 643 869 q 306 767 390 869 q 222 474 222 664 q 317 151 222 257 q 582 46 411 46 z "},"P":{"ha":792,"x_min":69,"x_max":747,"o":"m 69 40 q 142 47 119 40 q 170 68 164 53 q 176 118 176 83 l 176 797 q 169 849 176 833 q 141 870 163 864 q 69 876 119 876 l 69 917 l 414 917 q 665 846 582 917 q 747 656 747 775 q 660 451 747 529 q 400 372 574 372 l 304 372 l 304 118 q 312 67 304 82 q 344 46 319 51 q 426 40 369 40 l 426 0 l 69 0 l 69 40 m 392 424 q 608 647 608 424 q 554 813 608 758 q 388 868 500 868 q 320 856 336 868 q 304 819 304 844 l 304 424 l 392 424 z "},"Þ":{"ha":793,"x_min":69,"x_max":746,"o":"m 69 40 q 142 47 119 40 q 170 68 164 53 q 176 119 176 83 l 176 792 q 170 848 176 832 q 142 870 164 864 q 69 876 121 876 l 69 917 l 411 917 l 411 876 q 338 870 358 876 q 310 848 317 864 q 304 792 304 832 l 304 750 l 414 750 q 660 690 575 750 q 746 493 746 629 q 652 288 746 349 q 399 228 558 228 l 304 228 l 304 119 q 312 67 304 83 q 343 46 319 51 q 422 40 367 40 l 422 0 l 69 0 l 69 40 m 389 278 q 553 329 499 278 q 607 489 607 381 q 553 648 607 596 q 389 700 500 700 q 321 688 338 700 q 304 650 304 676 l 304 278 l 389 278 z "},"Q":{"ha":986,"x_min":74,"x_max":914,"o":"m 703 -160 q 789 -128 750 -160 l 810 -156 q 740 -204 776 -186 q 650 -222 703 -222 q 499 -160 553 -222 q 440 -14 446 -99 q 165 130 257 3 q 74 456 74 257 q 178 801 74 668 q 493 933 282 933 q 810 801 706 933 q 914 456 914 668 q 831 143 914 268 q 585 -10 749 18 q 619 -115 589 -71 q 703 -160 649 -160 m 222 464 q 283 153 222 275 q 494 31 343 31 q 706 153 646 31 q 767 464 767 275 q 494 886 767 886 q 222 464 222 886 z "},"R":{"ha":840,"x_min":69,"x_max":818,"o":"m 69 40 q 142 47 119 40 q 170 68 164 53 q 176 118 176 83 l 176 797 q 169 849 176 833 q 141 870 163 864 q 69 876 119 876 l 69 917 l 443 917 q 658 860 581 917 q 736 690 736 803 q 683 538 736 596 q 539 458 629 479 l 539 456 q 644 388 610 435 q 693 243 678 340 l 701 192 q 740 77 715 114 q 818 40 765 40 l 818 0 l 638 0 q 582 128 601 33 l 549 299 q 498 399 535 368 q 389 431 461 431 l 304 431 l 304 118 q 311 67 304 83 q 342 46 318 51 q 418 40 365 40 l 418 0 l 69 0 l 69 40 m 392 481 q 547 527 497 481 q 597 674 597 574 q 546 821 597 774 q 389 868 494 868 q 320 856 336 868 q 304 817 304 844 l 304 481 l 392 481 z "},"Ŕ":{"ha":840,"x_min":69,"x_max":818,"o":"m 69 40 q 142 47 119 40 q 170 68 164 53 q 176 118 176 83 l 176 797 q 169 849 176 833 q 141 870 163 864 q 69 876 119 876 l 69 917 l 443 917 q 658 860 581 917 q 736 690 736 803 q 683 538 736 596 q 539 458 629 479 l 539 456 q 644 388 610 435 q 693 243 678 340 l 701 192 q 740 77 715 114 q 818 40 765 40 l 818 0 l 638 0 q 582 128 601 33 l 549 299 q 498 399 535 368 q 389 431 461 431 l 304 431 l 304 118 q 311 67 304 83 q 342 46 318 51 q 418 40 365 40 l 418 0 l 69 0 l 69 40 m 392 481 q 547 527 497 481 q 597 674 597 574 q 546 821 597 774 q 389 868 494 868 q 320 856 336 868 q 304 817 304 844 l 304 481 l 392 481 m 424 1269 q 449 1304 436 1293 q 482 1315 463 1315 q 517 1300 501 1315 q 532 1264 532 1285 q 526 1238 532 1250 q 499 1203 519 1226 l 356 1047 l 317 1047 l 424 1269 z "},"Ř":{"ha":840,"x_min":69,"x_max":818,"o":"m 69 40 q 142 47 119 40 q 170 68 164 53 q 176 118 176 83 l 176 797 q 169 849 176 833 q 141 870 163 864 q 69 876 119 876 l 69 917 l 443 917 q 658 860 581 917 q 736 690 736 803 q 683 538 736 596 q 539 458 629 479 l 539 456 q 644 388 610 435 q 693 243 678 340 l 701 192 q 740 77 715 114 q 818 40 765 40 l 818 0 l 638 0 q 582 128 601 33 l 549 299 q 498 399 535 368 q 389 431 461 431 l 304 431 l 304 118 q 311 67 304 83 q 342 46 318 51 q 418 40 365 40 l 418 0 l 69 0 l 69 40 m 392 481 q 547 527 497 481 q 597 674 597 574 q 546 821 597 774 q 389 868 494 868 q 320 856 336 868 q 304 817 304 844 l 304 481 l 392 481 m 240 1250 l 292 1250 l 426 1121 l 556 1250 l 608 1250 l 469 1036 l 376 1036 l 240 1250 z "},"Ŗ":{"ha":840,"x_min":69,"x_max":818,"o":"m 69 40 q 142 47 119 40 q 170 68 164 53 q 176 118 176 83 l 176 797 q 169 849 176 833 q 141 870 163 864 q 69 876 119 876 l 69 917 l 443 917 q 658 860 581 917 q 736 690 736 803 q 683 538 736 596 q 539 458 629 479 l 539 456 q 644 388 610 435 q 693 243 678 340 l 701 192 q 740 77 715 114 q 818 40 765 40 l 818 0 l 638 0 q 582 128 601 33 l 549 299 q 498 399 535 368 q 389 431 461 431 l 304 431 l 304 118 q 311 67 304 83 q 342 46 318 51 q 418 40 365 40 l 418 0 l 69 0 l 69 40 m 392 481 q 547 527 497 481 q 597 674 597 574 q 546 821 597 774 q 389 868 494 868 q 320 856 336 868 q 304 817 304 844 l 304 481 l 392 481 m 360 -246 q 408 -227 386 -243 q 431 -193 431 -211 q 424 -179 431 -183 q 401 -169 417 -175 q 368 -149 379 -160 q 357 -115 357 -137 q 374 -72 357 -89 q 419 -56 392 -56 q 473 -79 454 -56 q 492 -139 492 -103 q 456 -230 492 -192 q 364 -276 421 -268 l 360 -246 z "},"S":{"ha":724,"x_min":64,"x_max":660,"o":"m 64 267 l 100 267 q 181 100 115 169 q 347 31 246 31 q 484 82 435 31 q 533 211 533 133 q 494 319 533 276 q 374 399 456 363 l 310 425 q 135 533 194 474 q 75 694 75 593 q 154 872 75 811 q 357 933 233 933 q 497 904 436 933 q 532 894 522 894 q 549 903 543 894 q 558 929 554 913 l 589 929 l 603 683 l 567 683 q 501 831 553 775 q 360 886 450 886 q 242 847 286 886 q 199 729 199 807 q 238 624 199 663 q 357 550 276 585 l 424 522 q 547 458 497 490 q 628 374 596 426 q 660 247 660 322 q 576 54 660 125 q 349 -17 492 -17 q 261 -9 296 -17 q 188 13 226 -1 q 149 24 163 24 q 126 14 133 24 q 117 -11 118 4 l 82 -11 l 64 267 z "},"Ś":{"ha":724,"x_min":64,"x_max":660,"o":"m 64 267 l 100 267 q 181 100 115 169 q 347 31 246 31 q 484 82 435 31 q 533 211 533 133 q 494 319 533 276 q 374 399 456 363 l 310 425 q 135 533 194 474 q 75 694 75 593 q 154 872 75 811 q 357 933 233 933 q 497 904 436 933 q 532 894 522 894 q 549 903 543 894 q 558 929 554 913 l 589 929 l 603 683 l 567 683 q 501 831 553 775 q 360 886 450 886 q 242 847 286 886 q 199 729 199 807 q 238 624 199 663 q 357 550 276 585 l 424 522 q 547 458 497 490 q 628 374 596 426 q 660 247 660 322 q 576 54 660 125 q 349 -17 492 -17 q 261 -9 296 -17 q 188 13 226 -1 q 149 24 163 24 q 126 14 133 24 q 117 -11 118 4 l 82 -11 l 64 267 m 351 1269 q 377 1304 364 1293 q 410 1315 390 1315 q 444 1300 429 1315 q 460 1264 460 1285 q 453 1238 460 1250 q 426 1203 447 1226 l 283 1047 l 244 1047 l 351 1269 z "},"Š":{"ha":724,"x_min":64,"x_max":660,"o":"m 64 267 l 100 267 q 181 100 115 169 q 347 31 246 31 q 484 82 435 31 q 533 211 533 133 q 494 319 533 276 q 374 399 456 363 l 310 425 q 135 533 194 474 q 75 694 75 593 q 154 872 75 811 q 357 933 233 933 q 497 904 436 933 q 532 894 522 894 q 549 903 543 894 q 558 929 554 913 l 589 929 l 603 683 l 567 683 q 501 831 553 775 q 360 886 450 886 q 242 847 286 886 q 199 729 199 807 q 238 624 199 663 q 357 550 276 585 l 424 522 q 547 458 497 490 q 628 374 596 426 q 660 247 660 322 q 576 54 660 125 q 349 -17 492 -17 q 261 -9 296 -17 q 188 13 226 -1 q 149 24 163 24 q 126 14 133 24 q 117 -11 118 4 l 82 -11 l 64 267 m 168 1250 l 219 1250 l 354 1121 l 483 1250 l 536 1250 l 397 1036 l 304 1036 l 168 1250 z "},"Ş":{"ha":724,"x_min":64,"x_max":660,"o":"m 660 247 q 583 60 660 131 q 372 -17 506 -10 l 346 -76 q 385 -71 365 -71 q 451 -93 421 -71 q 481 -158 481 -115 q 438 -235 481 -211 q 339 -260 394 -260 q 225 -237 276 -260 l 242 -197 q 315 -215 278 -215 q 367 -203 346 -215 q 389 -165 389 -190 q 372 -129 389 -142 q 333 -117 356 -117 q 296 -126 318 -117 l 279 -118 l 325 -17 q 253 -7 282 -14 q 188 13 224 0 q 149 24 161 24 q 126 14 133 24 q 117 -11 118 4 l 82 -11 l 64 267 l 100 267 q 181 100 115 169 q 347 31 246 31 q 484 82 435 31 q 533 211 533 133 q 494 319 533 276 q 374 399 456 363 l 310 425 q 135 533 194 474 q 75 694 75 593 q 154 872 75 811 q 357 933 233 933 q 497 904 436 933 q 532 894 522 894 q 549 903 543 894 q 558 929 554 913 l 589 929 l 603 683 l 567 683 q 501 831 553 775 q 360 886 450 886 q 242 847 286 886 q 199 729 199 807 q 238 624 199 663 q 357 550 276 585 l 424 522 q 547 458 497 490 q 628 374 596 426 q 660 247 660 322 z "},"Ș":{"ha":724,"x_min":64,"x_max":660,"o":"m 64 267 l 100 267 q 181 100 115 169 q 347 31 246 31 q 484 82 435 31 q 533 211 533 133 q 494 319 533 276 q 374 399 456 363 l 310 425 q 135 533 194 474 q 75 694 75 593 q 154 872 75 811 q 357 933 233 933 q 497 904 436 933 q 532 894 522 894 q 549 903 543 894 q 558 929 554 913 l 589 929 l 603 683 l 567 683 q 501 831 553 775 q 360 886 450 886 q 242 847 286 886 q 199 729 199 807 q 238 624 199 663 q 357 550 276 585 l 424 522 q 547 458 497 490 q 628 374 596 426 q 660 247 660 322 q 576 54 660 125 q 349 -17 492 -17 q 261 -9 296 -17 q 188 13 226 -1 q 149 24 163 24 q 126 14 133 24 q 117 -11 118 4 l 82 -11 l 64 267 m 288 -246 q 336 -227 314 -243 q 358 -193 358 -211 q 351 -179 358 -183 q 329 -169 344 -175 q 296 -149 307 -160 q 285 -115 285 -137 q 302 -72 285 -89 q 347 -56 319 -56 q 401 -79 382 -56 q 419 -139 419 -103 q 384 -230 419 -192 q 292 -276 349 -268 l 288 -246 z "},"T":{"ha":800,"x_min":28,"x_max":772,"o":"m 204 40 q 297 46 271 40 q 329 67 322 51 q 336 124 336 83 l 336 871 l 261 871 q 147 856 185 871 q 93 805 110 842 q 64 692 76 768 l 28 692 l 28 917 l 772 917 l 772 692 l 736 692 q 706 805 724 768 q 652 856 689 842 q 540 871 615 871 l 464 871 l 464 124 q 472 67 464 83 q 506 46 479 51 q 596 40 532 40 l 596 0 l 204 0 l 204 40 z "},"Ť":{"ha":800,"x_min":28,"x_max":772,"o":"m 204 40 q 297 46 271 40 q 329 67 322 51 q 336 124 336 83 l 336 871 l 261 871 q 147 856 185 871 q 93 805 110 842 q 64 692 76 768 l 28 692 l 28 917 l 772 917 l 772 692 l 736 692 q 706 805 724 768 q 652 856 689 842 q 540 871 615 871 l 464 871 l 464 124 q 472 67 464 83 q 506 46 479 51 q 596 40 532 40 l 596 0 l 204 0 l 204 40 m 211 1250 l 263 1250 l 397 1121 l 526 1250 l 579 1250 l 440 1036 l 347 1036 l 211 1250 z "},"Ţ":{"ha":800,"x_min":28,"x_max":772,"o":"m 772 917 l 772 692 l 736 692 q 706 805 724 768 q 652 856 689 842 q 540 871 615 871 l 464 871 l 464 124 q 472 67 464 83 q 506 46 479 51 q 596 40 532 40 l 596 0 l 424 0 l 389 -76 q 428 -71 408 -71 q 494 -93 464 -71 q 524 -158 524 -115 q 481 -235 524 -211 q 382 -260 438 -260 q 268 -237 319 -260 l 285 -197 q 358 -215 321 -215 q 410 -203 389 -215 q 432 -165 432 -190 q 415 -129 432 -142 q 376 -117 399 -117 q 339 -126 361 -117 l 322 -118 l 376 0 l 204 0 l 204 40 q 297 46 271 40 q 329 67 322 51 q 336 124 336 83 l 336 871 l 261 871 q 147 856 185 871 q 93 805 110 842 q 64 692 76 768 l 28 692 l 28 917 l 772 917 z "},"Ț":{"ha":800,"x_min":28,"x_max":772,"o":"m 204 40 q 297 46 271 40 q 329 67 322 51 q 336 124 336 83 l 336 871 l 261 871 q 147 856 185 871 q 93 805 110 842 q 64 692 76 768 l 28 692 l 28 917 l 772 917 l 772 692 l 736 692 q 706 805 724 768 q 652 856 689 842 q 540 871 615 871 l 464 871 l 464 124 q 472 67 464 83 q 506 46 479 51 q 596 40 532 40 l 596 0 l 204 0 l 204 40 m 331 -246 q 379 -227 357 -243 q 401 -193 401 -211 q 394 -179 401 -183 q 372 -169 388 -175 q 339 -149 350 -160 q 328 -115 328 -137 q 345 -72 328 -89 q 390 -56 363 -56 q 444 -79 425 -56 q 463 -139 463 -103 q 427 -230 463 -192 q 335 -276 392 -268 l 331 -246 z "},"U":{"ha":1019,"x_min":60,"x_max":964,"o":"m 510 -17 q 250 66 333 -17 q 167 322 167 149 l 167 793 q 160 848 167 832 q 133 870 154 864 q 60 876 111 876 l 60 917 l 401 917 l 401 876 q 328 870 350 876 q 301 848 307 864 q 294 793 294 832 l 294 314 q 349 106 294 182 q 513 31 404 31 q 674 106 619 31 q 729 314 729 181 l 729 793 q 723 848 729 832 q 695 870 717 864 q 622 876 674 876 l 622 917 l 964 917 l 964 876 q 890 870 911 876 q 863 848 868 864 q 857 793 857 832 l 857 322 q 772 66 857 149 q 510 -17 686 -17 z "},"Ú":{"ha":1019,"x_min":60,"x_max":964,"o":"m 510 -17 q 250 66 333 -17 q 167 322 167 149 l 167 793 q 160 848 167 832 q 133 870 154 864 q 60 876 111 876 l 60 917 l 401 917 l 401 876 q 328 870 350 876 q 301 848 307 864 q 294 793 294 832 l 294 314 q 349 106 294 182 q 513 31 404 31 q 674 106 619 31 q 729 314 729 181 l 729 793 q 723 848 729 832 q 695 870 717 864 q 622 876 674 876 l 622 917 l 964 917 l 964 876 q 890 870 911 876 q 863 848 868 864 q 857 793 857 832 l 857 322 q 772 66 857 149 q 510 -17 686 -17 m 511 1269 q 537 1304 524 1293 q 569 1315 550 1315 q 604 1300 589 1315 q 619 1264 619 1285 q 613 1238 619 1250 q 586 1203 607 1226 l 443 1047 l 404 1047 l 511 1269 z "},"Û":{"ha":1019,"x_min":60,"x_max":964,"o":"m 510 -17 q 250 66 333 -17 q 167 322 167 149 l 167 793 q 160 848 167 832 q 133 870 154 864 q 60 876 111 876 l 60 917 l 401 917 l 401 876 q 328 870 350 876 q 301 848 307 864 q 294 793 294 832 l 294 314 q 349 106 294 182 q 513 31 404 31 q 674 106 619 31 q 729 314 729 181 l 729 793 q 723 848 729 832 q 695 870 717 864 q 622 876 674 876 l 622 917 l 964 917 l 964 876 q 890 870 911 876 q 863 848 868 864 q 857 793 857 832 l 857 322 q 772 66 857 149 q 510 -17 686 -17 m 467 1250 l 560 1250 l 696 1036 l 643 1036 l 510 1165 l 381 1036 l 328 1036 l 467 1250 z "},"Ü":{"ha":1019,"x_min":60,"x_max":964,"o":"m 510 -17 q 250 66 333 -17 q 167 322 167 149 l 167 793 q 160 848 167 832 q 133 870 154 864 q 60 876 111 876 l 60 917 l 401 917 l 401 876 q 328 870 350 876 q 301 848 307 864 q 294 793 294 832 l 294 314 q 349 106 294 182 q 513 31 404 31 q 674 106 619 31 q 729 314 729 181 l 729 793 q 723 848 729 832 q 695 870 717 864 q 622 876 674 876 l 622 917 l 964 917 l 964 876 q 890 870 911 876 q 863 848 868 864 q 857 793 857 832 l 857 322 q 772 66 857 149 q 510 -17 686 -17 m 392 1064 q 344 1083 364 1064 q 324 1131 324 1103 q 344 1178 324 1158 q 392 1199 364 1199 q 440 1178 419 1199 q 460 1131 460 1158 q 440 1083 460 1103 q 392 1064 419 1064 m 632 1064 q 584 1083 604 1064 q 564 1131 564 1103 q 584 1178 564 1158 q 632 1199 604 1199 q 680 1178 660 1199 q 700 1131 700 1158 q 680 1083 700 1103 q 632 1064 660 1064 z "},"Ù":{"ha":1019,"x_min":60,"x_max":964,"o":"m 510 -17 q 250 66 333 -17 q 167 322 167 149 l 167 793 q 160 848 167 832 q 133 870 154 864 q 60 876 111 876 l 60 917 l 401 917 l 401 876 q 328 870 350 876 q 301 848 307 864 q 294 793 294 832 l 294 314 q 349 106 294 182 q 513 31 404 31 q 674 106 619 31 q 729 314 729 181 l 729 793 q 723 848 729 832 q 695 870 717 864 q 622 876 674 876 l 622 917 l 964 917 l 964 876 q 890 870 911 876 q 863 848 868 864 q 857 793 857 832 l 857 322 q 772 66 857 149 q 510 -17 686 -17 m 438 1203 q 410 1238 417 1226 q 404 1264 404 1250 q 419 1300 404 1285 q 454 1315 435 1315 q 487 1304 474 1315 q 513 1269 500 1293 l 619 1047 l 581 1047 l 438 1203 z "},"Ū":{"ha":1019,"x_min":60,"x_max":964,"o":"m 510 -17 q 250 66 333 -17 q 167 322 167 149 l 167 793 q 160 848 167 832 q 133 870 154 864 q 60 876 111 876 l 60 917 l 401 917 l 401 876 q 328 870 350 876 q 301 848 307 864 q 294 793 294 832 l 294 314 q 349 106 294 182 q 513 31 404 31 q 674 106 619 31 q 729 314 729 181 l 729 793 q 723 848 729 832 q 695 870 717 864 q 622 876 674 876 l 622 917 l 964 917 l 964 876 q 890 870 911 876 q 863 848 868 864 q 857 793 857 832 l 857 322 q 772 66 857 149 q 510 -17 686 -17 m 340 1133 l 685 1133 l 685 1061 l 340 1061 l 340 1133 z "},"Ų":{"ha":1019,"x_min":60,"x_max":964,"o":"m 964 917 l 964 876 q 890 870 911 876 q 863 848 868 864 q 857 793 857 832 l 857 322 q 807 110 857 189 q 656 1 757 31 q 572 -77 597 -44 q 547 -149 547 -110 q 565 -188 547 -172 q 606 -204 582 -204 q 671 -164 649 -204 l 692 -179 q 640 -242 672 -221 q 567 -262 608 -262 q 490 -239 519 -262 q 461 -168 461 -215 q 588 -12 461 -94 q 510 -17 550 -17 q 250 66 333 -17 q 167 322 167 149 l 167 793 q 160 848 167 832 q 133 870 154 864 q 60 876 111 876 l 60 917 l 401 917 l 401 876 q 328 870 350 876 q 301 848 307 864 q 294 793 294 832 l 294 314 q 349 106 294 182 q 513 31 404 31 q 674 106 619 31 q 729 314 729 181 l 729 793 q 723 848 729 832 q 695 870 717 864 q 622 876 674 876 l 622 917 l 964 917 z "},"Ů":{"ha":1019,"x_min":60,"x_max":964,"o":"m 510 -17 q 250 66 333 -17 q 167 322 167 149 l 167 793 q 160 848 167 832 q 133 870 154 864 q 60 876 111 876 l 60 917 l 401 917 l 401 876 q 328 870 350 876 q 301 848 307 864 q 294 793 294 832 l 294 314 q 349 106 294 182 q 513 31 404 31 q 674 106 619 31 q 729 314 729 181 l 729 793 q 723 848 729 832 q 695 870 717 864 q 622 876 674 876 l 622 917 l 964 917 l 964 876 q 890 870 911 876 q 863 848 868 864 q 857 793 857 832 l 857 322 q 772 66 857 149 q 510 -17 686 -17 m 513 1000 q 425 1036 461 1000 q 389 1124 389 1072 q 425 1210 389 1175 q 513 1246 461 1246 q 599 1210 564 1246 q 635 1124 635 1175 q 599 1036 635 1072 q 513 1000 564 1000 m 513 1049 q 565 1071 543 1049 q 588 1124 588 1093 q 565 1178 588 1156 q 513 1200 543 1200 q 458 1178 481 1200 q 436 1124 436 1156 q 458 1071 436 1093 q 513 1049 481 1049 z "},"V":{"ha":903,"x_min":13,"x_max":889,"o":"m 125 800 q 101 849 113 833 q 69 871 89 865 q 13 876 50 876 l 13 917 l 346 917 l 346 876 l 278 876 q 244 853 244 876 q 250 828 244 847 l 483 157 l 488 156 l 718 825 q 722 851 722 840 q 715 870 722 864 q 689 876 707 876 l 624 876 l 624 917 l 889 917 l 889 876 q 821 863 842 876 q 782 804 800 849 l 485 0 l 406 0 l 125 800 z "},"W":{"ha":1267,"x_min":19,"x_max":1254,"o":"m 126 796 q 106 849 117 832 q 77 871 96 865 q 19 876 58 876 l 19 917 l 332 917 l 332 876 l 274 876 q 249 872 257 876 q 240 854 240 867 q 246 825 240 850 l 421 171 l 425 171 l 618 894 l 694 894 l 906 169 l 911 169 l 1074 821 q 1078 850 1078 838 q 1071 870 1078 864 q 1046 876 1064 876 l 982 876 l 982 917 l 1254 917 l 1254 876 q 1191 868 1213 876 q 1157 840 1169 860 q 1131 778 1144 819 l 914 0 l 832 0 l 624 708 l 621 708 l 426 0 l 342 0 l 126 796 z "},"X":{"ha":914,"x_min":22,"x_max":893,"o":"m 747 117 q 784 68 768 83 q 824 47 800 53 q 893 40 849 40 l 893 0 l 524 0 l 524 40 l 593 40 q 624 64 624 40 q 615 89 624 76 l 421 406 l 415 406 l 225 88 q 219 65 219 76 q 226 47 219 54 q 246 40 233 40 l 325 40 l 325 0 l 22 0 l 22 40 q 106 53 81 40 q 163 113 132 67 l 389 454 l 176 797 q 138 848 154 832 q 101 870 122 864 q 39 876 79 876 l 39 917 l 372 917 l 372 876 l 311 876 q 288 858 288 876 q 297 831 288 846 l 467 557 l 471 557 l 647 833 q 658 861 658 851 q 633 876 658 876 l 571 876 l 571 917 l 847 917 l 847 876 q 763 863 790 876 q 700 800 736 849 l 497 513 l 747 117 z "},"Y":{"ha":860,"x_min":29,"x_max":839,"o":"m 839 917 l 839 876 q 778 870 799 876 q 743 848 757 864 q 710 796 729 832 l 501 375 l 501 124 q 508 69 501 85 q 541 47 515 53 q 629 40 567 40 l 629 0 l 250 0 l 250 40 q 337 47 311 40 q 369 69 363 53 q 376 124 376 85 l 376 358 l 144 808 q 101 863 124 850 q 29 876 79 876 l 29 917 l 358 917 l 358 876 l 290 876 q 267 857 267 876 q 274 835 267 849 l 469 438 l 472 438 l 658 831 q 665 856 665 847 q 640 876 665 876 l 569 876 l 569 917 l 839 917 z "},"Ý":{"ha":860,"x_min":29,"x_max":839,"o":"m 839 917 l 839 876 q 778 870 799 876 q 743 848 757 864 q 710 796 729 832 l 501 375 l 501 124 q 508 69 501 85 q 541 47 515 53 q 629 40 567 40 l 629 0 l 250 0 l 250 40 q 337 47 311 40 q 369 69 363 53 q 376 124 376 85 l 376 358 l 144 808 q 101 863 124 850 q 29 876 79 876 l 29 917 l 358 917 l 358 876 l 290 876 q 267 857 267 876 q 274 835 267 849 l 469 438 l 472 438 l 658 831 q 665 856 665 847 q 640 876 665 876 l 569 876 l 569 917 l 839 917 m 426 1269 q 452 1304 439 1293 q 485 1315 465 1315 q 519 1300 504 1315 q 535 1264 535 1285 q 528 1238 535 1250 q 501 1203 522 1226 l 358 1047 l 319 1047 l 426 1269 z "},"Ŷ":{"ha":860,"x_min":29,"x_max":839,"o":"m 839 917 l 839 876 q 778 870 799 876 q 743 848 757 864 q 710 796 729 832 l 501 375 l 501 124 q 508 69 501 85 q 541 47 515 53 q 629 40 567 40 l 629 0 l 250 0 l 250 40 q 337 47 311 40 q 369 69 363 53 q 376 124 376 85 l 376 358 l 144 808 q 101 863 124 850 q 29 876 79 876 l 29 917 l 358 917 l 358 876 l 290 876 q 267 857 267 876 q 274 835 267 849 l 469 438 l 472 438 l 658 831 q 665 856 665 847 q 640 876 665 876 l 569 876 l 569 917 l 839 917 m 382 1250 l 475 1250 l 611 1036 l 558 1036 l 425 1165 l 296 1036 l 243 1036 l 382 1250 z "},"Ÿ":{"ha":860,"x_min":29,"x_max":839,"o":"m 839 917 l 839 876 q 778 870 799 876 q 743 848 757 864 q 710 796 729 832 l 501 375 l 501 124 q 508 69 501 85 q 541 47 515 53 q 629 40 567 40 l 629 0 l 250 0 l 250 40 q 337 47 311 40 q 369 69 363 53 q 376 124 376 85 l 376 358 l 144 808 q 101 863 124 850 q 29 876 79 876 l 29 917 l 358 917 l 358 876 l 290 876 q 267 857 267 876 q 274 835 267 849 l 469 438 l 472 438 l 658 831 q 665 856 665 847 q 640 876 665 876 l 569 876 l 569 917 l 839 917 m 307 1064 q 259 1083 279 1064 q 239 1131 239 1103 q 259 1178 239 1158 q 307 1199 279 1199 q 355 1178 335 1199 q 375 1131 375 1158 q 355 1083 375 1103 q 307 1064 335 1064 m 547 1064 q 499 1083 519 1064 q 479 1131 479 1103 q 499 1178 479 1158 q 547 1199 519 1199 q 595 1178 575 1199 q 615 1131 615 1158 q 595 1083 615 1103 q 547 1064 575 1064 z "},"Ỳ":{"ha":860,"x_min":29,"x_max":839,"o":"m 839 917 l 839 876 q 778 870 799 876 q 743 848 757 864 q 710 796 729 832 l 501 375 l 501 124 q 508 69 501 85 q 541 47 515 53 q 629 40 567 40 l 629 0 l 250 0 l 250 40 q 337 47 311 40 q 369 69 363 53 q 376 124 376 85 l 376 358 l 144 808 q 101 863 124 850 q 29 876 79 876 l 29 917 l 358 917 l 358 876 l 290 876 q 267 857 267 876 q 274 835 267 849 l 469 438 l 472 438 l 658 831 q 665 856 665 847 q 640 876 665 876 l 569 876 l 569 917 l 839 917 m 353 1203 q 326 1238 332 1226 q 319 1264 319 1250 q 335 1300 319 1285 q 369 1315 350 1315 q 402 1304 389 1315 q 428 1269 415 1293 l 535 1047 l 496 1047 l 353 1203 z "},"Z":{"ha":796,"x_min":33,"x_max":764,"o":"m 33 40 l 607 871 l 378 871 q 242 856 288 871 q 174 803 196 842 q 143 683 153 764 l 106 683 l 106 917 l 754 917 l 754 878 l 178 46 l 436 46 q 597 62 542 46 q 681 119 653 78 q 725 244 710 161 l 764 244 l 749 0 l 33 0 l 33 40 z "},"Ź":{"ha":796,"x_min":33,"x_max":764,"o":"m 33 40 l 607 871 l 378 871 q 242 856 288 871 q 174 803 196 842 q 143 683 153 764 l 106 683 l 106 917 l 754 917 l 754 878 l 178 46 l 436 46 q 597 62 542 46 q 681 119 653 78 q 725 244 710 161 l 764 244 l 749 0 l 33 0 l 33 40 m 401 1269 q 427 1304 414 1293 q 460 1315 440 1315 q 494 1300 479 1315 q 510 1264 510 1285 q 503 1238 510 1250 q 476 1203 497 1226 l 333 1047 l 294 1047 l 401 1269 z "},"Ž":{"ha":796,"x_min":33,"x_max":764,"o":"m 33 40 l 607 871 l 378 871 q 242 856 288 871 q 174 803 196 842 q 143 683 153 764 l 106 683 l 106 917 l 754 917 l 754 878 l 178 46 l 436 46 q 597 62 542 46 q 681 119 653 78 q 725 244 710 161 l 764 244 l 749 0 l 33 0 l 33 40 m 218 1250 l 269 1250 l 404 1121 l 533 1250 l 586 1250 l 447 1036 l 354 1036 l 218 1250 z "},"Ż":{"ha":796,"x_min":33,"x_max":764,"o":"m 33 40 l 607 871 l 378 871 q 242 856 288 871 q 174 803 196 842 q 143 683 153 764 l 106 683 l 106 917 l 754 917 l 754 878 l 178 46 l 436 46 q 597 62 542 46 q 681 119 653 78 q 725 244 710 161 l 764 244 l 749 0 l 33 0 l 33 40 m 401 1065 q 353 1085 374 1065 q 333 1133 333 1106 q 353 1181 333 1161 q 401 1201 374 1201 q 450 1181 429 1201 q 471 1133 471 1161 q 450 1085 471 1106 q 401 1065 429 1065 z "},"a":{"ha":681,"x_min":69,"x_max":665,"o":"m 665 22 q 611 -4 639 6 q 539 -14 583 -14 q 476 3 497 -14 q 450 75 454 19 q 350 8 399 31 q 242 -15 301 -15 q 117 20 165 -15 q 69 124 69 56 q 168 293 69 221 q 450 394 267 365 l 450 475 q 422 581 450 546 q 324 615 393 615 q 236 597 275 615 q 197 561 197 579 q 210 541 197 551 q 231 520 224 531 q 239 489 239 510 q 222 442 239 460 q 175 425 206 425 q 124 444 143 425 q 106 499 106 464 q 134 579 106 542 q 220 640 163 617 q 361 664 278 664 q 517 621 467 664 q 567 471 567 578 l 567 142 q 578 67 567 88 q 617 47 590 47 q 656 57 633 47 l 665 22 m 194 157 q 222 84 194 108 q 303 60 250 60 q 377 76 342 60 q 450 121 413 93 l 450 350 q 258 276 321 322 q 194 157 194 229 z "},"á":{"ha":681,"x_min":69,"x_max":665,"o":"m 665 22 q 611 -4 639 6 q 539 -14 583 -14 q 476 3 497 -14 q 450 75 454 19 q 350 8 399 31 q 242 -15 301 -15 q 117 20 165 -15 q 69 124 69 56 q 168 293 69 221 q 450 394 267 365 l 450 475 q 422 581 450 546 q 324 615 393 615 q 236 597 275 615 q 197 561 197 579 q 210 541 197 551 q 231 520 224 531 q 239 489 239 510 q 222 442 239 460 q 175 425 206 425 q 124 444 143 425 q 106 499 106 464 q 134 579 106 542 q 220 640 163 617 q 361 664 278 664 q 517 621 467 664 q 567 471 567 578 l 567 142 q 578 67 567 88 q 617 47 590 47 q 656 57 633 47 l 665 22 m 194 157 q 222 84 194 108 q 303 60 250 60 q 377 76 342 60 q 450 121 413 93 l 450 350 q 258 276 321 322 q 194 157 194 229 m 347 1003 q 373 1038 360 1026 q 406 1049 386 1049 q 440 1033 425 1049 q 456 997 456 1018 q 449 972 456 983 q 422 936 443 960 l 279 781 l 240 781 l 347 1003 z "},"ă":{"ha":681,"x_min":69,"x_max":665,"o":"m 665 22 q 611 -4 639 6 q 539 -14 583 -14 q 476 3 497 -14 q 450 75 454 19 q 350 8 399 31 q 242 -15 301 -15 q 117 20 165 -15 q 69 124 69 56 q 168 293 69 221 q 450 394 267 365 l 450 475 q 422 581 450 546 q 324 615 393 615 q 236 597 275 615 q 197 561 197 579 q 210 541 197 551 q 231 520 224 531 q 239 489 239 510 q 222 442 239 460 q 175 425 206 425 q 124 444 143 425 q 106 499 106 464 q 134 579 106 542 q 220 640 163 617 q 361 664 278 664 q 517 621 467 664 q 567 471 567 578 l 567 142 q 578 67 567 88 q 617 47 590 47 q 656 57 633 47 l 665 22 m 194 157 q 222 84 194 108 q 303 60 250 60 q 377 76 342 60 q 450 121 413 93 l 450 350 q 258 276 321 322 q 194 157 194 229 m 347 769 q 225 819 265 769 q 182 958 185 869 l 229 958 q 267 880 235 907 q 347 853 300 853 q 428 880 394 853 q 468 958 463 907 l 514 958 q 471 819 511 868 q 347 769 431 769 z "},"â":{"ha":681,"x_min":69,"x_max":665,"o":"m 665 22 q 611 -4 639 6 q 539 -14 583 -14 q 476 3 497 -14 q 450 75 454 19 q 350 8 399 31 q 242 -15 301 -15 q 117 20 165 -15 q 69 124 69 56 q 168 293 69 221 q 450 394 267 365 l 450 475 q 422 581 450 546 q 324 615 393 615 q 236 597 275 615 q 197 561 197 579 q 210 541 197 551 q 231 520 224 531 q 239 489 239 510 q 222 442 239 460 q 175 425 206 425 q 124 444 143 425 q 106 499 106 464 q 134 579 106 542 q 220 640 163 617 q 361 664 278 664 q 517 621 467 664 q 567 471 567 578 l 567 142 q 578 67 567 88 q 617 47 590 47 q 656 57 633 47 l 665 22 m 194 157 q 222 84 194 108 q 303 60 250 60 q 377 76 342 60 q 450 121 413 93 l 450 350 q 258 276 321 322 q 194 157 194 229 m 303 983 l 396 983 l 532 769 l 479 769 l 346 899 l 217 769 l 164 769 l 303 983 z "},"ä":{"ha":681,"x_min":69,"x_max":665,"o":"m 665 22 q 611 -4 639 6 q 539 -14 583 -14 q 476 3 497 -14 q 450 75 454 19 q 350 8 399 31 q 242 -15 301 -15 q 117 20 165 -15 q 69 124 69 56 q 168 293 69 221 q 450 394 267 365 l 450 475 q 422 581 450 546 q 324 615 393 615 q 236 597 275 615 q 197 561 197 579 q 210 541 197 551 q 231 520 224 531 q 239 489 239 510 q 222 442 239 460 q 175 425 206 425 q 124 444 143 425 q 106 499 106 464 q 134 579 106 542 q 220 640 163 617 q 361 664 278 664 q 517 621 467 664 q 567 471 567 578 l 567 142 q 578 67 567 88 q 617 47 590 47 q 656 57 633 47 l 665 22 m 194 157 q 222 84 194 108 q 303 60 250 60 q 377 76 342 60 q 450 121 413 93 l 450 350 q 258 276 321 322 q 194 157 194 229 m 228 797 q 180 817 200 797 q 160 864 160 836 q 180 912 160 892 q 228 932 200 932 q 276 912 256 932 q 296 864 296 892 q 276 817 296 836 q 228 797 256 797 m 468 797 q 420 817 440 797 q 400 864 400 836 q 420 912 400 892 q 468 932 440 932 q 516 912 496 932 q 536 864 536 892 q 516 817 536 836 q 468 797 496 797 z "},"à":{"ha":681,"x_min":69,"x_max":665,"o":"m 665 22 q 611 -4 639 6 q 539 -14 583 -14 q 476 3 497 -14 q 450 75 454 19 q 350 8 399 31 q 242 -15 301 -15 q 117 20 165 -15 q 69 124 69 56 q 168 293 69 221 q 450 394 267 365 l 450 475 q 422 581 450 546 q 324 615 393 615 q 236 597 275 615 q 197 561 197 579 q 210 541 197 551 q 231 520 224 531 q 239 489 239 510 q 222 442 239 460 q 175 425 206 425 q 124 444 143 425 q 106 499 106 464 q 134 579 106 542 q 220 640 163 617 q 361 664 278 664 q 517 621 467 664 q 567 471 567 578 l 567 142 q 578 67 567 88 q 617 47 590 47 q 656 57 633 47 l 665 22 m 194 157 q 222 84 194 108 q 303 60 250 60 q 377 76 342 60 q 450 121 413 93 l 450 350 q 258 276 321 322 q 194 157 194 229 m 274 936 q 247 972 253 960 q 240 997 240 983 q 256 1033 240 1018 q 290 1049 271 1049 q 323 1038 310 1049 q 349 1003 336 1026 l 456 781 l 417 781 l 274 936 z "},"ā":{"ha":681,"x_min":69,"x_max":665,"o":"m 665 22 q 611 -4 639 6 q 539 -14 583 -14 q 476 3 497 -14 q 450 75 454 19 q 350 8 399 31 q 242 -15 301 -15 q 117 20 165 -15 q 69 124 69 56 q 168 293 69 221 q 450 394 267 365 l 450 475 q 422 581 450 546 q 324 615 393 615 q 236 597 275 615 q 197 561 197 579 q 210 541 197 551 q 231 520 224 531 q 239 489 239 510 q 222 442 239 460 q 175 425 206 425 q 124 444 143 425 q 106 499 106 464 q 134 579 106 542 q 220 640 163 617 q 361 664 278 664 q 517 621 467 664 q 567 471 567 578 l 567 142 q 578 67 567 88 q 617 47 590 47 q 656 57 633 47 l 665 22 m 194 157 q 222 84 194 108 q 303 60 250 60 q 377 76 342 60 q 450 121 413 93 l 450 350 q 258 276 321 322 q 194 157 194 229 m 176 867 l 521 867 l 521 794 l 176 794 l 176 867 z "},"ą":{"ha":681,"x_min":69,"x_max":665,"o":"m 576 -204 q 642 -164 619 -204 l 663 -179 q 611 -242 643 -221 q 538 -262 579 -262 q 461 -239 490 -262 q 432 -168 432 -215 q 556 -14 432 -96 l 539 -14 q 476 3 497 -14 q 450 75 454 19 q 350 8 399 31 q 242 -15 301 -15 q 117 20 165 -15 q 69 124 69 56 q 168 293 69 221 q 450 394 267 365 l 450 475 q 422 581 450 546 q 324 615 393 615 q 236 597 275 615 q 197 561 197 579 q 210 541 197 551 q 231 520 224 531 q 239 489 239 510 q 222 442 239 460 q 175 425 206 425 q 124 444 143 425 q 106 499 106 464 q 134 579 106 542 q 220 640 163 617 q 361 664 278 664 q 517 621 467 664 q 567 471 567 578 l 567 142 q 578 67 567 88 q 617 47 590 47 q 656 57 633 47 l 665 22 q 625 1 636 6 l 626 1 q 543 -77 568 -44 q 518 -149 518 -110 q 535 -188 518 -172 q 576 -204 553 -204 m 194 157 q 222 84 194 108 q 303 60 250 60 q 377 76 342 60 q 450 121 413 93 l 450 350 q 258 276 321 322 q 194 157 194 229 z "},"å":{"ha":681,"x_min":69,"x_max":665,"o":"m 665 22 q 611 -4 639 6 q 539 -14 583 -14 q 476 3 497 -14 q 450 75 454 19 q 350 8 399 31 q 242 -15 301 -15 q 117 20 165 -15 q 69 124 69 56 q 168 293 69 221 q 450 394 267 365 l 450 475 q 422 581 450 546 q 324 615 393 615 q 236 597 275 615 q 197 561 197 579 q 210 541 197 551 q 231 520 224 531 q 239 489 239 510 q 222 442 239 460 q 175 425 206 425 q 124 444 143 425 q 106 499 106 464 q 134 579 106 542 q 220 640 163 617 q 361 664 278 664 q 517 621 467 664 q 567 471 567 578 l 567 142 q 578 67 567 88 q 617 47 590 47 q 656 57 633 47 l 665 22 m 194 157 q 222 84 194 108 q 303 60 250 60 q 377 76 342 60 q 450 121 413 93 l 450 350 q 258 276 321 322 q 194 157 194 229 m 349 733 q 261 769 297 733 q 225 857 225 806 q 261 944 225 908 q 349 979 297 979 q 435 944 400 979 q 471 857 471 908 q 435 769 471 806 q 349 733 400 733 m 349 782 q 401 804 379 782 q 424 857 424 826 q 401 911 424 889 q 349 933 379 933 q 294 911 317 933 q 272 857 272 889 q 294 804 272 826 q 349 782 317 782 z "},"ã":{"ha":681,"x_min":69,"x_max":665,"o":"m 665 22 q 611 -4 639 6 q 539 -14 583 -14 q 476 3 497 -14 q 450 75 454 19 q 350 8 399 31 q 242 -15 301 -15 q 117 20 165 -15 q 69 124 69 56 q 168 293 69 221 q 450 394 267 365 l 450 475 q 422 581 450 546 q 324 615 393 615 q 236 597 275 615 q 197 561 197 579 q 210 541 197 551 q 231 520 224 531 q 239 489 239 510 q 222 442 239 460 q 175 425 206 425 q 124 444 143 425 q 106 499 106 464 q 134 579 106 542 q 220 640 163 617 q 361 664 278 664 q 517 621 467 664 q 567 471 567 578 l 567 142 q 578 67 567 88 q 617 47 590 47 q 656 57 633 47 l 665 22 m 194 157 q 222 84 194 108 q 303 60 250 60 q 377 76 342 60 q 450 121 413 93 l 450 350 q 258 276 321 322 q 194 157 194 229 m 425 779 q 383 786 403 779 q 329 808 363 793 q 246 835 276 835 q 203 819 219 835 q 185 782 188 804 l 153 782 q 188 878 156 840 q 272 915 219 915 q 319 908 296 915 q 371 888 342 901 q 451 864 424 864 q 494 879 479 864 q 511 914 510 894 l 544 914 q 508 819 542 860 q 425 779 475 779 z "},"æ":{"ha":1057,"x_min":69,"x_max":993,"o":"m 993 328 l 574 328 q 619 117 576 194 q 763 40 663 40 q 951 189 893 40 l 988 172 q 898 37 958 89 q 724 -15 838 -15 q 493 97 564 -15 q 371 13 428 42 q 243 -15 314 -15 q 117 20 165 -15 q 69 122 69 56 q 165 280 69 213 q 442 376 260 347 l 442 475 q 413 580 442 544 q 318 615 385 615 q 233 597 268 615 q 197 561 197 579 q 210 544 197 554 q 231 523 222 535 q 239 489 239 511 q 222 442 239 460 q 175 425 206 425 q 124 444 142 425 q 106 500 106 464 q 133 580 106 543 q 217 640 160 617 q 356 664 274 664 q 465 647 421 664 q 532 592 508 631 q 733 665 606 665 q 937 575 881 665 q 993 338 993 485 l 993 328 m 864 372 q 833 563 864 503 q 729 622 801 622 q 574 372 582 622 l 864 372 m 303 60 q 392 79 353 60 q 474 132 432 99 q 440 317 440 207 l 440 332 q 254 264 314 307 q 194 154 194 221 q 222 84 194 108 q 303 60 250 60 z "},"b":{"ha":782,"x_min":47,"x_max":715,"o":"m 464 665 q 651 583 586 665 q 715 339 715 500 q 638 70 715 157 q 424 -17 560 -17 q 235 49 319 -17 l 224 49 l 182 0 l 139 0 l 139 826 q 130 878 139 867 q 90 890 121 890 l 47 890 l 47 932 l 218 961 l 257 961 l 257 597 l 260 597 q 464 665 346 665 m 407 28 q 540 98 494 28 q 585 319 585 168 q 415 608 585 608 q 331 589 369 608 q 257 538 293 569 l 257 97 q 407 28 324 28 z "},"c":{"ha":671,"x_min":68,"x_max":621,"o":"m 369 -15 q 146 74 224 -15 q 68 319 68 164 q 147 570 68 475 q 381 665 225 665 q 547 625 482 665 q 613 514 613 585 q 594 457 613 478 q 542 436 576 436 q 489 455 507 436 q 471 504 471 474 q 476 532 471 521 q 490 556 481 543 q 500 579 500 569 q 472 610 500 597 q 399 622 443 622 q 251 557 304 622 q 199 335 199 492 q 399 40 199 40 q 588 164 532 40 l 621 144 q 544 36 603 88 q 369 -15 486 -15 z "},"ć":{"ha":671,"x_min":68,"x_max":621,"o":"m 369 -15 q 146 74 224 -15 q 68 319 68 164 q 147 570 68 475 q 381 665 225 665 q 547 625 482 665 q 613 514 613 585 q 594 457 613 478 q 542 436 576 436 q 489 455 507 436 q 471 504 471 474 q 476 532 471 521 q 490 556 481 543 q 500 579 500 569 q 472 610 500 597 q 399 622 443 622 q 251 557 304 622 q 199 335 199 492 q 399 40 199 40 q 588 164 532 40 l 621 144 q 544 36 603 88 q 369 -15 486 -15 m 325 1003 q 351 1038 338 1026 q 383 1049 364 1049 q 418 1033 403 1049 q 433 997 433 1018 q 427 972 433 983 q 400 936 421 960 l 257 781 l 218 781 l 325 1003 z "},"č":{"ha":671,"x_min":68,"x_max":621,"o":"m 369 -15 q 146 74 224 -15 q 68 319 68 164 q 147 570 68 475 q 381 665 225 665 q 547 625 482 665 q 613 514 613 585 q 594 457 613 478 q 542 436 576 436 q 489 455 507 436 q 471 504 471 474 q 476 532 471 521 q 490 556 481 543 q 500 579 500 569 q 472 610 500 597 q 399 622 443 622 q 251 557 304 622 q 199 335 199 492 q 399 40 199 40 q 588 164 532 40 l 621 144 q 544 36 603 88 q 369 -15 486 -15 m 142 983 l 193 983 l 328 854 l 457 983 l 510 983 l 371 769 l 278 769 l 142 983 z "},"ç":{"ha":671,"x_min":68,"x_max":621,"o":"m 347 -15 l 319 -76 q 358 -71 339 -71 q 424 -93 394 -71 q 454 -158 454 -115 q 411 -235 454 -211 q 313 -260 368 -260 q 199 -237 250 -260 l 215 -197 q 289 -215 251 -215 q 341 -203 319 -215 q 363 -165 363 -190 q 346 -129 363 -142 q 307 -117 329 -117 q 269 -126 292 -117 l 253 -118 l 301 -10 q 128 98 189 11 q 68 319 68 185 q 147 570 68 475 q 381 665 225 665 q 547 625 482 665 q 613 514 613 585 q 594 457 613 478 q 542 436 576 436 q 489 455 507 436 q 471 504 471 474 q 476 532 471 521 q 490 556 481 543 q 500 579 500 569 q 472 610 500 597 q 399 622 443 622 q 251 557 304 622 q 199 335 199 492 q 399 40 199 40 q 588 164 532 40 l 621 144 q 544 36 603 88 q 369 -15 486 -15 l 347 -15 z "},"d":{"ha":763,"x_min":67,"x_max":735,"o":"m 735 40 l 735 0 l 540 0 l 531 67 q 436 7 486 31 q 318 -17 386 -17 q 131 68 196 -17 q 67 314 67 153 q 144 579 67 493 q 361 665 222 665 q 522 611 451 665 l 522 617 l 526 617 l 526 828 q 518 878 526 865 q 485 890 510 890 l 435 890 l 435 931 l 606 961 l 643 961 l 643 106 q 655 53 643 67 q 699 40 667 40 l 735 40 m 197 331 q 367 42 197 42 q 449 63 413 42 q 526 121 485 83 l 526 551 q 376 622 458 622 q 242 553 288 622 q 197 331 197 483 z "},"ð":{"ha":746,"x_min":67,"x_max":672,"o":"m 536 724 q 672 336 672 558 q 596 74 672 164 q 368 -15 519 -15 q 142 72 218 -15 q 67 324 67 160 q 143 577 67 489 q 368 665 219 665 q 453 658 407 665 l 453 661 q 344 797 407 735 l 150 713 l 124 751 l 308 832 q 157 951 256 881 l 199 983 q 385 865 294 932 l 539 932 l 565 893 l 426 832 q 536 724 493 776 m 372 29 q 502 106 463 29 q 542 335 542 182 q 504 551 542 481 q 375 622 467 622 q 239 549 281 622 q 197 329 197 476 q 239 105 197 181 q 372 29 281 29 z "},"ď":{"ha":763,"x_min":67,"x_max":824,"o":"m 735 40 l 735 0 l 540 0 l 531 67 q 436 7 486 31 q 318 -17 386 -17 q 131 68 196 -17 q 67 314 67 153 q 144 579 67 493 q 361 665 222 665 q 522 611 451 665 l 522 617 l 526 617 l 526 828 q 518 878 526 865 q 485 890 510 890 l 435 890 l 435 931 l 606 961 l 643 961 l 643 106 q 655 53 643 67 q 699 40 667 40 l 735 40 m 197 331 q 367 42 197 42 q 449 63 413 42 q 526 121 485 83 l 526 551 q 376 622 458 622 q 242 553 288 622 q 197 331 197 483 m 692 743 q 740 762 718 746 q 763 796 763 778 q 756 810 763 806 q 733 819 749 814 q 700 840 711 829 q 689 874 689 851 q 706 917 689 900 q 751 933 724 933 q 805 910 786 933 q 824 850 824 886 q 788 759 824 797 q 696 713 753 721 l 692 743 z "},"đ":{"ha":769,"x_min":67,"x_max":740,"o":"m 643 764 l 643 106 q 655 53 643 67 q 699 40 667 40 l 735 40 l 735 0 l 540 0 l 531 67 q 436 7 486 31 q 318 -17 386 -17 q 131 68 196 -17 q 67 314 67 153 q 144 579 67 493 q 361 665 222 665 q 522 611 451 665 l 522 617 l 526 617 l 526 764 l 339 764 l 339 808 l 526 808 l 526 828 q 518 878 526 865 q 485 890 510 890 l 435 890 l 435 931 l 606 961 l 643 961 l 643 808 l 740 808 l 740 764 l 643 764 m 197 331 q 367 42 197 42 q 449 63 413 42 q 526 121 485 83 l 526 551 q 376 622 458 622 q 242 553 288 622 q 197 331 197 483 z "},"e":{"ha":703,"x_min":68,"x_max":639,"o":"m 639 319 l 197 319 q 244 115 200 190 q 399 40 288 40 q 526 82 479 40 q 596 189 574 124 l 635 172 q 544 36 606 88 q 363 -15 483 -15 q 141 71 214 -15 q 68 318 68 157 q 143 574 68 483 q 364 665 218 665 q 639 332 639 665 l 639 319 m 510 364 q 478 559 510 496 q 365 622 446 622 q 243 558 283 622 q 197 364 203 493 l 510 364 z "},"é":{"ha":703,"x_min":68,"x_max":639,"o":"m 639 319 l 197 319 q 244 115 200 190 q 399 40 288 40 q 526 82 479 40 q 596 189 574 124 l 635 172 q 544 36 606 88 q 363 -15 483 -15 q 141 71 214 -15 q 68 318 68 157 q 143 574 68 483 q 364 665 218 665 q 639 332 639 665 l 639 319 m 510 364 q 478 559 510 496 q 365 622 446 622 q 243 558 283 622 q 197 364 203 493 l 510 364 m 350 1003 q 376 1038 363 1026 q 408 1049 389 1049 q 443 1033 428 1049 q 458 997 458 1018 q 452 972 458 983 q 425 936 446 960 l 282 781 l 243 781 l 350 1003 z "},"ě":{"ha":703,"x_min":68,"x_max":639,"o":"m 639 319 l 197 319 q 244 115 200 190 q 399 40 288 40 q 526 82 479 40 q 596 189 574 124 l 635 172 q 544 36 606 88 q 363 -15 483 -15 q 141 71 214 -15 q 68 318 68 157 q 143 574 68 483 q 364 665 218 665 q 639 332 639 665 l 639 319 m 510 364 q 478 559 510 496 q 365 622 446 622 q 243 558 283 622 q 197 364 203 493 l 510 364 m 167 983 l 218 983 l 353 854 l 482 983 l 535 983 l 396 769 l 303 769 l 167 983 z "},"ê":{"ha":703,"x_min":68,"x_max":639,"o":"m 639 319 l 197 319 q 244 115 200 190 q 399 40 288 40 q 526 82 479 40 q 596 189 574 124 l 635 172 q 544 36 606 88 q 363 -15 483 -15 q 141 71 214 -15 q 68 318 68 157 q 143 574 68 483 q 364 665 218 665 q 639 332 639 665 l 639 319 m 510 364 q 478 559 510 496 q 365 622 446 622 q 243 558 283 622 q 197 364 203 493 l 510 364 m 306 983 l 399 983 l 535 769 l 482 769 l 349 899 l 219 769 l 167 769 l 306 983 z "},"ë":{"ha":703,"x_min":68,"x_max":639,"o":"m 639 319 l 197 319 q 244 115 200 190 q 399 40 288 40 q 526 82 479 40 q 596 189 574 124 l 635 172 q 544 36 606 88 q 363 -15 483 -15 q 141 71 214 -15 q 68 318 68 157 q 143 574 68 483 q 364 665 218 665 q 639 332 639 665 l 639 319 m 510 364 q 478 559 510 496 q 365 622 446 622 q 243 558 283 622 q 197 364 203 493 l 510 364 m 231 797 q 183 817 203 797 q 163 864 163 836 q 183 912 163 892 q 231 932 203 932 q 278 912 258 932 q 299 864 299 892 q 278 817 299 836 q 231 797 258 797 m 471 797 q 423 817 443 797 q 403 864 403 836 q 423 912 403 892 q 471 932 443 932 q 519 912 499 932 q 539 864 539 892 q 519 817 539 836 q 471 797 499 797 z "},"ė":{"ha":703,"x_min":68,"x_max":639,"o":"m 639 319 l 197 319 q 244 115 200 190 q 399 40 288 40 q 526 82 479 40 q 596 189 574 124 l 635 172 q 544 36 606 88 q 363 -15 483 -15 q 141 71 214 -15 q 68 318 68 157 q 143 574 68 483 q 364 665 218 665 q 639 332 639 665 l 639 319 m 510 364 q 478 559 510 496 q 365 622 446 622 q 243 558 283 622 q 197 364 203 493 l 510 364 m 350 799 q 302 819 322 799 q 282 867 282 839 q 302 915 282 894 q 350 935 322 935 q 399 915 378 935 q 419 867 419 894 q 399 819 419 839 q 350 799 378 799 z "},"è":{"ha":703,"x_min":68,"x_max":639,"o":"m 639 319 l 197 319 q 244 115 200 190 q 399 40 288 40 q 526 82 479 40 q 596 189 574 124 l 635 172 q 544 36 606 88 q 363 -15 483 -15 q 141 71 214 -15 q 68 318 68 157 q 143 574 68 483 q 364 665 218 665 q 639 332 639 665 l 639 319 m 510 364 q 478 559 510 496 q 365 622 446 622 q 243 558 283 622 q 197 364 203 493 l 510 364 m 276 936 q 249 972 256 960 q 243 997 243 983 q 258 1033 243 1018 q 293 1049 274 1049 q 326 1038 313 1049 q 351 1003 339 1026 l 458 781 l 419 781 l 276 936 z "},"ē":{"ha":703,"x_min":68,"x_max":639,"o":"m 639 319 l 197 319 q 244 115 200 190 q 399 40 288 40 q 526 82 479 40 q 596 189 574 124 l 635 172 q 544 36 606 88 q 363 -15 483 -15 q 141 71 214 -15 q 68 318 68 157 q 143 574 68 483 q 364 665 218 665 q 639 332 639 665 l 639 319 m 510 364 q 478 559 510 496 q 365 622 446 622 q 243 558 283 622 q 197 364 203 493 l 510 364 m 179 867 l 524 867 l 524 794 l 179 794 l 179 867 z "},"ę":{"ha":703,"x_min":68,"x_max":639,"o":"m 639 319 l 197 319 q 244 115 200 190 q 399 40 288 40 q 526 82 479 40 q 596 189 574 124 l 635 172 q 577 67 614 111 q 476 1 540 22 l 478 1 q 394 -77 419 -44 q 369 -149 369 -110 q 387 -188 369 -172 q 428 -204 404 -204 q 493 -164 471 -204 l 514 -179 q 463 -242 494 -221 q 389 -262 431 -262 q 313 -239 342 -262 q 283 -168 283 -215 q 408 -12 283 -96 q 363 -15 378 -15 q 141 71 214 -15 q 68 318 68 157 q 143 574 68 483 q 364 665 218 665 q 639 332 639 665 l 639 319 m 510 364 q 478 559 510 496 q 365 622 446 622 q 243 558 283 622 q 197 364 203 493 l 510 364 z "},"f":{"ha":429,"x_min":47,"x_max":514,"o":"m 49 40 q 114 46 94 40 q 139 66 133 51 q 144 115 144 81 l 144 601 l 47 601 l 47 650 l 144 650 l 144 739 q 197 915 144 850 q 353 979 249 979 q 473 944 432 979 q 514 857 514 910 q 497 807 514 826 q 450 788 479 788 q 403 803 421 788 q 386 849 386 819 q 399 886 386 869 q 411 911 411 903 q 396 930 411 922 q 360 938 381 938 q 288 901 314 938 q 263 794 263 865 l 263 650 l 418 650 l 418 601 l 263 601 l 263 114 q 269 64 263 78 q 300 45 276 50 q 382 40 324 40 l 382 0 l 49 0 l 49 40 z "},"g":{"ha":786,"x_min":50,"x_max":757,"o":"m 656 665 q 728 640 700 665 q 757 576 757 615 q 742 529 757 547 q 700 511 726 511 q 660 525 675 511 q 644 558 644 539 q 647 578 644 568 q 650 593 650 588 q 642 608 650 601 q 621 615 633 615 q 564 572 596 615 q 601 447 601 521 q 526 284 601 336 q 339 232 450 232 q 246 242 289 232 q 179 164 179 206 q 208 122 179 139 q 304 106 236 106 l 404 106 q 595 61 535 106 q 656 -71 656 17 q 565 -239 656 -183 q 333 -294 475 -294 q 128 -251 207 -294 q 50 -122 50 -208 q 78 -42 50 -75 q 169 15 106 -10 q 104 58 128 29 q 81 121 81 86 q 111 193 81 158 q 200 257 142 228 q 76 446 76 310 q 155 611 76 557 q 342 665 233 665 q 451 649 400 665 q 539 601 503 633 q 656 665 588 665 m 336 276 q 447 321 414 276 q 479 454 479 365 q 448 576 479 533 q 343 619 417 619 q 236 574 268 619 q 204 444 204 529 q 234 321 204 365 q 336 276 264 276 m 243 4 q 178 -45 197 -14 q 160 -111 160 -76 q 212 -213 160 -175 q 350 -251 264 -251 q 496 -212 440 -251 q 551 -100 551 -172 q 511 -21 551 -46 q 374 4 471 4 l 243 4 z "},"ğ":{"ha":786,"x_min":50,"x_max":757,"o":"m 656 665 q 728 640 700 665 q 757 576 757 615 q 742 529 757 547 q 700 511 726 511 q 660 525 675 511 q 644 558 644 539 q 647 578 644 568 q 650 593 650 588 q 642 608 650 601 q 621 615 633 615 q 564 572 596 615 q 601 447 601 521 q 526 284 601 336 q 339 232 450 232 q 246 242 289 232 q 179 164 179 206 q 208 122 179 139 q 304 106 236 106 l 404 106 q 595 61 535 106 q 656 -71 656 17 q 565 -239 656 -183 q 333 -294 475 -294 q 128 -251 207 -294 q 50 -122 50 -208 q 78 -42 50 -75 q 169 15 106 -10 q 104 58 128 29 q 81 121 81 86 q 111 193 81 158 q 200 257 142 228 q 76 446 76 310 q 155 611 76 557 q 342 665 233 665 q 451 649 400 665 q 539 601 503 633 q 656 665 588 665 m 336 276 q 447 321 414 276 q 479 454 479 365 q 448 576 479 533 q 343 619 417 619 q 236 574 268 619 q 204 444 204 529 q 234 321 204 365 q 336 276 264 276 m 243 4 q 178 -45 197 -14 q 160 -111 160 -76 q 212 -213 160 -175 q 350 -251 264 -251 q 496 -212 440 -251 q 551 -100 551 -172 q 511 -21 551 -46 q 374 4 471 4 l 243 4 m 340 769 q 218 819 258 769 q 175 958 178 869 l 222 958 q 260 880 228 907 q 340 853 293 853 q 422 880 388 853 q 461 958 456 907 l 507 958 q 464 819 504 868 q 340 769 424 769 z "},"ģ":{"ha":786,"x_min":50,"x_max":757,"o":"m 347 706 q 294 729 313 706 q 275 789 275 753 q 310 880 275 842 q 403 926 346 918 l 407 896 q 358 877 381 893 q 336 843 336 861 q 343 829 336 833 q 365 819 350 825 q 399 799 388 810 q 410 765 410 788 q 392 722 410 739 q 347 706 375 706 m 656 665 q 728 640 700 665 q 757 576 757 615 q 742 529 757 547 q 700 511 726 511 q 660 525 675 511 q 644 558 644 539 q 647 578 644 568 q 650 593 650 588 q 642 608 650 601 q 621 615 633 615 q 564 572 596 615 q 601 447 601 521 q 526 284 601 336 q 339 232 450 232 q 246 242 289 232 q 179 164 179 206 q 208 122 179 139 q 304 106 236 106 l 404 106 q 595 61 535 106 q 656 -71 656 17 q 565 -239 656 -183 q 333 -294 475 -294 q 128 -251 207 -294 q 50 -122 50 -208 q 78 -42 50 -75 q 169 15 106 -10 q 104 58 128 29 q 81 121 81 86 q 111 193 81 158 q 200 257 142 228 q 76 446 76 310 q 155 611 76 557 q 342 665 233 665 q 451 649 400 665 q 539 601 503 633 q 656 665 588 665 m 336 276 q 447 321 414 276 q 479 454 479 365 q 448 576 479 533 q 343 619 417 619 q 236 574 268 619 q 204 444 204 529 q 234 321 204 365 q 336 276 264 276 m 243 4 q 178 -45 197 -14 q 160 -111 160 -76 q 212 -213 160 -175 q 350 -251 264 -251 q 496 -212 440 -251 q 551 -100 551 -172 q 511 -21 551 -46 q 374 4 471 4 l 243 4 z "},"h":{"ha":804,"x_min":39,"x_max":758,"o":"m 663 115 q 668 66 663 81 q 693 46 674 51 q 758 40 713 40 l 758 0 l 454 0 l 454 40 q 516 46 497 40 q 540 65 535 51 q 546 113 546 79 l 546 450 q 515 558 546 517 q 415 599 483 599 q 324 572 364 599 q 251 496 285 546 l 251 113 q 257 65 251 79 q 281 46 263 51 q 343 40 300 40 l 343 0 l 39 0 l 39 40 q 104 46 85 40 q 128 65 124 51 q 133 115 133 79 l 133 832 q 125 880 133 868 q 93 892 117 892 l 46 892 l 46 933 l 213 961 l 251 961 l 251 561 l 256 561 q 353 640 300 614 q 475 665 406 665 q 663 465 663 665 l 663 115 z "},"i":{"ha":411,"x_min":49,"x_max":357,"o":"m 199 781 q 144 802 165 781 q 122 856 122 824 q 144 911 122 889 q 199 933 165 933 q 254 911 233 933 q 275 856 275 889 q 253 802 275 824 q 199 781 232 781 m 49 40 q 114 46 94 40 q 138 65 133 51 q 143 115 143 79 l 143 529 q 135 577 143 565 q 103 589 128 589 l 56 589 l 56 631 l 224 658 l 263 658 l 263 115 q 268 65 263 79 q 292 45 274 50 q 357 40 311 40 l 357 0 l 49 0 l 49 40 z "},"ı":{"ha":368,"x_min":39,"x_max":347,"o":"m 39 40 q 104 46 85 40 q 128 65 124 51 q 133 115 133 79 l 133 529 q 126 577 133 565 q 93 589 118 589 l 46 589 l 46 631 l 217 658 l 253 658 l 253 115 q 258 65 253 79 q 283 45 264 50 q 347 40 301 40 l 347 0 l 39 0 l 39 40 z "},"í":{"ha":368,"x_min":39,"x_max":347,"o":"m 39 40 q 104 46 85 40 q 128 65 124 51 q 133 115 133 79 l 133 529 q 126 577 133 565 q 93 589 118 589 l 46 589 l 46 631 l 217 658 l 253 658 l 253 115 q 258 65 253 79 q 283 45 264 50 q 347 40 301 40 l 347 0 l 39 0 l 39 40 m 183 1003 q 209 1038 196 1026 q 242 1049 222 1049 q 276 1033 261 1049 q 292 997 292 1018 q 285 972 292 983 q 258 936 279 960 l 115 781 l 76 781 l 183 1003 z "},"î":{"ha":368,"x_min":0,"x_max":368,"o":"m 39 40 q 104 46 85 40 q 128 65 124 51 q 133 115 133 79 l 133 529 q 126 577 133 565 q 93 589 118 589 l 46 589 l 46 631 l 217 658 l 253 658 l 253 115 q 258 65 253 79 q 283 45 264 50 q 347 40 301 40 l 347 0 l 39 0 l 39 40 m 139 983 l 232 983 l 368 769 l 315 769 l 182 899 l 53 769 l 0 769 l 139 983 z "},"ï":{"ha":368,"x_min":-4,"x_max":372,"o":"m 39 40 q 104 46 85 40 q 128 65 124 51 q 133 115 133 79 l 133 529 q 126 577 133 565 q 93 589 118 589 l 46 589 l 46 631 l 217 658 l 253 658 l 253 115 q 258 65 253 79 q 283 45 264 50 q 347 40 301 40 l 347 0 l 39 0 l 39 40 m 64 797 q 16 817 36 797 q -4 864 -4 836 q 16 912 -4 892 q 64 932 36 932 q 112 912 92 932 q 132 864 132 892 q 112 817 132 836 q 64 797 92 797 m 304 797 q 256 817 276 797 q 236 864 236 836 q 256 912 236 892 q 304 932 276 932 q 352 912 332 932 q 372 864 372 892 q 352 817 372 836 q 304 797 332 797 z "},"ì":{"ha":368,"x_min":39,"x_max":347,"o":"m 39 40 q 104 46 85 40 q 128 65 124 51 q 133 115 133 79 l 133 529 q 126 577 133 565 q 93 589 118 589 l 46 589 l 46 631 l 217 658 l 253 658 l 253 115 q 258 65 253 79 q 283 45 264 50 q 347 40 301 40 l 347 0 l 39 0 l 39 40 m 110 936 q 83 972 89 960 q 76 997 76 983 q 92 1033 76 1018 q 126 1049 107 1049 q 159 1038 146 1049 q 185 1003 172 1026 l 292 781 l 253 781 l 110 936 z "},"ī":{"ha":368,"x_min":13,"x_max":357,"o":"m 39 40 q 104 46 85 40 q 128 65 124 51 q 133 115 133 79 l 133 529 q 126 577 133 565 q 93 589 118 589 l 46 589 l 46 631 l 217 658 l 253 658 l 253 115 q 258 65 253 79 q 283 45 264 50 q 347 40 301 40 l 347 0 l 39 0 l 39 40 m 13 867 l 357 867 l 357 794 l 13 794 l 13 867 z "},"į":{"ha":411,"x_min":49,"x_max":357,"o":"m 199 781 q 144 802 165 781 q 122 856 122 824 q 144 911 122 889 q 199 933 165 933 q 254 911 233 933 q 275 856 275 889 q 253 802 275 824 q 199 781 232 781 m 290 0 q 208 -77 233 -44 q 183 -149 183 -110 q 201 -188 183 -172 q 242 -204 218 -204 q 307 -164 285 -204 l 328 -179 q 276 -242 308 -221 q 203 -262 244 -262 q 126 -239 156 -262 q 97 -168 97 -215 q 242 0 97 -90 l 49 0 l 49 40 q 114 46 94 40 q 138 65 133 51 q 143 115 143 79 l 143 529 q 135 577 143 565 q 103 589 128 589 l 56 589 l 56 631 l 224 658 l 263 658 l 263 115 q 268 65 263 79 q 292 45 274 50 q 357 40 311 40 l 357 0 l 290 0 z "},"j":{"ha":333,"x_min":-101,"x_max":229,"o":"m 153 779 q 98 801 119 779 q 76 856 76 822 q 98 911 76 889 q 153 933 119 933 q 208 911 186 933 q 229 857 229 889 q 208 801 229 824 q 153 779 186 779 m 28 -294 q -68 -268 -35 -294 q -101 -199 -101 -242 q -83 -146 -101 -165 q -37 -126 -65 -126 q 5 -142 -12 -126 q 24 -185 22 -157 q 17 -208 24 -197 q 11 -228 11 -219 q 21 -246 11 -240 q 44 -251 31 -251 q 84 -228 72 -251 q 96 -150 96 -204 l 96 529 q 88 577 96 565 q 56 589 81 589 l 8 589 l 8 631 l 179 658 l 215 658 l 215 3 q 174 -217 215 -139 q 28 -294 133 -294 z "},"k":{"ha":719,"x_min":47,"x_max":717,"o":"m 717 40 l 717 0 l 447 0 l 447 40 l 468 40 q 501 56 501 40 q 474 106 501 65 l 314 321 l 261 264 l 261 115 q 267 66 261 81 q 292 46 272 51 q 356 40 311 40 l 356 0 l 47 0 l 47 40 q 113 46 93 40 q 138 66 132 51 q 143 115 143 81 l 143 832 q 135 880 143 868 q 101 892 126 892 l 54 892 l 54 933 l 222 961 l 261 961 l 261 321 l 454 533 q 488 590 488 571 q 461 610 488 610 l 435 610 l 435 650 l 688 650 l 688 610 l 668 610 q 572 583 614 610 q 479 500 531 557 l 389 401 l 575 153 q 651 63 625 85 q 703 40 676 40 l 717 40 z "},"ķ":{"ha":719,"x_min":47,"x_max":717,"o":"m 717 40 l 717 0 l 447 0 l 447 40 l 468 40 q 501 56 501 40 q 474 106 501 65 l 314 321 l 261 264 l 261 115 q 267 66 261 81 q 292 46 272 51 q 356 40 311 40 l 356 0 l 47 0 l 47 40 q 113 46 93 40 q 138 66 132 51 q 143 115 143 81 l 143 832 q 135 880 143 868 q 101 892 126 892 l 54 892 l 54 933 l 222 961 l 261 961 l 261 321 l 454 533 q 488 590 488 571 q 461 610 488 610 l 435 610 l 435 650 l 688 650 l 688 610 l 668 610 q 572 583 614 610 q 479 500 531 557 l 389 401 l 575 153 q 651 63 625 85 q 703 40 676 40 l 717 40 m 306 -246 q 354 -227 332 -243 q 376 -193 376 -211 q 369 -179 376 -183 q 347 -169 363 -175 q 314 -149 325 -160 q 303 -115 303 -137 q 320 -72 303 -89 q 365 -56 338 -56 q 419 -79 400 -56 q 438 -139 438 -103 q 402 -230 438 -192 q 310 -276 367 -268 l 306 -246 z "},"l":{"ha":390,"x_min":42,"x_max":350,"o":"m 42 40 q 107 46 88 40 q 132 66 126 51 q 138 115 138 81 l 138 832 q 129 880 138 868 q 96 892 121 892 l 49 892 l 49 933 l 217 961 l 256 961 l 256 115 q 261 66 256 81 q 286 46 267 51 q 350 40 306 40 l 350 0 l 42 0 l 42 40 z "},"ĺ":{"ha":390,"x_min":42,"x_max":350,"o":"m 42 40 q 107 46 88 40 q 132 66 126 51 q 138 115 138 81 l 138 832 q 129 880 138 868 q 96 892 121 892 l 49 892 l 49 933 l 217 961 l 256 961 l 256 115 q 261 66 256 81 q 286 46 267 51 q 350 40 306 40 l 350 0 l 42 0 l 42 40 m 189 1246 q 215 1281 201 1269 q 247 1292 228 1292 q 282 1276 267 1292 q 297 1240 297 1261 q 291 1215 297 1226 q 264 1179 285 1203 l 121 1024 l 82 1024 l 189 1246 z "},"ľ":{"ha":390,"x_min":42,"x_max":446,"o":"m 42 40 q 107 46 88 40 q 132 66 126 51 q 138 115 138 81 l 138 832 q 129 880 138 868 q 96 892 121 892 l 49 892 l 49 933 l 217 961 l 256 961 l 256 115 q 261 66 256 81 q 286 46 267 51 q 350 40 306 40 l 350 0 l 42 0 l 42 40 m 314 807 q 363 826 340 810 q 385 860 385 842 q 378 874 385 869 q 356 883 371 878 q 322 904 333 893 q 311 938 311 915 q 328 981 311 964 q 374 997 346 997 q 427 974 408 997 q 446 914 446 950 q 410 823 446 861 q 318 776 375 785 l 314 807 z "},"ļ":{"ha":390,"x_min":42,"x_max":350,"o":"m 42 40 q 107 46 88 40 q 132 66 126 51 q 138 115 138 81 l 138 832 q 129 880 138 868 q 96 892 121 892 l 49 892 l 49 933 l 217 961 l 256 961 l 256 115 q 261 66 256 81 q 286 46 267 51 q 350 40 306 40 l 350 0 l 42 0 l 42 40 m 125 -246 q 174 -227 151 -243 q 196 -193 196 -211 q 189 -179 196 -183 q 167 -169 182 -175 q 133 -149 144 -160 q 122 -115 122 -137 q 140 -72 122 -89 q 185 -56 157 -56 q 238 -79 219 -56 q 257 -139 257 -103 q 222 -230 257 -192 q 129 -276 186 -268 l 125 -246 z "},"ł":{"ha":428,"x_min":40,"x_max":386,"o":"m 268 532 l 268 115 q 274 66 268 81 q 299 46 279 51 q 363 40 318 40 l 363 0 l 54 0 l 54 40 q 119 46 100 40 q 144 66 139 51 q 150 115 150 81 l 150 451 l 40 375 l 40 439 l 150 515 l 150 832 q 142 880 150 868 q 108 892 133 892 l 61 892 l 61 933 l 229 961 l 268 961 l 268 596 l 386 678 l 386 614 l 268 532 z "},"m":{"ha":1189,"x_min":50,"x_max":1143,"o":"m 1047 115 q 1053 65 1047 81 q 1078 45 1058 50 q 1143 40 1097 40 l 1143 0 l 839 0 l 839 40 q 901 45 883 40 q 925 64 919 50 q 931 113 931 78 l 931 450 q 903 558 931 518 q 813 599 875 599 q 726 572 764 599 q 656 497 689 544 l 656 115 q 661 66 656 81 q 685 46 667 51 q 747 40 704 40 l 747 0 l 447 0 l 447 40 q 510 45 492 40 q 533 64 528 50 q 539 113 539 78 l 539 450 q 511 558 539 518 q 421 599 483 599 q 264 501 333 599 l 264 113 q 269 63 264 78 q 293 44 275 49 q 354 40 311 40 l 354 0 l 50 0 l 50 40 q 115 46 96 40 q 140 65 135 51 q 144 115 144 79 l 144 529 q 136 577 144 565 q 104 589 128 589 l 57 589 l 57 631 l 221 658 l 260 658 l 260 558 l 261 558 q 481 665 353 665 q 593 635 550 665 q 650 553 636 604 q 872 665 736 665 q 1004 616 961 665 q 1047 465 1047 567 l 1047 115 z "},"n":{"ha":815,"x_min":50,"x_max":769,"o":"m 674 115 q 679 66 674 81 q 704 46 685 51 q 769 40 724 40 l 769 0 l 465 0 l 465 40 q 528 45 510 40 q 551 64 546 50 q 557 113 557 78 l 557 450 q 526 558 557 517 q 428 599 494 599 q 336 573 374 599 q 264 500 299 547 l 264 113 q 269 63 264 78 q 293 44 275 49 q 354 40 311 40 l 354 0 l 50 0 l 50 40 q 115 46 96 40 q 140 65 135 51 q 144 115 144 79 l 144 529 q 136 577 144 565 q 104 589 128 589 l 57 589 l 57 631 l 221 658 l 260 658 l 260 556 l 261 556 q 363 638 308 611 q 486 665 417 665 q 674 465 674 665 l 674 115 z "},"ń":{"ha":815,"x_min":50,"x_max":769,"o":"m 674 115 q 679 66 674 81 q 704 46 685 51 q 769 40 724 40 l 769 0 l 465 0 l 465 40 q 528 45 510 40 q 551 64 546 50 q 557 113 557 78 l 557 450 q 526 558 557 517 q 428 599 494 599 q 336 573 374 599 q 264 500 299 547 l 264 113 q 269 63 264 78 q 293 44 275 49 q 354 40 311 40 l 354 0 l 50 0 l 50 40 q 115 46 96 40 q 140 65 135 51 q 144 115 144 79 l 144 529 q 136 577 144 565 q 104 589 128 589 l 57 589 l 57 631 l 221 658 l 260 658 l 260 556 l 261 556 q 363 638 308 611 q 486 665 417 665 q 674 465 674 665 l 674 115 m 403 1003 q 428 1038 415 1026 q 461 1049 442 1049 q 496 1033 481 1049 q 511 997 511 1018 q 505 972 511 983 q 478 936 499 960 l 335 781 l 296 781 l 403 1003 z "},"ň":{"ha":815,"x_min":50,"x_max":769,"o":"m 674 115 q 679 66 674 81 q 704 46 685 51 q 769 40 724 40 l 769 0 l 465 0 l 465 40 q 528 45 510 40 q 551 64 546 50 q 557 113 557 78 l 557 450 q 526 558 557 517 q 428 599 494 599 q 336 573 374 599 q 264 500 299 547 l 264 113 q 269 63 264 78 q 293 44 275 49 q 354 40 311 40 l 354 0 l 50 0 l 50 40 q 115 46 96 40 q 140 65 135 51 q 144 115 144 79 l 144 529 q 136 577 144 565 q 104 589 128 589 l 57 589 l 57 631 l 221 658 l 260 658 l 260 556 l 261 556 q 363 638 308 611 q 486 665 417 665 q 674 465 674 665 l 674 115 m 219 983 l 271 983 l 406 854 l 535 983 l 588 983 l 449 769 l 356 769 l 219 983 z "},"ņ":{"ha":815,"x_min":50,"x_max":769,"o":"m 674 115 q 679 66 674 81 q 704 46 685 51 q 769 40 724 40 l 769 0 l 465 0 l 465 40 q 528 45 510 40 q 551 64 546 50 q 557 113 557 78 l 557 450 q 526 558 557 517 q 428 599 494 599 q 336 573 374 599 q 264 500 299 547 l 264 113 q 269 63 264 78 q 293 44 275 49 q 354 40 311 40 l 354 0 l 50 0 l 50 40 q 115 46 96 40 q 140 65 135 51 q 144 115 144 79 l 144 529 q 136 577 144 565 q 104 589 128 589 l 57 589 l 57 631 l 221 658 l 260 658 l 260 556 l 261 556 q 363 638 308 611 q 486 665 417 665 q 674 465 674 665 l 674 115 m 339 -246 q 388 -227 365 -243 q 410 -193 410 -211 q 403 -179 410 -183 q 381 -169 396 -175 q 347 -149 358 -160 q 336 -115 336 -137 q 353 -72 336 -89 q 399 -56 371 -56 q 452 -79 433 -56 q 471 -139 471 -103 q 435 -230 471 -192 q 343 -276 400 -268 l 339 -246 z "},"ñ":{"ha":815,"x_min":50,"x_max":769,"o":"m 674 115 q 679 66 674 81 q 704 46 685 51 q 769 40 724 40 l 769 0 l 465 0 l 465 40 q 528 45 510 40 q 551 64 546 50 q 557 113 557 78 l 557 450 q 526 558 557 517 q 428 599 494 599 q 336 573 374 599 q 264 500 299 547 l 264 113 q 269 63 264 78 q 293 44 275 49 q 354 40 311 40 l 354 0 l 50 0 l 50 40 q 115 46 96 40 q 140 65 135 51 q 144 115 144 79 l 144 529 q 136 577 144 565 q 104 589 128 589 l 57 589 l 57 631 l 221 658 l 260 658 l 260 556 l 261 556 q 363 638 308 611 q 486 665 417 665 q 674 465 674 665 l 674 115 m 481 779 q 438 786 458 779 q 385 808 418 793 q 301 835 332 835 q 259 819 275 835 q 240 782 243 804 l 208 782 q 243 878 211 840 q 328 915 275 915 q 374 908 351 915 q 426 888 397 901 q 507 864 479 864 q 550 879 535 864 q 567 914 565 894 l 600 914 q 564 819 597 860 q 481 779 531 779 z "},"o":{"ha":738,"x_min":67,"x_max":671,"o":"m 368 -15 q 67 325 67 -15 q 142 580 67 493 q 369 667 217 667 q 671 326 671 667 q 368 -15 671 -15 m 369 29 q 542 319 542 29 q 368 622 542 622 q 239 547 282 622 q 196 325 196 471 q 369 29 196 29 z "},"ó":{"ha":738,"x_min":67,"x_max":671,"o":"m 368 -15 q 67 325 67 -15 q 142 580 67 493 q 369 667 217 667 q 671 326 671 667 q 368 -15 671 -15 m 369 29 q 542 319 542 29 q 368 622 542 622 q 239 547 282 622 q 196 325 196 471 q 369 29 196 29 m 368 1003 q 394 1038 381 1026 q 426 1049 407 1049 q 461 1033 446 1049 q 476 997 476 1018 q 470 972 476 983 q 443 936 464 960 l 300 781 l 261 781 l 368 1003 z "},"ô":{"ha":738,"x_min":67,"x_max":671,"o":"m 368 -15 q 67 325 67 -15 q 142 580 67 493 q 369 667 217 667 q 671 326 671 667 q 368 -15 671 -15 m 369 29 q 542 319 542 29 q 368 622 542 622 q 239 547 282 622 q 196 325 196 471 q 369 29 196 29 m 324 983 l 417 983 l 553 769 l 500 769 l 367 899 l 238 769 l 185 769 l 324 983 z "},"ö":{"ha":738,"x_min":67,"x_max":671,"o":"m 368 -15 q 67 325 67 -15 q 142 580 67 493 q 369 667 217 667 q 671 326 671 667 q 368 -15 671 -15 m 369 29 q 542 319 542 29 q 368 622 542 622 q 239 547 282 622 q 196 325 196 471 q 369 29 196 29 m 249 797 q 201 817 221 797 q 181 864 181 836 q 201 912 181 892 q 249 932 221 932 q 297 912 276 932 q 317 864 317 892 q 297 817 317 836 q 249 797 276 797 m 489 797 q 441 817 461 797 q 421 864 421 836 q 441 912 421 892 q 489 932 461 932 q 537 912 517 932 q 557 864 557 892 q 537 817 557 836 q 489 797 517 797 z "},"ò":{"ha":738,"x_min":67,"x_max":671,"o":"m 368 -15 q 67 325 67 -15 q 142 580 67 493 q 369 667 217 667 q 671 326 671 667 q 368 -15 671 -15 m 369 29 q 542 319 542 29 q 368 622 542 622 q 239 547 282 622 q 196 325 196 471 q 369 29 196 29 m 294 936 q 267 972 274 960 q 261 997 261 983 q 276 1033 261 1018 q 311 1049 292 1049 q 344 1038 331 1049 q 369 1003 357 1026 l 476 781 l 438 781 l 294 936 z "},"ō":{"ha":738,"x_min":67,"x_max":671,"o":"m 368 -15 q 67 325 67 -15 q 142 580 67 493 q 369 667 217 667 q 671 326 671 667 q 368 -15 671 -15 m 369 29 q 542 319 542 29 q 368 622 542 622 q 239 547 282 622 q 196 325 196 471 q 369 29 196 29 m 197 867 l 542 867 l 542 794 l 197 794 l 197 867 z "},"ø":{"ha":747,"x_min":67,"x_max":676,"o":"m 603 579 q 676 326 676 496 q 374 -15 676 -15 q 168 50 242 -15 l 121 -8 l 67 -8 l 139 81 q 72 325 72 167 q 147 580 72 493 q 375 667 222 667 q 572 608 501 667 l 614 658 l 667 658 l 603 579 m 201 325 q 217 175 201 240 l 511 533 q 374 622 469 622 q 244 547 288 622 q 201 325 201 471 m 375 29 q 547 319 547 29 q 528 489 547 419 l 232 128 q 375 29 276 29 z "},"õ":{"ha":738,"x_min":67,"x_max":671,"o":"m 368 -15 q 67 325 67 -15 q 142 580 67 493 q 369 667 217 667 q 671 326 671 667 q 368 -15 671 -15 m 369 29 q 542 319 542 29 q 368 622 542 622 q 239 547 282 622 q 196 325 196 471 q 369 29 196 29 m 446 779 q 403 786 424 779 q 350 808 383 793 q 267 835 297 835 q 224 819 240 835 q 206 782 208 804 l 174 782 q 208 878 176 840 q 293 915 240 915 q 340 908 317 915 q 392 888 363 901 q 472 864 444 864 q 515 879 500 864 q 532 914 531 894 l 565 914 q 529 819 563 860 q 446 779 496 779 z "},"œ":{"ha":1178,"x_min":67,"x_max":1113,"o":"m 1113 319 l 671 319 q 718 116 674 192 q 872 40 763 40 q 1069 189 1019 40 l 1106 172 q 1017 37 1078 89 q 836 -15 957 -15 q 604 82 679 -15 q 368 -15 531 -15 q 67 325 67 -15 q 369 665 67 665 q 608 563 535 665 q 840 665 686 665 q 1054 572 996 665 q 1113 328 1113 478 l 1113 319 m 369 29 q 542 314 539 29 l 542 317 l 542 322 l 542 326 q 368 622 542 622 q 239 547 282 622 q 196 325 196 471 q 369 29 196 29 m 983 364 q 950 560 983 499 q 839 622 917 622 q 717 558 757 622 q 671 364 676 493 l 983 364 z "},"p":{"ha":782,"x_min":44,"x_max":715,"o":"m 463 665 q 651 583 588 665 q 715 340 715 501 q 638 72 715 160 q 422 -17 560 -17 q 331 -1 369 -17 q 257 43 292 15 l 257 -162 q 263 -212 257 -197 q 290 -232 269 -226 q 360 -237 311 -237 l 360 -278 l 44 -278 l 44 -237 q 110 -233 92 -237 q 134 -213 129 -228 q 139 -162 139 -199 l 139 535 q 130 579 139 568 q 92 590 121 590 l 50 590 l 50 631 l 215 658 l 253 658 l 253 590 q 342 643 289 621 q 463 665 394 665 m 407 28 q 586 322 586 28 q 544 534 586 460 q 417 608 503 608 q 257 539 336 608 l 257 99 q 407 28 322 28 z "},"þ":{"ha":767,"x_min":29,"x_max":700,"o":"m 447 665 q 636 583 572 665 q 700 340 700 501 q 622 72 700 160 q 407 -17 544 -17 q 315 -1 354 -17 q 242 43 276 15 l 242 -162 q 248 -212 242 -197 q 275 -232 254 -226 q 344 -237 296 -237 l 344 -278 l 29 -278 l 29 -237 q 95 -233 76 -237 q 119 -213 114 -228 q 124 -162 124 -199 l 124 838 q 115 882 124 871 q 76 893 106 893 l 35 893 l 35 933 l 203 961 l 242 961 l 242 593 q 329 644 276 622 q 447 665 382 665 m 392 28 q 571 322 571 28 q 529 534 571 460 q 401 608 488 608 q 242 539 321 608 l 242 99 q 392 28 307 28 z "},"q":{"ha":746,"x_min":67,"x_max":739,"o":"m 644 -162 q 650 -212 644 -197 q 675 -232 656 -226 q 739 -237 694 -237 l 739 -278 l 426 -278 l 426 -237 q 494 -232 474 -237 q 521 -212 515 -226 q 526 -162 526 -197 l 526 53 l 521 53 q 318 -17 433 -17 q 132 69 197 -17 q 67 313 67 154 q 146 577 67 489 q 365 665 225 665 q 465 649 422 665 q 544 603 507 632 l 607 658 l 644 658 l 644 -162 m 197 329 q 367 42 197 42 q 451 61 413 42 q 526 114 489 81 l 526 550 q 376 622 460 622 q 197 329 197 622 z "},"r":{"ha":549,"x_min":50,"x_max":536,"o":"m 432 667 q 509 638 482 667 q 536 557 536 608 q 517 492 536 515 q 457 468 497 468 q 403 486 422 468 q 385 533 385 504 q 390 561 385 550 q 407 585 396 572 q 418 604 418 597 q 400 617 418 617 q 344 590 374 617 q 292 519 314 564 q 264 421 269 474 l 264 115 q 270 65 264 79 q 297 45 276 50 q 368 40 318 40 l 368 0 l 50 0 l 50 40 q 115 46 96 40 q 140 65 135 51 q 144 115 144 79 l 144 529 q 136 577 144 565 q 104 589 128 589 l 57 589 l 57 631 l 221 658 l 260 658 l 260 528 l 261 528 q 331 626 292 586 q 432 667 369 667 z "},"ŕ":{"ha":549,"x_min":50,"x_max":536,"o":"m 432 667 q 509 638 482 667 q 536 557 536 608 q 517 492 536 515 q 457 468 497 468 q 403 486 422 468 q 385 533 385 504 q 390 561 385 550 q 407 585 396 572 q 418 604 418 597 q 400 617 418 617 q 344 590 374 617 q 292 519 314 564 q 264 421 269 474 l 264 115 q 270 65 264 79 q 297 45 276 50 q 368 40 318 40 l 368 0 l 50 0 l 50 40 q 115 46 96 40 q 140 65 135 51 q 144 115 144 79 l 144 529 q 136 577 144 565 q 104 589 128 589 l 57 589 l 57 631 l 221 658 l 260 658 l 260 528 l 261 528 q 331 626 292 586 q 432 667 369 667 m 281 1003 q 306 1038 293 1026 q 339 1049 319 1049 q 374 1033 358 1049 q 389 997 389 1018 q 383 972 389 983 q 356 936 376 960 l 213 781 l 174 781 l 281 1003 z "},"ř":{"ha":549,"x_min":50,"x_max":536,"o":"m 432 667 q 509 638 482 667 q 536 557 536 608 q 517 492 536 515 q 457 468 497 468 q 403 486 422 468 q 385 533 385 504 q 390 561 385 550 q 407 585 396 572 q 418 604 418 597 q 400 617 418 617 q 344 590 374 617 q 292 519 314 564 q 264 421 269 474 l 264 115 q 270 65 264 79 q 297 45 276 50 q 368 40 318 40 l 368 0 l 50 0 l 50 40 q 115 46 96 40 q 140 65 135 51 q 144 115 144 79 l 144 529 q 136 577 144 565 q 104 589 128 589 l 57 589 l 57 631 l 221 658 l 260 658 l 260 528 l 261 528 q 331 626 292 586 q 432 667 369 667 m 97 983 l 149 983 l 283 854 l 413 983 l 465 983 l 326 769 l 233 769 l 97 983 z "},"ŗ":{"ha":549,"x_min":50,"x_max":536,"o":"m 432 667 q 509 638 482 667 q 536 557 536 608 q 517 492 536 515 q 457 468 497 468 q 403 486 422 468 q 385 533 385 504 q 390 561 385 550 q 407 585 396 572 q 418 604 418 597 q 400 617 418 617 q 344 590 374 617 q 292 519 314 564 q 264 421 269 474 l 264 115 q 270 65 264 79 q 297 45 276 50 q 368 40 318 40 l 368 0 l 50 0 l 50 40 q 115 46 96 40 q 140 65 135 51 q 144 115 144 79 l 144 529 q 136 577 144 565 q 104 589 128 589 l 57 589 l 57 631 l 221 658 l 260 658 l 260 528 l 261 528 q 331 626 292 586 q 432 667 369 667 m 143 -246 q 192 -227 169 -243 q 214 -193 214 -211 q 207 -179 214 -183 q 185 -169 200 -175 q 151 -149 163 -160 q 140 -115 140 -137 q 158 -72 140 -89 q 203 -56 175 -56 q 256 -79 238 -56 q 275 -139 275 -103 q 240 -230 275 -192 q 147 -276 204 -268 l 143 -246 z "},"s":{"ha":613,"x_min":69,"x_max":549,"o":"m 315 -15 q 249 -8 276 -15 q 194 10 222 -1 q 146 22 163 22 q 124 16 132 22 q 110 -4 117 10 l 83 -4 l 69 225 l 97 225 q 178 78 124 128 q 307 29 232 29 q 405 59 368 29 q 442 143 442 89 q 421 208 442 182 q 371 249 400 233 q 285 286 342 264 l 250 299 q 126 372 165 333 q 86 476 86 410 q 148 615 86 564 q 311 665 210 665 q 365 661 344 665 q 413 649 386 657 q 449 640 440 640 q 468 647 463 640 q 476 658 474 653 q 478 665 478 664 l 503 665 l 513 461 l 485 461 q 318 622 447 622 q 224 594 261 622 q 188 522 188 567 q 223 448 188 478 q 308 400 258 418 l 346 388 q 499 307 450 351 q 549 186 549 263 q 483 40 549 96 q 315 -15 418 -15 z "},"ś":{"ha":613,"x_min":69,"x_max":549,"o":"m 315 -15 q 249 -8 276 -15 q 194 10 222 -1 q 146 22 163 22 q 124 16 132 22 q 110 -4 117 10 l 83 -4 l 69 225 l 97 225 q 178 78 124 128 q 307 29 232 29 q 405 59 368 29 q 442 143 442 89 q 421 208 442 182 q 371 249 400 233 q 285 286 342 264 l 250 299 q 126 372 165 333 q 86 476 86 410 q 148 615 86 564 q 311 665 210 665 q 365 661 344 665 q 413 649 386 657 q 449 640 440 640 q 468 647 463 640 q 476 658 474 653 q 478 665 478 664 l 503 665 l 513 461 l 485 461 q 318 622 447 622 q 224 594 261 622 q 188 522 188 567 q 223 448 188 478 q 308 400 258 418 l 346 388 q 499 307 450 351 q 549 186 549 263 q 483 40 549 96 q 315 -15 418 -15 m 304 1003 q 330 1038 317 1026 q 363 1049 343 1049 q 397 1033 382 1049 q 413 997 413 1018 q 406 972 413 983 q 379 936 400 960 l 236 781 l 197 781 l 304 1003 z "},"š":{"ha":613,"x_min":69,"x_max":549,"o":"m 315 -15 q 249 -8 276 -15 q 194 10 222 -1 q 146 22 163 22 q 124 16 132 22 q 110 -4 117 10 l 83 -4 l 69 225 l 97 225 q 178 78 124 128 q 307 29 232 29 q 405 59 368 29 q 442 143 442 89 q 421 208 442 182 q 371 249 400 233 q 285 286 342 264 l 250 299 q 126 372 165 333 q 86 476 86 410 q 148 615 86 564 q 311 665 210 665 q 365 661 344 665 q 413 649 386 657 q 449 640 440 640 q 468 647 463 640 q 476 658 474 653 q 478 665 478 664 l 503 665 l 513 461 l 485 461 q 318 622 447 622 q 224 594 261 622 q 188 522 188 567 q 223 448 188 478 q 308 400 258 418 l 346 388 q 499 307 450 351 q 549 186 549 263 q 483 40 549 96 q 315 -15 418 -15 m 121 983 l 172 983 l 307 854 l 436 983 l 489 983 l 350 769 l 257 769 l 121 983 z "},"ş":{"ha":613,"x_min":69,"x_max":549,"o":"m 549 186 q 487 43 549 99 q 326 -15 425 -12 l 299 -76 q 338 -71 318 -71 q 403 -93 374 -71 q 433 -158 433 -115 q 390 -235 433 -211 q 292 -260 347 -260 q 178 -237 229 -260 l 194 -197 q 268 -215 231 -215 q 320 -203 299 -215 q 342 -165 342 -190 q 325 -129 342 -142 q 286 -117 308 -117 q 249 -126 271 -117 l 232 -118 l 279 -14 q 233 -4 254 -11 q 194 10 211 3 q 146 22 163 22 q 124 16 132 22 q 110 -4 117 10 l 83 -4 l 69 225 l 97 225 q 178 78 124 128 q 307 29 232 29 q 405 59 368 29 q 442 143 442 89 q 421 208 442 182 q 371 249 400 233 q 285 286 342 264 l 250 299 q 126 372 165 333 q 86 476 86 410 q 148 615 86 564 q 311 665 210 665 q 365 661 344 665 q 413 649 386 657 q 449 640 440 640 q 468 647 463 640 q 476 658 474 653 q 478 665 478 664 l 503 665 l 513 461 l 485 461 q 318 622 447 622 q 224 594 261 622 q 188 522 188 567 q 223 448 188 478 q 308 400 258 418 l 346 388 q 499 307 450 351 q 549 186 549 263 z "},"ș":{"ha":613,"x_min":69,"x_max":549,"o":"m 315 -15 q 249 -8 276 -15 q 194 10 222 -1 q 146 22 163 22 q 124 16 132 22 q 110 -4 117 10 l 83 -4 l 69 225 l 97 225 q 178 78 124 128 q 307 29 232 29 q 405 59 368 29 q 442 143 442 89 q 421 208 442 182 q 371 249 400 233 q 285 286 342 264 l 250 299 q 126 372 165 333 q 86 476 86 410 q 148 615 86 564 q 311 665 210 665 q 365 661 344 665 q 413 649 386 657 q 449 640 440 640 q 468 647 463 640 q 476 658 474 653 q 478 665 478 664 l 503 665 l 513 461 l 485 461 q 318 622 447 622 q 224 594 261 622 q 188 522 188 567 q 223 448 188 478 q 308 400 258 418 l 346 388 q 499 307 450 351 q 549 186 549 263 q 483 40 549 96 q 315 -15 418 -15 m 240 -246 q 289 -227 267 -243 q 311 -193 311 -211 q 304 -179 311 -183 q 282 -169 297 -175 q 249 -149 260 -160 q 238 -115 238 -137 q 255 -72 238 -89 q 300 -56 272 -56 q 353 -79 335 -56 q 372 -139 372 -103 q 337 -230 372 -192 q 244 -276 301 -268 l 240 -246 z "},"ß":{"ha":806,"x_min":39,"x_max":764,"o":"m 624 388 q 726 293 688 342 q 764 174 764 244 q 706 36 764 88 q 551 -15 647 -15 q 456 7 490 -15 q 422 65 422 29 q 438 109 422 92 q 482 126 453 126 q 519 115 506 126 q 532 82 532 103 q 528 62 532 72 q 525 47 525 51 q 535 34 525 39 q 565 29 546 29 q 634 55 604 29 q 664 126 664 81 q 634 222 664 182 q 538 304 604 263 q 429 401 463 354 q 396 494 396 447 q 543 671 396 635 q 565 719 557 690 q 574 775 574 747 q 528 888 574 843 q 414 933 482 933 q 287 848 322 933 q 251 608 251 763 l 251 115 q 258 66 251 81 q 283 46 264 51 q 347 40 301 40 l 347 0 l 39 0 l 39 40 q 104 45 85 40 q 129 63 124 50 q 135 107 135 76 l 135 604 l 39 604 l 39 650 l 135 650 q 208 897 139 814 q 424 979 278 979 q 581 944 524 979 q 660 862 639 908 q 682 771 682 815 q 673 713 682 742 q 649 665 664 685 q 539 622 581 654 q 497 540 497 590 q 522 471 497 499 q 600 404 546 443 l 624 388 z "},"t":{"ha":421,"x_min":15,"x_max":406,"o":"m 253 -15 q 156 18 196 -15 q 117 131 117 51 l 117 606 l 15 606 l 15 647 q 194 861 160 663 l 235 861 l 235 650 l 389 650 l 389 606 l 235 606 l 235 151 q 252 70 235 94 q 304 46 269 46 q 350 56 326 46 q 390 79 374 67 l 406 46 q 333 0 364 15 q 253 -15 301 -15 z "},"ť":{"ha":421,"x_min":15,"x_max":451,"o":"m 253 -15 q 156 18 196 -15 q 117 131 117 51 l 117 606 l 15 606 l 15 647 q 194 861 160 663 l 235 861 l 235 650 l 389 650 l 389 606 l 235 606 l 235 151 q 252 70 235 94 q 304 46 269 46 q 350 56 326 46 q 390 79 374 67 l 406 46 q 333 0 364 15 q 253 -15 301 -15 m 319 761 q 368 780 346 764 q 390 814 390 796 q 383 828 390 824 q 361 838 376 832 q 328 858 339 847 q 317 892 317 869 q 334 935 317 918 q 379 951 351 951 q 433 928 414 951 q 451 868 451 904 q 416 777 451 815 q 324 731 381 739 l 319 761 z "},"ţ":{"ha":421,"x_min":15,"x_max":406,"o":"m 247 -71 q 313 -93 283 -71 q 343 -158 343 -115 q 300 -235 343 -211 q 201 -260 257 -260 q 88 -237 139 -260 l 104 -197 q 178 -215 140 -215 q 230 -203 208 -215 q 251 -165 251 -190 q 235 -129 251 -142 q 196 -117 218 -117 q 158 -126 181 -117 l 142 -118 l 193 -6 q 117 131 117 25 l 117 606 l 15 606 l 15 647 q 194 861 160 663 l 235 861 l 235 650 l 389 650 l 389 606 l 235 606 l 235 151 q 252 70 235 94 q 304 46 269 46 q 350 56 326 46 q 390 79 374 67 l 406 46 q 333 0 364 15 q 253 -15 301 -15 q 236 -14 242 -15 l 208 -76 q 247 -71 228 -71 z "},"ț":{"ha":421,"x_min":15,"x_max":406,"o":"m 253 -15 q 156 18 196 -15 q 117 131 117 51 l 117 606 l 15 606 l 15 647 q 194 861 160 663 l 235 861 l 235 650 l 389 650 l 389 606 l 235 606 l 235 151 q 252 70 235 94 q 304 46 269 46 q 350 56 326 46 q 390 79 374 67 l 406 46 q 333 0 364 15 q 253 -15 301 -15 m 150 -246 q 199 -227 176 -243 q 221 -193 221 -211 q 214 -179 221 -183 q 192 -169 207 -175 q 158 -149 169 -160 q 147 -115 147 -137 q 165 -72 147 -89 q 210 -56 182 -56 q 263 -79 244 -56 q 282 -139 282 -103 q 247 -230 282 -192 q 154 -276 211 -268 l 150 -246 z "},"u":{"ha":810,"x_min":42,"x_max":754,"o":"m 660 115 q 665 66 660 81 q 690 46 671 51 q 754 40 710 40 l 754 0 l 544 0 l 544 97 l 540 97 l 540 100 q 315 -17 450 -17 q 131 182 131 -17 l 131 532 q 122 581 131 568 q 89 593 114 593 l 42 593 l 42 633 l 210 658 l 249 658 l 249 204 q 280 93 249 135 q 376 51 311 51 q 540 157 467 51 l 542 532 q 533 581 542 568 q 500 593 525 593 l 453 593 l 453 633 l 621 658 l 660 658 l 660 115 z "},"ú":{"ha":810,"x_min":42,"x_max":754,"o":"m 660 115 q 665 66 660 81 q 690 46 671 51 q 754 40 710 40 l 754 0 l 544 0 l 544 97 l 540 97 l 540 100 q 315 -17 450 -17 q 131 182 131 -17 l 131 532 q 122 581 131 568 q 89 593 114 593 l 42 593 l 42 633 l 210 658 l 249 658 l 249 204 q 280 93 249 135 q 376 51 311 51 q 540 157 467 51 l 542 532 q 533 581 542 568 q 500 593 525 593 l 453 593 l 453 633 l 621 658 l 660 658 l 660 115 m 385 1003 q 410 1038 397 1026 q 443 1049 424 1049 q 478 1033 463 1049 q 493 997 493 1018 q 487 972 493 983 q 460 936 481 960 l 317 781 l 278 781 l 385 1003 z "},"û":{"ha":810,"x_min":42,"x_max":754,"o":"m 660 115 q 665 66 660 81 q 690 46 671 51 q 754 40 710 40 l 754 0 l 544 0 l 544 97 l 540 97 l 540 100 q 315 -17 450 -17 q 131 182 131 -17 l 131 532 q 122 581 131 568 q 89 593 114 593 l 42 593 l 42 633 l 210 658 l 249 658 l 249 204 q 280 93 249 135 q 376 51 311 51 q 540 157 467 51 l 542 532 q 533 581 542 568 q 500 593 525 593 l 453 593 l 453 633 l 621 658 l 660 658 l 660 115 m 340 983 l 433 983 l 569 769 l 517 769 l 383 899 l 254 769 l 201 769 l 340 983 z "},"ü":{"ha":810,"x_min":42,"x_max":754,"o":"m 660 115 q 665 66 660 81 q 690 46 671 51 q 754 40 710 40 l 754 0 l 544 0 l 544 97 l 540 97 l 540 100 q 315 -17 450 -17 q 131 182 131 -17 l 131 532 q 122 581 131 568 q 89 593 114 593 l 42 593 l 42 633 l 210 658 l 249 658 l 249 204 q 280 93 249 135 q 376 51 311 51 q 540 157 467 51 l 542 532 q 533 581 542 568 q 500 593 525 593 l 453 593 l 453 633 l 621 658 l 660 658 l 660 115 m 265 797 q 217 817 238 797 q 197 864 197 836 q 217 912 197 892 q 265 932 238 932 q 313 912 293 932 q 333 864 333 892 q 313 817 333 836 q 265 797 293 797 m 506 797 q 458 817 478 797 q 438 864 438 836 q 458 912 438 892 q 506 932 478 932 q 553 912 533 932 q 574 864 574 892 q 553 817 574 836 q 506 797 533 797 z "},"ù":{"ha":810,"x_min":42,"x_max":754,"o":"m 660 115 q 665 66 660 81 q 690 46 671 51 q 754 40 710 40 l 754 0 l 544 0 l 544 97 l 540 97 l 540 100 q 315 -17 450 -17 q 131 182 131 -17 l 131 532 q 122 581 131 568 q 89 593 114 593 l 42 593 l 42 633 l 210 658 l 249 658 l 249 204 q 280 93 249 135 q 376 51 311 51 q 540 157 467 51 l 542 532 q 533 581 542 568 q 500 593 525 593 l 453 593 l 453 633 l 621 658 l 660 658 l 660 115 m 311 936 q 284 972 290 960 q 278 997 278 983 q 293 1033 278 1018 q 328 1049 308 1049 q 360 1038 347 1049 q 386 1003 374 1026 l 493 781 l 454 781 l 311 936 z "},"ū":{"ha":810,"x_min":42,"x_max":754,"o":"m 660 115 q 665 66 660 81 q 690 46 671 51 q 754 40 710 40 l 754 0 l 544 0 l 544 97 l 540 97 l 540 100 q 315 -17 450 -17 q 131 182 131 -17 l 131 532 q 122 581 131 568 q 89 593 114 593 l 42 593 l 42 633 l 210 658 l 249 658 l 249 204 q 280 93 249 135 q 376 51 311 51 q 540 157 467 51 l 542 532 q 533 581 542 568 q 500 593 525 593 l 453 593 l 453 633 l 621 658 l 660 658 l 660 115 m 214 867 l 558 867 l 558 794 l 214 794 l 214 867 z "},"ų":{"ha":810,"x_min":42,"x_max":754,"o":"m 653 0 q 571 -77 596 -44 q 546 -149 546 -110 q 563 -188 546 -172 q 604 -204 581 -204 q 669 -164 647 -204 l 690 -179 q 639 -242 671 -221 q 565 -262 607 -262 q 489 -239 518 -262 q 460 -168 460 -215 q 604 0 460 -90 l 544 0 l 544 97 l 540 97 l 540 100 q 315 -17 450 -17 q 131 182 131 -17 l 131 532 q 122 581 131 568 q 89 593 114 593 l 42 593 l 42 633 l 210 658 l 249 658 l 249 204 q 280 93 249 135 q 376 51 311 51 q 540 157 467 51 l 542 532 q 533 581 542 568 q 500 593 525 593 l 453 593 l 453 633 l 621 658 l 660 658 l 660 115 q 665 66 660 81 q 690 46 671 51 q 754 40 710 40 l 754 0 l 653 0 z "},"ů":{"ha":810,"x_min":42,"x_max":754,"o":"m 660 115 q 665 66 660 81 q 690 46 671 51 q 754 40 710 40 l 754 0 l 544 0 l 544 97 l 540 97 l 540 100 q 315 -17 450 -17 q 131 182 131 -17 l 131 532 q 122 581 131 568 q 89 593 114 593 l 42 593 l 42 633 l 210 658 l 249 658 l 249 204 q 280 93 249 135 q 376 51 311 51 q 540 157 467 51 l 542 532 q 533 581 542 568 q 500 593 525 593 l 453 593 l 453 633 l 621 658 l 660 658 l 660 115 m 386 733 q 299 769 335 733 q 263 857 263 806 q 299 944 263 908 q 386 979 335 979 q 473 944 438 979 q 508 857 508 908 q 473 769 508 806 q 386 733 438 733 m 386 782 q 439 804 417 782 q 461 857 461 826 q 439 911 461 889 q 386 933 417 933 q 332 911 354 933 q 310 857 310 889 q 332 804 310 826 q 386 782 354 782 z "},"v":{"ha":683,"x_min":-6,"x_max":676,"o":"m 88 553 q 56 599 74 588 q -6 610 39 610 l -6 650 l 283 650 l 283 610 l 228 610 q 201 586 201 610 q 206 567 201 578 l 364 132 l 368 132 l 525 568 q 528 585 528 579 q 504 610 528 610 l 443 610 l 443 650 l 676 650 l 676 610 q 614 598 632 610 q 582 553 596 586 l 363 0 l 296 0 l 88 553 z "},"w":{"ha":981,"x_min":-3,"x_max":969,"o":"m 83 554 q 56 599 74 589 q -3 610 39 610 l -3 650 l 269 650 l 269 610 l 226 610 q 199 585 199 610 q 203 564 199 576 l 322 131 l 325 131 l 471 639 l 544 639 l 703 131 l 706 131 l 818 561 q 821 583 821 569 q 813 603 821 597 q 786 610 804 610 l 729 610 l 729 650 l 969 650 l 969 610 q 901 597 919 610 q 871 540 882 583 l 710 0 l 633 0 l 479 472 l 475 472 l 329 0 l 254 0 l 83 554 z "},"x":{"ha":688,"x_min":14,"x_max":674,"o":"m 560 99 q 603 53 582 65 q 674 40 625 40 l 674 0 l 374 0 l 374 40 l 418 40 q 442 58 442 40 q 432 86 442 71 l 310 271 l 186 85 q 179 63 179 74 q 186 47 179 53 q 206 40 193 40 l 246 40 l 246 0 l 14 0 l 14 40 q 86 53 58 40 q 139 100 114 65 l 288 304 l 117 563 q 78 601 96 592 q 19 610 60 610 l 19 650 l 286 650 l 286 610 l 256 610 q 233 592 233 610 q 240 572 233 583 l 354 403 l 471 575 q 479 594 479 586 q 458 610 479 610 l 415 610 l 415 650 l 633 650 l 633 610 q 564 600 586 610 q 519 561 542 590 l 376 371 l 560 99 z "},"y":{"ha":671,"x_min":-15,"x_max":661,"o":"m 661 650 l 661 610 q 608 604 625 610 q 581 585 590 599 q 558 539 571 571 l 306 -114 q 262 -216 279 -182 q 217 -272 244 -250 q 143 -293 189 -293 q 58 -265 90 -293 q 25 -194 25 -236 q 46 -139 25 -161 q 96 -117 67 -117 q 140 -133 121 -117 q 158 -176 158 -149 q 149 -210 158 -194 q 139 -233 139 -225 q 163 -250 139 -250 q 208 -226 190 -250 q 251 -133 226 -203 l 297 -11 l 82 544 q 49 598 67 586 q -15 610 32 610 l -15 650 l 276 650 l 276 610 l 229 610 q 199 586 199 610 q 203 564 199 576 l 353 143 l 354 143 l 510 563 q 514 585 514 575 q 482 610 514 610 l 425 610 l 425 650 l 661 650 z "},"ý":{"ha":671,"x_min":-15,"x_max":661,"o":"m 661 650 l 661 610 q 608 604 625 610 q 581 585 590 599 q 558 539 571 571 l 306 -114 q 262 -216 279 -182 q 217 -272 244 -250 q 143 -293 189 -293 q 58 -265 90 -293 q 25 -194 25 -236 q 46 -139 25 -161 q 96 -117 67 -117 q 140 -133 121 -117 q 158 -176 158 -149 q 149 -210 158 -194 q 139 -233 139 -225 q 163 -250 139 -250 q 208 -226 190 -250 q 251 -133 226 -203 l 297 -11 l 82 544 q 49 598 67 586 q -15 610 32 610 l -15 650 l 276 650 l 276 610 l 229 610 q 199 586 199 610 q 203 564 199 576 l 353 143 l 354 143 l 510 563 q 514 585 514 575 q 482 610 514 610 l 425 610 l 425 650 l 661 650 m 318 1003 q 344 1038 331 1026 q 376 1049 357 1049 q 411 1033 396 1049 q 426 997 426 1018 q 420 972 426 983 q 393 936 414 960 l 250 781 l 211 781 l 318 1003 z "},"ŷ":{"ha":671,"x_min":-15,"x_max":661,"o":"m 661 650 l 661 610 q 608 604 625 610 q 581 585 590 599 q 558 539 571 571 l 306 -114 q 262 -216 279 -182 q 217 -272 244 -250 q 143 -293 189 -293 q 58 -265 90 -293 q 25 -194 25 -236 q 46 -139 25 -161 q 96 -117 67 -117 q 140 -133 121 -117 q 158 -176 158 -149 q 149 -210 158 -194 q 139 -233 139 -225 q 163 -250 139 -250 q 208 -226 190 -250 q 251 -133 226 -203 l 297 -11 l 82 544 q 49 598 67 586 q -15 610 32 610 l -15 650 l 276 650 l 276 610 l 229 610 q 199 586 199 610 q 203 564 199 576 l 353 143 l 354 143 l 510 563 q 514 585 514 575 q 482 610 514 610 l 425 610 l 425 650 l 661 650 m 274 983 l 367 983 l 503 769 l 450 769 l 317 899 l 188 769 l 135 769 l 274 983 z "},"ÿ":{"ha":671,"x_min":-15,"x_max":661,"o":"m 661 650 l 661 610 q 608 604 625 610 q 581 585 590 599 q 558 539 571 571 l 306 -114 q 262 -216 279 -182 q 217 -272 244 -250 q 143 -293 189 -293 q 58 -265 90 -293 q 25 -194 25 -236 q 46 -139 25 -161 q 96 -117 67 -117 q 140 -133 121 -117 q 158 -176 158 -149 q 149 -210 158 -194 q 139 -233 139 -225 q 163 -250 139 -250 q 208 -226 190 -250 q 251 -133 226 -203 l 297 -11 l 82 544 q 49 598 67 586 q -15 610 32 610 l -15 650 l 276 650 l 276 610 l 229 610 q 199 586 199 610 q 203 564 199 576 l 353 143 l 354 143 l 510 563 q 514 585 514 575 q 482 610 514 610 l 425 610 l 425 650 l 661 650 m 199 797 q 151 817 171 797 q 131 864 131 836 q 151 912 131 892 q 199 932 171 932 q 247 912 226 932 q 267 864 267 892 q 247 817 267 836 q 199 797 226 797 m 439 797 q 391 817 411 797 q 371 864 371 836 q 391 912 371 892 q 439 932 411 932 q 487 912 467 932 q 507 864 507 892 q 487 817 507 836 q 439 797 467 797 z "},"ỳ":{"ha":671,"x_min":-15,"x_max":661,"o":"m 661 650 l 661 610 q 608 604 625 610 q 581 585 590 599 q 558 539 571 571 l 306 -114 q 262 -216 279 -182 q 217 -272 244 -250 q 143 -293 189 -293 q 58 -265 90 -293 q 25 -194 25 -236 q 46 -139 25 -161 q 96 -117 67 -117 q 140 -133 121 -117 q 158 -176 158 -149 q 149 -210 158 -194 q 139 -233 139 -225 q 163 -250 139 -250 q 208 -226 190 -250 q 251 -133 226 -203 l 297 -11 l 82 544 q 49 598 67 586 q -15 610 32 610 l -15 650 l 276 650 l 276 610 l 229 610 q 199 586 199 610 q 203 564 199 576 l 353 143 l 354 143 l 510 563 q 514 585 514 575 q 482 610 514 610 l 425 610 l 425 650 l 661 650 m 244 936 q 217 972 224 960 q 211 997 211 983 q 226 1033 211 1018 q 261 1049 242 1049 q 294 1038 281 1049 q 319 1003 307 1026 l 426 781 l 388 781 l 244 936 z "},"z":{"ha":647,"x_min":53,"x_max":604,"o":"m 53 42 l 453 607 l 315 607 q 210 594 246 607 q 160 549 175 581 q 133 454 144 518 l 96 454 l 101 650 l 583 650 l 583 608 l 183 44 l 361 44 q 474 58 435 44 q 535 106 514 72 q 568 206 556 139 l 604 206 l 590 0 l 53 0 l 53 42 z "},"ź":{"ha":647,"x_min":53,"x_max":604,"o":"m 53 42 l 453 607 l 315 607 q 210 594 246 607 q 160 549 175 581 q 133 454 144 518 l 96 454 l 101 650 l 583 650 l 583 608 l 183 44 l 361 44 q 474 58 435 44 q 535 106 514 72 q 568 206 556 139 l 604 206 l 590 0 l 53 0 l 53 42 m 328 1003 q 353 1038 340 1026 q 386 1049 367 1049 q 421 1033 406 1049 q 436 997 436 1018 q 430 972 436 983 q 403 936 424 960 l 260 781 l 221 781 l 328 1003 z "},"ž":{"ha":647,"x_min":53,"x_max":604,"o":"m 53 42 l 453 607 l 315 607 q 210 594 246 607 q 160 549 175 581 q 133 454 144 518 l 96 454 l 101 650 l 583 650 l 583 608 l 183 44 l 361 44 q 474 58 435 44 q 535 106 514 72 q 568 206 556 139 l 604 206 l 590 0 l 53 0 l 53 42 m 144 983 l 196 983 l 331 854 l 460 983 l 513 983 l 374 769 l 281 769 l 144 983 z "},"ż":{"ha":647,"x_min":53,"x_max":604,"o":"m 53 42 l 453 607 l 315 607 q 210 594 246 607 q 160 549 175 581 q 133 454 144 518 l 96 454 l 101 650 l 583 650 l 583 608 l 183 44 l 361 44 q 474 58 435 44 q 535 106 514 72 q 568 206 556 139 l 604 206 l 590 0 l 53 0 l 53 42 m 328 799 q 280 819 300 799 q 260 867 260 839 q 280 915 260 894 q 328 935 300 935 q 376 915 356 935 q 397 867 397 894 q 376 819 397 839 q 328 799 356 799 z "},"ﬁ":{"ha":767,"x_min":32,"x_max":746,"o":"m 650 115 q 656 65 650 81 q 681 45 661 50 q 746 40 700 40 l 746 0 l 436 0 l 436 40 q 501 46 482 40 q 526 66 521 51 q 532 115 532 81 l 532 540 q 524 590 532 578 q 492 601 517 601 l 247 601 l 247 114 q 254 64 247 78 q 285 45 261 50 q 367 40 308 40 l 367 0 l 33 0 l 33 40 q 99 46 79 40 q 124 66 118 51 q 129 115 129 81 l 129 601 l 32 601 l 32 650 l 129 650 l 129 713 q 203 907 129 835 q 415 979 276 979 q 573 942 518 979 q 628 849 628 904 q 610 797 628 817 q 563 776 593 776 q 519 792 536 776 q 501 836 501 808 q 514 874 501 858 q 526 894 526 889 q 500 922 526 910 q 425 935 474 935 q 295 894 343 935 q 247 751 247 853 l 247 650 l 538 650 l 611 661 l 650 661 l 650 115 z "},"ﬂ":{"ha":788,"x_min":32,"x_max":767,"o":"m 33 40 q 99 46 79 40 q 124 66 118 51 q 129 115 129 81 l 129 601 l 32 601 l 32 650 l 129 650 l 129 683 q 203 898 129 817 q 401 979 278 979 q 558 942 497 979 l 632 968 l 669 968 l 669 115 q 676 66 669 81 q 701 46 682 51 q 767 40 721 40 l 767 0 l 457 0 l 457 40 q 522 46 503 40 q 547 66 542 51 q 553 115 553 81 l 553 818 q 495 897 540 865 q 394 928 450 928 q 286 872 325 928 q 247 701 247 817 l 247 650 l 401 650 l 401 601 l 247 601 l 247 114 q 254 65 247 79 q 285 45 261 50 q 367 40 308 40 l 367 0 l 33 0 l 33 40 z "},"ª":{"ha":444,"x_min":40,"x_max":433,"o":"m 433 521 q 391 503 410 510 q 342 497 372 497 q 302 507 317 497 q 283 547 288 517 q 222 510 253 522 q 153 497 192 497 q 72 519 103 497 q 40 589 40 542 q 102 697 40 653 q 282 760 164 740 l 282 806 q 266 873 282 851 q 211 894 250 894 q 158 882 181 894 q 136 858 136 869 q 149 844 136 854 q 161 815 161 835 q 149 783 161 796 q 115 771 136 771 q 81 784 93 771 q 68 821 68 797 q 110 894 68 864 q 235 925 151 925 q 337 899 304 925 q 369 810 369 872 l 369 604 q 377 557 369 569 q 401 544 385 544 q 426 550 410 544 l 433 521 m 133 607 q 197 549 133 549 q 282 579 239 549 l 282 725 q 169 678 206 707 q 133 607 133 650 z "},"º":{"ha":488,"x_min":42,"x_max":444,"o":"m 243 496 q 93 552 144 496 q 42 710 42 608 q 95 868 42 811 q 243 925 149 925 q 393 869 342 925 q 444 710 444 813 q 392 551 444 607 q 243 496 339 496 m 243 526 q 320 572 296 526 q 347 710 344 618 q 320 847 344 800 q 243 894 296 894 q 166 848 190 894 q 140 710 142 801 q 166 572 142 618 q 243 526 190 526 z "},"π":{"ha":851,"x_min":54,"x_max":797,"o":"m 622 553 q 613 401 617 490 q 608 240 608 311 q 696 76 608 76 q 730 83 711 76 q 764 99 749 89 l 783 69 q 633 -17 718 -17 q 543 33 574 -17 q 513 204 513 82 q 547 553 513 371 l 358 553 q 346 345 357 454 q 325 179 335 236 q 193 -17 293 -17 q 142 31 142 -17 q 151 72 142 49 q 181 129 161 94 q 208 186 204 176 q 272 551 271 310 q 160 540 201 550 q 76 500 119 529 l 54 540 q 160 619 89 585 q 350 653 232 653 l 797 653 l 797 553 l 622 553 z "},"װ":{"ha":764,"x_min":46,"x_max":672,"o":"m 613 -4 q 586 -1 600 -4 l 586 7 q 593 26 592 14 q 594 79 594 39 l 594 524 q 586 587 594 572 q 546 606 578 601 l 479 615 q 428 682 428 622 q 468 814 428 739 l 490 814 l 490 796 q 497 767 490 775 q 525 757 504 760 l 585 749 q 635 721 622 743 q 651 646 649 699 l 669 93 q 659 21 672 46 q 613 -4 646 -4 m 231 -4 q 204 -1 218 -4 l 204 7 q 211 26 210 14 q 213 79 213 39 l 213 524 q 204 587 213 572 q 164 606 196 601 l 97 615 q 46 682 46 622 q 86 814 46 739 l 108 814 l 108 796 q 115 767 108 775 q 143 757 122 760 l 203 749 q 253 721 240 743 q 269 646 267 699 l 288 93 q 277 21 290 46 q 231 -4 264 -4 z "},"ױ":{"ha":750,"x_min":46,"x_max":703,"o":"m 538 394 q 613 470 588 429 q 639 553 639 511 q 626 597 639 583 q 583 611 614 611 l 482 611 q 426 628 442 611 q 410 685 410 646 q 417 744 410 717 q 433 790 425 771 q 443 814 440 808 l 467 814 l 467 793 q 474 767 467 775 q 504 758 482 758 l 611 758 q 663 744 644 758 q 689 713 682 729 q 699 669 694 699 q 703 611 703 640 q 675 486 703 539 q 617 407 647 433 q 553 357 588 381 l 538 394 m 231 -4 q 204 -1 218 -4 l 204 7 q 211 26 210 14 q 213 79 213 39 l 213 524 q 204 587 213 572 q 164 606 196 601 l 97 615 q 46 682 46 622 q 86 814 46 739 l 108 814 l 108 796 q 115 767 108 775 q 143 757 122 760 l 203 749 q 253 721 240 743 q 269 646 267 699 l 288 93 q 277 21 290 46 q 231 -4 264 -4 z "},"ײ":{"ha":758,"x_min":39,"x_max":711,"o":"m 546 394 q 622 470 596 429 q 647 553 647 511 q 635 597 647 583 q 592 611 622 611 l 490 611 q 434 628 450 611 q 418 685 418 646 q 426 744 418 717 q 441 790 433 771 q 451 814 449 808 l 475 814 l 475 793 q 483 767 475 775 q 513 758 490 758 l 619 758 q 672 744 653 758 q 697 713 690 729 q 707 669 703 699 q 711 611 711 640 q 683 486 711 539 q 626 407 656 433 q 561 357 596 381 l 546 394 m 167 394 q 242 470 217 429 q 268 553 268 511 q 256 597 268 583 q 213 611 243 611 l 111 611 q 55 628 71 611 q 39 685 39 646 q 47 744 39 717 q 62 790 54 771 q 72 814 69 808 l 96 814 l 96 793 q 103 767 96 775 q 133 758 111 758 l 240 758 q 292 744 274 758 q 318 713 311 729 q 328 669 324 699 q 332 611 332 640 q 304 486 332 539 q 247 407 276 433 q 182 357 217 381 l 167 394 z "},"ﭏ":{"ha":693,"x_min":40,"x_max":633,"o":"m 565 206 q 606 149 593 172 q 619 92 619 125 q 610 38 619 61 q 586 -11 601 15 l 569 -11 q 514 86 568 28 l 79 613 q 50 662 60 636 q 40 710 40 688 q 88 810 40 764 l 194 915 q 211 940 211 932 q 196 954 211 950 l 169 963 q 147 978 154 968 q 139 1013 139 988 q 147 1063 139 1038 q 161 1101 154 1088 l 182 1101 l 182 1082 q 200 1061 182 1065 l 265 1044 q 306 999 306 1035 q 276 933 308 968 l 164 796 q 143 746 143 771 q 174 676 143 715 l 403 400 q 422 467 406 426 q 460 543 439 508 l 504 614 l 472 618 q 415 693 415 628 q 453 819 415 744 l 475 819 l 475 794 q 483 769 475 776 q 507 760 490 763 l 572 751 q 619 723 606 747 q 633 668 633 699 q 626 619 633 643 q 613 583 619 596 l 599 583 q 585 598 594 593 q 558 606 576 603 l 547 607 l 506 532 q 469 453 481 489 q 458 385 458 418 q 468 322 458 361 l 565 206 z "},"א":{"ha":736,"x_min":60,"x_max":676,"o":"m 608 200 q 645 146 633 171 q 657 90 657 121 q 650 48 657 67 q 624 -11 643 29 l 607 -11 q 592 32 604 7 q 558 82 581 57 l 219 481 l 189 438 q 163 357 163 399 q 179 271 163 325 l 215 160 q 233 57 233 106 q 228 0 233 26 l 60 0 l 60 40 l 97 40 q 115 64 115 40 q 113 89 115 79 l 90 236 q 85 300 85 268 q 97 376 85 342 q 139 450 110 410 l 188 519 l 103 619 q 79 662 89 636 q 69 715 69 688 q 76 759 69 739 q 92 796 83 779 q 104 819 101 813 l 124 819 l 124 811 q 163 725 124 771 l 446 392 q 503 543 447 454 l 547 614 l 515 618 q 458 693 458 625 q 496 819 458 744 l 518 819 l 518 794 q 526 769 518 776 q 550 760 533 763 l 615 751 q 663 723 649 747 q 676 668 676 699 q 669 619 676 643 q 656 583 663 596 l 642 583 q 628 599 638 593 q 601 606 619 604 l 590 607 l 549 532 q 514 453 525 488 q 503 388 503 419 q 515 310 503 351 l 608 200 z "},"ב":{"ha":669,"x_min":53,"x_max":624,"o":"m 82 139 l 474 139 q 508 413 508 261 q 502 539 508 499 q 476 595 496 579 q 411 611 456 611 l 157 611 q 99 630 117 611 q 82 688 82 649 q 99 774 82 738 q 117 814 115 810 l 139 814 l 139 793 q 148 766 139 774 q 176 758 157 758 l 443 758 q 533 726 497 758 q 569 619 569 694 l 569 417 q 524 139 569 276 l 624 139 l 594 0 l 53 0 l 82 139 z "},"ג":{"ha":472,"x_min":32,"x_max":424,"o":"m 60 139 l 143 139 q 237 192 201 139 q 276 324 272 246 l 288 524 q 281 583 289 567 q 244 601 272 599 l 176 611 q 133 629 147 615 q 119 676 119 643 q 131 745 119 713 q 160 814 143 778 l 183 814 l 183 790 q 189 765 183 772 q 213 756 194 758 l 293 743 q 346 716 333 738 q 356 646 358 694 l 342 396 q 350 305 339 346 q 385 208 361 264 q 409 145 401 167 q 418 100 417 124 q 424 54 424 79 q 418 0 424 31 l 396 0 q 365 100 389 56 q 297 200 342 144 l 217 0 l 32 0 l 60 139 z "},"ד":{"ha":626,"x_min":32,"x_max":567,"o":"m 525 758 q 556 746 546 758 q 567 715 567 733 l 567 611 l 510 611 q 483 557 490 590 q 478 465 475 524 l 489 85 q 477 19 492 43 q 431 -6 463 -6 q 404 -3 418 -6 l 404 6 q 412 26 410 14 q 414 78 414 39 l 414 453 q 431 558 414 521 q 464 610 449 594 l 464 611 l 104 611 q 48 628 64 611 q 32 686 32 646 q 48 772 32 735 q 65 814 64 810 l 89 814 l 89 792 q 97 767 89 775 q 126 758 106 758 l 525 758 z "},"ה":{"ha":736,"x_min":88,"x_max":649,"o":"m 575 -6 q 549 -3 563 -6 l 549 6 q 556 26 554 14 q 557 78 557 38 l 557 453 q 565 535 557 501 q 581 586 572 568 q 594 610 590 604 l 594 611 l 160 611 q 103 628 119 611 q 88 683 88 644 q 103 773 88 736 q 121 814 119 810 l 144 814 l 144 799 q 152 767 144 775 q 182 758 160 758 l 628 758 q 649 739 649 758 l 649 617 l 642 611 q 617 508 617 593 q 618 468 617 482 l 632 92 q 575 -6 638 -6 m 125 -6 q 100 -3 111 -6 l 100 6 q 108 24 106 13 q 110 68 110 36 l 110 332 q 122 404 110 381 q 161 428 133 428 q 183 425 172 428 l 183 417 q 174 353 172 394 l 185 85 q 171 20 186 46 q 125 -6 156 -6 z "},"ו":{"ha":382,"x_min":46,"x_max":290,"o":"m 231 -4 q 204 -1 218 -4 l 204 7 q 211 26 210 14 q 213 79 213 39 l 213 524 q 204 587 213 572 q 164 606 196 601 l 97 615 q 46 682 46 622 q 86 814 46 739 l 108 814 l 108 796 q 115 767 108 775 q 143 757 122 760 l 203 749 q 253 721 240 743 q 269 646 267 699 l 288 93 q 277 21 290 46 q 231 -4 264 -4 z "},"ז":{"ha":353,"x_min":46,"x_max":293,"o":"m 192 600 q 182 522 182 567 q 188 460 182 489 l 258 97 q 263 58 263 76 q 208 -6 263 -6 l 182 -4 l 182 6 q 189 33 189 19 q 183 82 189 53 l 131 401 q 126 456 126 431 q 133 519 126 486 q 156 606 140 551 l 100 614 q 46 685 46 624 q 88 814 46 742 l 110 814 l 110 793 q 117 768 110 775 q 140 758 125 761 l 232 746 q 293 667 293 736 q 285 614 293 640 q 269 575 276 588 l 257 575 q 251 588 254 583 q 239 593 247 592 l 192 600 z "},"ח":{"ha":757,"x_min":94,"x_max":668,"o":"m 647 758 q 668 739 668 758 l 668 617 l 663 611 q 636 506 636 593 q 638 468 636 482 l 653 90 q 594 -6 658 -6 q 569 -3 583 -6 l 569 6 q 576 26 575 14 q 578 78 578 38 l 578 453 q 591 558 578 521 q 615 610 604 594 l 615 611 l 232 611 q 200 551 213 590 q 189 468 188 513 l 201 81 q 190 19 204 44 q 143 -6 175 -6 q 119 -3 131 -6 l 119 6 q 127 24 125 13 q 129 68 129 36 l 129 446 q 149 553 129 514 q 189 610 169 593 l 189 611 l 167 611 q 110 628 126 611 q 94 683 94 644 q 110 773 94 736 q 128 814 126 810 l 151 814 l 151 793 q 159 767 151 775 q 189 758 167 758 l 647 758 z "},"ט":{"ha":739,"x_min":60,"x_max":671,"o":"m 526 765 q 640 681 608 765 q 671 475 671 596 q 654 300 671 381 q 613 157 638 219 q 547 0 589 94 l 143 0 l 138 35 q 93 378 93 294 q 108 493 93 428 q 144 608 122 558 l 114 614 q 73 635 86 618 q 60 683 60 651 q 69 742 60 714 q 88 790 79 771 q 99 814 97 810 l 122 814 l 122 790 q 128 768 122 775 q 150 758 135 761 l 214 747 q 275 664 275 738 q 268 619 275 643 q 253 579 261 594 l 240 579 q 201 600 233 594 l 185 603 q 163 524 172 574 q 153 411 153 475 q 163 289 153 347 q 183 190 174 231 q 196 139 193 150 l 553 139 q 617 422 617 290 q 586 568 617 518 q 500 618 556 618 q 443 594 475 618 q 381 492 411 571 l 364 447 l 333 447 l 340 507 q 405 694 354 624 q 526 765 456 765 z "},"י":{"ha":379,"x_min":39,"x_max":332,"o":"m 167 394 q 242 470 217 429 q 268 553 268 511 q 256 597 268 583 q 213 611 243 611 l 111 611 q 55 628 71 611 q 39 685 39 646 q 47 744 39 717 q 62 790 54 771 q 72 814 69 808 l 96 814 l 96 793 q 103 767 96 775 q 133 758 111 758 l 240 758 q 292 744 274 758 q 318 713 311 729 q 328 669 324 699 q 332 611 332 640 q 304 486 332 539 q 247 407 276 433 q 182 357 217 381 l 167 394 z "},"ך":{"ha":671,"x_min":46,"x_max":585,"o":"m 524 -222 q 497 -219 511 -222 l 497 -211 q 503 -188 501 -201 q 506 -136 506 -175 l 506 539 q 492 597 506 582 q 443 611 478 611 l 118 611 q 62 628 78 611 q 46 683 46 644 q 62 773 46 736 q 79 814 78 810 l 103 814 l 103 793 q 110 767 103 775 q 140 758 118 758 l 522 758 q 564 742 550 758 q 578 699 578 725 q 572 653 578 689 q 563 539 561 593 l 583 -128 q 571 -198 585 -174 q 524 -222 557 -222 z "},"כ":{"ha":661,"x_min":53,"x_max":594,"o":"m 82 139 l 376 139 q 501 199 465 139 q 536 368 536 258 q 494 549 536 486 q 357 611 453 611 l 150 611 q 94 628 110 611 q 78 683 78 644 q 111 814 78 740 l 135 814 l 135 793 q 142 767 135 775 q 172 758 150 758 l 407 758 q 539 682 503 758 q 576 568 557 647 q 594 371 594 489 q 514 57 594 149 q 463 15 490 29 q 406 0 435 0 l 53 0 l 82 139 z "},"ל":{"ha":675,"x_min":32,"x_max":615,"o":"m 304 -14 q 261 6 278 -14 q 244 58 244 26 q 273 147 244 103 q 343 226 301 190 l 482 356 q 520 421 510 382 q 531 507 531 460 q 513 588 531 564 q 439 611 496 611 l 128 611 q 82 631 96 611 q 68 692 68 651 q 103 885 68 750 l 114 935 l 115 944 q 96 965 115 961 l 61 972 q 40 988 49 975 q 32 1022 32 1001 q 44 1081 32 1053 q 57 1111 56 1108 l 79 1111 l 79 1090 q 83 1077 79 1082 q 97 1071 88 1072 l 149 1060 q 186 1008 186 1051 q 160 919 186 981 q 138 860 146 883 q 131 814 131 836 q 149 771 131 783 q 208 758 167 758 l 518 758 q 586 725 564 758 q 615 571 615 682 q 599 440 615 507 q 532 328 582 372 l 389 196 q 354 156 364 172 q 344 124 344 140 q 350 92 344 114 q 354 73 351 86 q 357 49 357 60 q 342 3 357 19 q 304 -14 326 -14 z "},"ם":{"ha":747,"x_min":74,"x_max":653,"o":"m 108 458 q 122 544 108 508 q 164 610 136 579 l 164 611 l 142 611 q 90 628 106 611 q 74 681 74 646 q 89 767 74 726 q 107 814 104 807 l 131 814 l 131 799 q 139 767 131 776 q 168 758 147 758 l 535 758 q 619 726 585 758 q 653 614 653 693 l 653 0 l 108 0 l 108 458 m 593 139 l 593 508 q 510 611 593 611 l 213 611 q 179 550 190 583 q 168 458 168 517 l 168 171 q 175 145 168 151 q 199 139 182 139 l 593 139 z "},"מ":{"ha":746,"x_min":60,"x_max":679,"o":"m 74 0 q 101 310 76 200 q 168 507 125 421 l 197 567 q 203 582 203 578 q 183 597 203 594 l 113 610 q 60 683 60 619 q 69 740 60 713 q 87 788 78 768 q 99 814 96 807 l 122 814 l 122 790 q 128 764 122 772 q 150 753 135 756 l 206 744 q 265 663 265 733 q 251 593 265 625 l 256 592 q 332 660 292 613 q 385 768 372 707 l 397 768 q 486 751 433 768 q 578 700 539 733 q 656 572 632 653 q 679 392 679 490 q 669 237 679 318 q 640 47 658 156 q 633 0 639 31 l 276 0 l 304 139 l 608 139 q 622 335 622 239 q 577 531 622 458 q 432 604 532 604 q 303 568 357 604 q 217 478 250 532 q 151 304 175 415 q 126 0 126 193 l 74 0 z "},"ן":{"ha":318,"x_min":25,"x_max":251,"o":"m 150 -222 q 124 -219 138 -222 l 124 -211 q 131 -192 129 -204 q 132 -139 132 -179 l 132 443 q 138 502 132 482 q 158 549 144 522 q 172 590 172 572 q 167 607 172 603 q 146 611 161 611 l 89 611 q 41 628 57 611 q 25 686 25 646 q 33 744 25 717 q 48 790 40 771 q 58 814 56 808 l 82 814 l 82 793 q 90 767 82 775 q 117 758 99 758 l 210 758 q 251 710 251 758 l 251 657 q 244 618 251 636 q 228 583 238 600 q 215 557 219 567 q 193 444 192 511 l 207 -126 q 196 -197 208 -171 q 150 -222 183 -222 z "},"נ":{"ha":464,"x_min":39,"x_max":397,"o":"m 65 139 l 314 139 q 306 184 313 150 q 297 253 300 218 q 293 324 293 288 q 294 369 293 353 l 303 526 q 297 583 306 568 q 257 603 288 599 l 193 611 q 149 629 163 615 q 135 676 135 643 q 146 742 135 711 q 176 814 157 774 l 199 814 l 199 790 q 204 765 199 772 q 229 756 210 758 l 311 743 q 359 720 346 738 q 372 667 372 703 l 371 640 l 356 374 q 361 287 354 329 q 381 194 368 244 q 390 153 382 186 q 397 97 397 121 q 391 44 397 76 q 383 0 385 11 l 39 0 l 65 139 z "},"ס":{"ha":704,"x_min":69,"x_max":638,"o":"m 582 682 q 619 575 601 647 q 638 388 638 503 q 571 88 638 192 q 353 -15 504 -15 q 140 74 210 -15 q 69 324 69 163 q 94 488 69 422 q 158 608 118 553 l 158 611 l 142 611 q 85 628 101 611 q 69 683 69 644 q 103 814 69 740 l 126 814 l 126 793 q 135 767 126 775 q 164 758 143 758 l 449 758 q 582 682 542 758 m 351 125 q 581 379 581 125 q 537 548 581 485 q 401 611 493 611 l 204 611 q 156 518 179 579 q 133 368 133 457 q 187 184 133 243 q 351 125 240 125 z "},"ע":{"ha":660,"x_min":60,"x_max":614,"o":"m 556 747 q 601 726 588 742 q 614 678 614 710 l 614 638 q 597 554 614 597 l 556 457 q 523 369 536 410 q 510 283 510 329 l 510 257 q 458 96 510 156 q 293 -19 406 36 l 94 -119 l 94 29 l 296 129 q 254 263 292 211 l 178 364 q 136 490 136 417 q 156 607 136 544 l 114 614 q 73 635 86 618 q 60 683 60 651 q 69 742 60 714 q 88 790 79 771 q 99 814 97 810 l 122 814 l 122 790 q 128 768 122 775 q 150 758 135 761 l 211 747 q 275 664 275 738 q 268 619 275 643 q 253 579 261 594 l 240 579 q 217 596 233 594 l 192 600 q 186 556 186 569 q 231 443 186 500 l 294 363 q 341 263 332 315 q 349 156 350 210 l 367 164 q 408 206 396 179 q 431 288 419 233 q 464 403 444 360 l 532 551 q 542 583 542 574 q 525 603 542 601 l 460 614 q 417 633 431 619 q 404 679 404 647 q 417 751 404 713 q 444 814 431 790 l 467 814 l 467 793 q 473 767 467 774 q 500 757 479 760 l 556 747 z "},"ף":{"ha":674,"x_min":39,"x_max":582,"o":"m 579 -126 q 522 -222 582 -222 q 496 -219 510 -222 l 496 -211 q 503 -192 501 -204 q 504 -139 504 -179 l 504 485 q 479 583 504 554 q 394 611 454 611 l 183 611 q 135 533 156 581 q 115 447 115 486 l 186 447 q 237 435 222 447 q 251 389 251 422 l 251 303 l 228 303 q 158 342 214 342 q 111 329 128 342 q 94 296 94 317 l 49 296 q 46 353 46 335 q 74 506 46 436 q 131 610 103 575 l 131 611 l 111 611 q 55 628 71 611 q 39 683 39 644 q 55 773 39 736 q 72 814 71 810 l 96 814 l 96 799 q 103 767 96 775 q 133 758 111 758 l 410 758 q 501 740 468 758 q 548 679 533 722 q 565 554 563 636 l 579 -126 z "},"פ":{"ha":701,"x_min":64,"x_max":638,"o":"m 579 686 q 618 568 599 647 q 638 383 638 489 q 621 204 638 296 q 569 0 604 113 l 64 0 l 93 139 l 478 139 q 579 369 579 139 q 546 551 579 492 q 440 611 513 611 l 232 611 q 185 533 206 582 q 164 447 164 485 l 235 447 q 285 435 271 447 q 300 389 300 422 l 300 303 l 276 303 q 207 342 263 342 q 160 329 176 342 q 143 296 143 317 l 97 296 q 94 353 94 335 q 123 506 94 436 q 179 610 151 575 l 179 611 l 158 611 q 102 628 118 611 q 86 683 86 644 q 102 773 86 736 q 119 814 118 810 l 143 814 l 143 799 q 151 767 143 775 q 181 758 158 758 l 446 758 q 528 741 496 758 q 579 686 560 724 z "},"ץ":{"ha":596,"x_min":32,"x_max":578,"o":"m 518 749 q 565 722 551 744 q 578 671 578 699 q 557 581 578 636 l 543 581 q 525 599 539 597 l 493 603 l 313 371 q 250 267 274 324 q 226 171 226 211 l 263 -115 q 265 -144 265 -135 q 251 -201 265 -181 q 206 -222 236 -222 q 179 -219 193 -222 l 179 -211 q 187 -198 185 -204 q 189 -179 189 -192 l 186 -139 l 140 408 q 139 438 139 418 q 160 557 139 510 q 171 594 171 581 q 166 608 171 604 q 146 611 161 611 l 96 611 q 48 628 64 611 q 32 686 32 646 q 40 744 32 717 q 55 790 47 771 q 65 814 63 808 l 89 814 l 89 799 q 97 767 89 775 q 124 758 104 758 l 210 758 q 253 710 253 758 l 253 661 q 246 625 253 640 q 230 594 239 610 q 215 569 221 579 q 193 467 193 525 q 197 410 193 442 l 208 319 q 304 444 229 351 l 440 610 l 407 614 q 356 686 356 619 q 393 814 356 744 l 415 814 l 415 790 q 423 767 415 774 q 447 757 431 760 l 518 749 z "},"צ":{"ha":663,"x_min":60,"x_max":601,"o":"m 456 507 q 421 433 433 476 q 408 350 408 390 l 535 243 q 578 146 578 207 q 569 90 578 126 l 546 0 l 76 0 l 103 138 l 454 138 q 458 156 458 149 q 426 208 458 181 l 268 343 q 223 401 235 372 q 211 471 211 429 l 211 585 q 206 606 211 600 q 186 611 201 611 l 124 611 q 76 628 92 611 q 60 686 60 646 q 67 744 60 717 q 83 790 75 771 q 93 814 90 808 l 117 814 l 117 799 q 124 767 117 775 q 151 758 132 758 l 222 758 q 253 745 242 758 q 265 707 265 732 l 265 532 q 273 478 265 497 q 296 444 281 458 l 347 401 q 372 469 353 432 q 418 542 390 507 l 474 611 l 439 617 q 385 690 385 626 q 403 774 385 738 q 422 814 421 810 l 444 814 l 444 793 q 452 767 444 775 q 476 757 460 760 l 539 749 q 587 721 572 744 q 601 667 601 697 q 594 617 601 642 q 581 579 588 593 l 568 579 q 560 594 564 589 q 549 600 556 599 l 524 604 l 456 507 z "},"ק":{"ha":694,"x_min":74,"x_max":635,"o":"m 294 -14 q 261 17 261 -14 l 261 49 q 276 126 261 97 q 332 188 290 154 l 503 328 q 549 385 538 354 q 561 465 561 415 q 536 576 561 542 q 447 611 511 611 l 146 611 q 90 628 106 611 q 74 683 74 644 q 90 773 74 736 q 107 814 106 810 l 131 814 l 131 799 q 138 767 131 775 q 168 758 146 758 l 489 758 q 586 717 551 758 q 623 647 611 692 q 635 528 635 601 q 614 379 635 433 q 535 279 593 325 l 372 146 q 333 102 343 122 q 324 40 324 82 l 324 17 q 294 -14 324 -14 m 111 -222 q 86 -219 97 -222 l 86 -211 q 94 -192 92 -204 q 96 -149 96 -181 l 96 335 q 149 431 96 431 q 171 428 160 431 l 171 419 q 161 354 161 400 l 168 -132 q 155 -197 168 -172 q 111 -222 142 -222 z "},"ר":{"ha":663,"x_min":32,"x_max":572,"o":"m 510 -4 q 483 -1 497 -4 l 483 7 q 491 27 489 14 q 493 79 493 40 l 493 513 q 470 590 493 568 q 392 611 447 611 l 104 611 q 48 628 64 611 q 32 683 32 644 q 48 773 32 736 q 65 814 64 810 l 89 814 l 89 793 q 97 767 89 775 q 126 758 104 758 l 392 758 q 515 721 479 758 q 553 590 550 683 l 567 93 q 510 -4 572 -4 z "},"ש":{"ha":851,"x_min":53,"x_max":797,"o":"m 736 749 q 782 731 767 744 q 797 683 797 717 l 797 647 q 789 591 797 622 q 769 538 781 560 l 694 371 q 582 65 618 232 l 568 0 l 163 0 q 115 224 132 129 q 97 383 97 318 q 140 608 97 486 l 107 614 q 66 635 79 618 q 53 683 53 651 q 63 742 53 714 q 81 790 72 771 q 92 814 90 810 l 115 814 l 115 792 q 122 767 115 775 q 143 757 128 760 l 201 747 q 265 664 265 738 q 259 619 265 643 q 244 579 253 596 l 232 579 q 201 597 224 594 l 181 601 q 165 529 172 579 q 157 426 157 479 q 173 275 157 338 q 217 138 189 213 l 256 138 l 410 610 l 383 614 q 342 635 356 618 q 329 683 329 651 q 339 742 329 714 q 358 790 349 771 q 368 814 367 810 l 392 814 l 392 792 q 398 768 392 775 q 419 758 404 761 l 481 747 q 544 664 544 738 q 538 619 544 643 q 522 579 531 594 l 510 579 q 497 592 507 588 q 468 599 488 596 l 458 600 l 308 138 l 525 138 q 570 257 546 203 q 636 396 594 311 l 657 436 l 721 560 q 728 585 728 576 q 711 604 728 600 l 649 617 q 606 636 619 622 q 593 681 593 650 q 606 752 593 714 q 633 814 619 790 l 657 814 l 657 794 q 663 767 657 774 q 689 757 669 760 l 736 749 z "},"ת":{"ha":786,"x_min":32,"x_max":696,"o":"m 693 93 q 635 -4 696 -4 q 608 -1 625 -4 l 608 7 q 616 27 614 14 q 618 79 618 40 l 618 513 q 595 590 618 568 q 518 611 572 611 l 294 611 q 267 574 285 607 q 237 490 250 540 q 224 388 224 440 q 243 229 224 335 q 260 101 260 135 q 232 0 260 49 l 32 0 l 58 139 l 165 139 q 163 246 167 174 q 160 358 160 318 q 161 413 160 396 q 232 608 168 513 l 232 611 l 188 611 q 131 628 147 611 q 115 683 115 644 q 131 773 115 736 q 149 814 147 810 l 172 814 l 172 799 q 180 767 172 775 q 210 758 188 758 l 518 758 q 640 721 606 758 q 678 590 675 683 l 693 93 z "},"ﬠ":{"ha":676,"x_min":53,"x_max":631,"o":"m 568 749 q 616 726 601 743 q 631 678 631 710 l 631 638 q 614 554 631 597 l 572 457 q 540 364 553 404 q 528 281 528 324 l 528 242 q 474 65 528 129 q 306 0 419 0 l 53 0 l 81 139 l 283 139 q 253 265 283 217 l 185 364 q 142 508 142 429 q 157 608 142 556 l 121 614 q 80 635 93 618 q 67 683 67 651 q 76 741 67 713 q 95 789 86 769 q 107 814 104 808 l 129 814 l 129 790 q 135 768 129 775 q 157 758 142 761 l 218 747 q 282 664 282 738 q 275 619 282 643 q 260 579 268 594 l 247 579 q 221 597 242 593 l 197 601 q 194 571 194 579 q 205 512 194 542 q 239 444 215 482 l 289 367 q 336 139 336 289 l 354 139 q 401 156 383 139 q 426 200 418 174 q 446 276 435 226 q 463 346 453 310 q 486 411 472 382 l 549 551 q 556 581 556 568 q 543 603 556 601 l 476 614 q 434 633 447 619 q 421 678 421 647 q 461 814 421 733 l 483 814 l 483 793 q 490 767 483 774 q 517 757 496 760 l 568 749 z "},"ﬡ":{"ha":1168,"x_min":60,"x_max":1108,"o":"m 1050 210 q 1108 96 1108 175 q 1076 -11 1108 42 l 1057 -11 q 1049 35 1058 11 q 1011 75 1039 58 l 256 524 l 194 436 q 168 354 168 399 q 181 268 168 328 l 210 160 q 228 57 228 90 q 222 0 229 38 l 60 0 l 60 40 l 97 40 q 115 64 115 40 q 113 89 115 69 l 93 233 q 89 294 89 267 q 101 373 89 339 q 143 447 114 407 l 214 549 l 133 596 q 78 704 78 631 q 111 814 78 754 l 131 814 l 131 807 q 139 765 131 783 q 176 726 147 746 l 854 326 q 900 489 857 417 l 964 611 l 932 615 q 875 690 875 625 q 886 753 875 724 q 913 814 897 783 l 935 814 l 935 792 q 942 767 935 774 q 967 757 950 760 l 1032 749 q 1079 720 1065 744 q 1093 665 1093 696 q 1085 617 1093 642 q 1072 581 1078 593 l 1058 581 q 1046 594 1054 590 q 1015 603 1038 599 l 1010 604 l 964 519 q 922 376 922 438 q 935 278 922 340 l 1050 210 z "},"ﬢ":{"ha":1078,"x_min":32,"x_max":1018,"o":"m 976 758 q 1008 746 997 758 q 1018 715 1018 733 l 1018 614 l 961 614 q 934 560 942 593 q 929 468 926 526 l 940 85 q 928 19 943 43 q 882 -6 914 -6 q 856 -3 869 -6 l 856 6 q 863 26 861 14 q 865 78 865 39 l 865 456 q 881 561 865 524 q 911 613 897 599 l 911 614 l 104 614 q 48 631 64 614 q 32 686 32 647 q 48 772 32 735 q 65 814 64 810 l 89 814 l 89 792 q 97 767 89 775 q 126 758 106 758 l 976 758 z "},"ﬣ":{"ha":1199,"x_min":99,"x_max":1111,"o":"m 1038 -6 q 1011 -3 1025 -6 l 1011 6 q 1019 27 1017 14 q 1019 78 1021 40 l 1019 457 q 1031 565 1019 526 q 1053 615 1043 603 l 1053 617 l 171 617 q 115 633 131 617 q 99 688 99 650 q 115 778 99 740 q 132 819 131 815 l 156 819 l 156 801 q 163 769 156 778 q 193 761 171 761 l 1090 761 q 1111 742 1111 761 l 1111 621 l 1104 617 q 1079 513 1079 600 q 1081 474 1079 488 l 1094 92 q 1038 -6 1100 -6 m 131 -6 q 106 -3 117 -6 l 106 6 q 113 24 111 13 q 115 68 115 36 l 115 335 q 168 431 115 431 q 192 428 181 431 l 192 419 q 182 354 181 397 l 189 85 q 175 19 189 44 q 131 -6 161 -6 z "},"ﬤ":{"ha":1121,"x_min":53,"x_max":1054,"o":"m 78 138 l 836 138 q 961 197 925 138 q 997 365 997 257 q 955 550 997 486 q 818 614 913 614 l 150 614 q 94 631 110 614 q 78 685 78 647 q 88 754 78 724 q 111 814 97 785 l 135 814 l 135 793 q 142 767 135 775 q 171 758 150 758 l 867 758 q 999 682 963 758 q 1035 568 1017 647 q 1054 368 1054 489 q 974 57 1054 149 q 922 15 950 29 q 865 0 894 0 l 53 0 l 78 138 z "},"ﬥ":{"ha":1144,"x_min":32,"x_max":1083,"o":"m 772 -14 q 729 6 746 -14 q 713 60 713 26 q 811 226 713 138 l 950 356 q 990 420 979 382 q 1000 507 1000 458 q 983 590 1000 565 q 907 614 965 614 l 128 614 q 82 634 96 614 q 68 693 68 654 q 101 882 68 751 q 114 933 111 913 l 115 943 q 97 965 115 961 l 61 972 q 40 988 49 975 q 32 1022 32 1001 q 44 1081 32 1053 q 57 1111 56 1108 l 79 1111 l 79 1090 q 83 1077 79 1082 q 97 1071 88 1072 l 149 1060 q 186 1010 186 1051 q 179 970 186 993 q 167 934 172 947 q 160 915 161 921 q 131 815 131 851 q 149 772 129 785 q 208 758 168 758 l 986 758 q 1054 725 1035 758 q 1083 572 1083 686 q 1067 440 1083 508 q 1001 328 1050 372 l 858 196 q 824 156 833 172 q 814 125 814 140 q 819 90 814 113 q 825 47 825 65 q 810 3 825 19 q 772 -14 794 -14 z "},"ﬦ":{"ha":1185,"x_min":74,"x_max":1090,"o":"m 108 460 q 122 546 108 511 q 164 611 135 581 l 164 614 l 142 614 q 89 630 104 614 q 74 681 74 646 q 89 767 74 726 q 107 814 104 807 l 131 814 l 131 799 q 139 767 131 776 q 168 758 147 758 l 972 758 q 1056 726 1022 758 q 1090 614 1090 693 l 1090 0 l 108 0 l 108 460 m 1031 140 l 1031 511 q 947 614 1031 614 l 213 614 q 179 551 190 585 q 168 460 168 518 l 168 172 q 175 147 168 153 q 199 140 182 140 l 1031 140 z "},"ﬧ":{"ha":1119,"x_min":32,"x_max":1026,"o":"m 968 -4 q 943 -1 954 -4 l 943 7 q 951 26 949 14 q 953 68 953 38 l 953 513 q 928 591 953 568 q 853 614 904 614 l 104 614 q 48 631 64 614 q 32 685 32 647 q 48 775 32 738 q 65 817 64 813 l 89 817 l 89 793 q 97 767 89 775 q 126 758 104 758 l 854 758 q 979 712 942 758 q 1018 578 1017 665 l 1025 81 q 1013 20 1026 44 q 968 -4 999 -4 z "},"ﬨ":{"ha":1247,"x_min":32,"x_max":1157,"o":"m 1151 93 q 1093 -4 1157 -4 q 1068 -1 1082 -4 l 1068 7 q 1075 26 1074 14 q 1076 79 1076 39 l 1076 515 q 1053 591 1076 569 q 976 614 1031 613 l 294 614 q 267 576 285 608 q 237 496 250 544 q 224 393 224 447 q 243 231 224 339 q 260 101 260 133 q 232 0 260 49 l 32 0 l 58 140 l 156 140 q 169 189 169 150 q 168 230 169 207 q 165 276 167 253 q 160 386 160 357 q 179 503 160 450 q 235 611 199 556 l 235 614 l 189 614 q 130 630 147 614 q 113 683 113 646 q 129 771 113 733 q 149 814 146 808 l 174 814 l 174 793 q 183 767 174 775 q 214 758 192 758 l 976 758 q 1099 721 1064 758 q 1136 590 1133 683 l 1151 93 z "},"שׁ":{"ha":851,"x_min":53,"x_max":797,"o":"m 736 749 q 782 731 767 744 q 797 683 797 717 l 797 647 q 789 591 797 622 q 769 538 781 560 l 694 371 q 582 65 618 232 l 568 0 l 163 0 q 115 224 132 129 q 97 383 97 318 q 140 608 97 486 l 107 614 q 66 635 79 618 q 53 683 53 651 q 63 742 53 714 q 81 790 72 771 q 92 814 90 810 l 115 814 l 115 792 q 122 767 115 775 q 143 757 128 760 l 201 747 q 265 664 265 738 q 259 619 265 643 q 244 579 253 596 l 232 579 q 201 597 224 594 l 181 601 q 165 529 172 579 q 157 426 157 479 q 173 275 157 338 q 217 138 189 213 l 256 138 l 410 610 l 383 614 q 342 635 356 618 q 329 683 329 651 q 339 742 329 714 q 358 790 349 771 q 368 814 367 810 l 392 814 l 392 792 q 398 768 392 775 q 419 758 404 761 l 481 747 q 544 664 544 738 q 538 619 544 643 q 522 579 531 594 l 510 579 q 497 592 507 588 q 468 599 488 596 l 458 600 l 308 138 l 525 138 q 570 257 546 203 q 636 396 594 311 l 657 436 l 721 560 q 728 585 728 576 q 711 604 728 600 l 649 617 q 606 636 619 622 q 593 681 593 650 q 606 752 593 714 q 633 814 619 790 l 657 814 l 657 794 q 663 767 657 774 q 689 757 669 760 l 736 749 m 710 849 q 674 863 689 849 q 660 899 660 878 q 674 934 660 919 q 710 949 689 949 q 746 934 731 949 q 761 899 761 919 q 746 863 761 878 q 710 849 731 849 z "},"שׂ":{"ha":851,"x_min":53,"x_max":797,"o":"m 736 749 q 782 731 767 744 q 797 683 797 717 l 797 647 q 789 591 797 622 q 769 538 781 560 l 694 371 q 582 65 618 232 l 568 0 l 163 0 q 115 224 132 129 q 97 383 97 318 q 140 608 97 486 l 107 614 q 66 635 79 618 q 53 683 53 651 q 63 742 53 714 q 81 790 72 771 q 92 814 90 810 l 115 814 l 115 792 q 122 767 115 775 q 143 757 128 760 l 201 747 q 265 664 265 738 q 259 619 265 643 q 244 579 253 596 l 232 579 q 201 597 224 594 l 181 601 q 165 529 172 579 q 157 426 157 479 q 173 275 157 338 q 217 138 189 213 l 256 138 l 410 610 l 383 614 q 342 635 356 618 q 329 683 329 651 q 339 742 329 714 q 358 790 349 771 q 368 814 367 810 l 392 814 l 392 792 q 398 768 392 775 q 419 758 404 761 l 481 747 q 544 664 544 738 q 538 619 544 643 q 522 579 531 594 l 510 579 q 497 592 507 588 q 468 599 488 596 l 458 600 l 308 138 l 525 138 q 570 257 546 203 q 636 396 594 311 l 657 436 l 721 560 q 728 585 728 576 q 711 604 728 600 l 649 617 q 606 636 619 622 q 593 681 593 650 q 606 752 593 714 q 633 814 619 790 l 657 814 l 657 794 q 663 767 657 774 q 689 757 669 760 l 736 749 m 167 849 q 131 863 146 849 q 117 899 117 878 q 131 934 117 919 q 167 949 146 949 q 203 934 188 949 q 218 899 218 919 q 203 863 218 878 q 167 849 188 849 z "},"שּׁ":{"ha":851,"x_min":53,"x_max":797,"o":"m 736 749 q 782 731 767 744 q 797 683 797 717 l 797 647 q 789 591 797 622 q 769 538 781 560 l 694 371 q 582 65 618 232 l 568 0 l 163 0 q 115 224 132 129 q 97 383 97 318 q 140 608 97 486 l 107 614 q 66 635 79 618 q 53 683 53 651 q 63 742 53 714 q 81 790 72 771 q 92 814 90 810 l 115 814 l 115 792 q 122 767 115 775 q 143 757 128 760 l 201 747 q 265 664 265 738 q 259 619 265 643 q 244 579 253 596 l 232 579 q 201 597 224 594 l 181 601 q 165 529 172 579 q 157 426 157 479 q 173 275 157 338 q 217 138 189 213 l 256 138 l 410 610 l 383 614 q 342 635 356 618 q 329 683 329 651 q 339 742 329 714 q 358 790 349 771 q 368 814 367 810 l 392 814 l 392 792 q 398 768 392 775 q 419 758 404 761 l 481 747 q 544 664 544 738 q 538 619 544 643 q 522 579 531 594 l 510 579 q 497 592 507 588 q 468 599 488 596 l 458 600 l 308 138 l 525 138 q 570 257 546 203 q 636 396 594 311 l 657 436 l 721 560 q 728 585 728 576 q 711 604 728 600 l 649 617 q 606 636 619 622 q 593 681 593 650 q 606 752 593 714 q 633 814 619 790 l 657 814 l 657 794 q 663 767 657 774 q 689 757 669 760 l 736 749 m 504 338 q 469 351 483 338 q 454 386 454 365 q 469 422 454 408 q 504 436 483 436 q 540 422 525 436 q 556 386 556 407 q 540 351 556 365 q 504 338 525 338 m 710 849 q 674 863 689 849 q 660 899 660 878 q 674 934 660 919 q 710 949 689 949 q 746 934 731 949 q 761 899 761 919 q 746 863 761 878 q 710 849 731 849 z "},"שּׂ":{"ha":851,"x_min":53,"x_max":797,"o":"m 736 749 q 782 731 767 744 q 797 683 797 717 l 797 647 q 789 591 797 622 q 769 538 781 560 l 694 371 q 582 65 618 232 l 568 0 l 163 0 q 115 224 132 129 q 97 383 97 318 q 140 608 97 486 l 107 614 q 66 635 79 618 q 53 683 53 651 q 63 742 53 714 q 81 790 72 771 q 92 814 90 810 l 115 814 l 115 792 q 122 767 115 775 q 143 757 128 760 l 201 747 q 265 664 265 738 q 259 619 265 643 q 244 579 253 596 l 232 579 q 201 597 224 594 l 181 601 q 165 529 172 579 q 157 426 157 479 q 173 275 157 338 q 217 138 189 213 l 256 138 l 410 610 l 383 614 q 342 635 356 618 q 329 683 329 651 q 339 742 329 714 q 358 790 349 771 q 368 814 367 810 l 392 814 l 392 792 q 398 768 392 775 q 419 758 404 761 l 481 747 q 544 664 544 738 q 538 619 544 643 q 522 579 531 594 l 510 579 q 497 592 507 588 q 468 599 488 596 l 458 600 l 308 138 l 525 138 q 570 257 546 203 q 636 396 594 311 l 657 436 l 721 560 q 728 585 728 576 q 711 604 728 600 l 649 617 q 606 636 619 622 q 593 681 593 650 q 606 752 593 714 q 633 814 619 790 l 657 814 l 657 794 q 663 767 657 774 q 689 757 669 760 l 736 749 m 504 338 q 469 351 483 338 q 454 386 454 365 q 469 422 454 408 q 504 436 483 436 q 540 422 525 436 q 556 386 556 407 q 540 351 556 365 q 504 338 525 338 m 167 849 q 131 863 146 849 q 117 899 117 878 q 131 934 117 919 q 167 949 146 949 q 203 934 188 949 q 218 899 218 919 q 203 863 218 878 q 167 849 188 849 z "},"אַ":{"ha":736,"x_min":60,"x_max":676,"o":"m 608 200 q 645 146 633 171 q 657 90 657 121 q 650 48 657 67 q 624 -11 643 29 l 607 -11 q 592 32 604 7 q 558 82 581 57 l 219 481 l 189 438 q 163 357 163 399 q 179 271 163 325 l 215 160 q 233 57 233 106 q 228 0 233 26 l 60 0 l 60 40 l 97 40 q 115 64 115 40 q 113 89 115 79 l 90 236 q 85 300 85 268 q 97 376 85 342 q 139 450 110 410 l 188 519 l 103 619 q 79 662 89 636 q 69 715 69 688 q 76 759 69 739 q 92 796 83 779 q 104 819 101 813 l 124 819 l 124 811 q 163 725 124 771 l 446 392 q 503 543 447 454 l 547 614 l 515 618 q 458 693 458 625 q 496 819 458 744 l 518 819 l 518 794 q 526 769 518 776 q 550 760 533 763 l 615 751 q 663 723 649 747 q 676 668 676 699 q 669 619 676 643 q 656 583 663 596 l 642 583 q 628 599 638 593 q 601 606 619 604 l 590 607 l 549 532 q 514 453 525 488 q 503 388 503 419 q 515 310 503 351 l 608 200 m 297 -118 l 497 -118 l 478 -185 l 281 -185 l 297 -118 z "},"אָ":{"ha":736,"x_min":60,"x_max":676,"o":"m 608 200 q 645 146 633 171 q 657 90 657 121 q 650 48 657 67 q 624 -11 643 29 l 607 -11 q 592 32 604 7 q 558 82 581 57 l 219 481 l 189 438 q 163 357 163 399 q 179 271 163 325 l 215 160 q 233 57 233 106 q 228 0 233 26 l 60 0 l 60 40 l 97 40 q 115 64 115 40 q 113 89 115 79 l 90 236 q 85 300 85 268 q 97 376 85 342 q 139 450 110 410 l 188 519 l 103 619 q 79 662 89 636 q 69 715 69 688 q 76 759 69 739 q 92 796 83 779 q 104 819 101 813 l 124 819 l 124 811 q 163 725 124 771 l 446 392 q 503 543 447 454 l 547 614 l 515 618 q 458 693 458 625 q 496 819 458 744 l 518 819 l 518 794 q 526 769 518 776 q 550 760 533 763 l 615 751 q 663 723 649 747 q 676 668 676 699 q 669 619 676 643 q 656 583 663 596 l 642 583 q 628 599 638 593 q 601 606 619 604 l 590 607 l 549 532 q 514 453 525 488 q 503 388 503 419 q 515 310 503 351 l 608 200 m 389 -344 q 358 -331 372 -344 q 343 -299 343 -318 q 344 -287 343 -292 l 365 -185 l 260 -185 l 279 -118 l 515 -118 l 497 -185 l 411 -185 l 433 -287 q 424 -328 439 -312 q 389 -344 408 -344 z "},"אּ":{"ha":736,"x_min":60,"x_max":676,"o":"m 608 200 q 645 146 633 171 q 657 90 657 121 q 650 48 657 67 q 624 -11 643 29 l 607 -11 q 592 32 604 7 q 558 82 581 57 l 219 481 l 189 438 q 163 357 163 399 q 179 271 163 325 l 215 160 q 233 57 233 106 q 228 0 233 26 l 60 0 l 60 40 l 97 40 q 115 64 115 40 q 113 89 115 79 l 90 236 q 85 300 85 268 q 97 376 85 342 q 139 450 110 410 l 188 519 l 103 619 q 79 662 89 636 q 69 715 69 688 q 76 759 69 739 q 92 796 83 779 q 104 819 101 813 l 124 819 l 124 811 q 163 725 124 771 l 446 392 q 503 543 447 454 l 547 614 l 515 618 q 458 693 458 625 q 496 819 458 744 l 518 819 l 518 794 q 526 769 518 776 q 550 760 533 763 l 615 751 q 663 723 649 747 q 676 668 676 699 q 669 619 676 643 q 656 583 663 596 l 642 583 q 628 599 638 593 q 601 606 619 604 l 590 607 l 549 532 q 514 453 525 488 q 503 388 503 419 q 515 310 503 351 l 608 200 m 349 207 q 382 194 368 207 q 396 161 396 181 q 382 131 396 143 q 349 118 368 118 q 317 131 329 118 q 304 161 304 143 q 317 194 304 181 q 349 207 329 207 z "},"בּ":{"ha":669,"x_min":53,"x_max":624,"o":"m 82 139 l 474 139 q 508 413 508 261 q 502 539 508 499 q 476 595 496 579 q 411 611 456 611 l 157 611 q 99 630 117 611 q 82 688 82 649 q 99 774 82 738 q 117 814 115 810 l 139 814 l 139 793 q 148 766 139 774 q 176 758 157 758 l 443 758 q 533 726 497 758 q 569 619 569 694 l 569 417 q 524 139 569 276 l 624 139 l 594 0 l 53 0 l 82 139 m 296 338 q 260 351 275 338 q 246 386 246 365 q 260 422 246 408 q 296 436 275 436 q 332 422 317 436 q 347 386 347 407 q 332 351 347 365 q 296 338 317 338 z "},"גּ":{"ha":472,"x_min":32,"x_max":424,"o":"m 60 139 l 143 139 q 237 192 201 139 q 276 324 272 246 l 288 524 q 281 583 289 567 q 244 601 272 599 l 176 611 q 133 629 147 615 q 119 676 119 643 q 131 745 119 713 q 160 814 143 778 l 183 814 l 183 790 q 189 765 183 772 q 213 756 194 758 l 293 743 q 346 716 333 738 q 356 646 358 694 l 342 396 q 350 305 339 346 q 385 208 361 264 q 409 145 401 167 q 418 100 417 124 q 424 54 424 79 q 418 0 424 31 l 396 0 q 365 100 389 56 q 297 200 342 144 l 217 0 l 32 0 l 60 139 m 140 338 q 105 351 119 338 q 90 386 90 365 q 105 422 90 408 q 140 436 119 436 q 176 422 161 436 q 192 386 192 407 q 176 351 192 365 q 140 338 161 338 z "},"דּ":{"ha":626,"x_min":32,"x_max":567,"o":"m 525 758 q 556 746 546 758 q 567 715 567 733 l 567 611 l 510 611 q 483 557 490 590 q 478 465 475 524 l 489 85 q 477 19 492 43 q 431 -6 463 -6 q 404 -3 418 -6 l 404 6 q 412 26 410 14 q 414 78 414 39 l 414 453 q 431 558 414 521 q 464 610 449 594 l 464 611 l 104 611 q 48 628 64 611 q 32 686 32 646 q 48 772 32 735 q 65 814 64 810 l 89 814 l 89 792 q 97 767 89 775 q 126 758 106 758 l 525 758 m 224 436 q 260 422 244 436 q 275 386 275 407 q 260 351 275 365 q 224 338 244 338 q 188 351 203 338 q 174 386 174 365 q 188 422 174 408 q 224 436 203 436 z "},"הּ":{"ha":736,"x_min":88,"x_max":649,"o":"m 575 -6 q 549 -3 563 -6 l 549 6 q 556 26 554 14 q 557 78 557 38 l 557 453 q 565 535 557 501 q 581 586 572 568 q 594 610 590 604 l 594 611 l 160 611 q 103 628 119 611 q 88 683 88 644 q 103 773 88 736 q 121 814 119 810 l 144 814 l 144 799 q 152 767 144 775 q 182 758 160 758 l 628 758 q 649 739 649 758 l 649 617 l 642 611 q 617 508 617 593 q 618 468 617 482 l 632 92 q 575 -6 638 -6 m 125 -6 q 100 -3 111 -6 l 100 6 q 108 24 106 13 q 110 68 110 36 l 110 332 q 122 404 110 381 q 161 428 133 428 q 183 425 172 428 l 183 417 q 174 353 172 394 l 185 85 q 171 20 186 46 q 125 -6 156 -6 m 365 338 q 330 351 344 338 q 315 386 315 365 q 330 422 315 408 q 365 436 344 436 q 401 422 386 436 q 417 386 417 407 q 401 351 417 365 q 365 338 386 338 z "},"וּ":{"ha":382,"x_min":46,"x_max":290,"o":"m 231 -4 q 204 -1 218 -4 l 204 7 q 211 26 210 14 q 213 79 213 39 l 213 524 q 204 587 213 572 q 164 606 196 601 l 97 615 q 46 682 46 622 q 86 814 46 739 l 108 814 l 108 796 q 115 767 108 775 q 143 757 122 760 l 203 749 q 253 721 240 743 q 269 646 267 699 l 288 93 q 277 21 290 46 q 231 -4 264 -4 m 103 338 q 67 351 82 338 q 53 386 53 365 q 67 422 53 408 q 103 436 82 436 q 139 422 124 436 q 154 386 154 407 q 139 351 154 365 q 103 338 124 338 z "},"זּ":{"ha":353,"x_min":-24,"x_max":293,"o":"m 192 600 q 182 522 182 567 q 188 460 182 489 l 258 97 q 263 58 263 76 q 208 -6 263 -6 l 182 -4 l 182 6 q 189 33 189 19 q 183 82 189 53 l 131 401 q 126 456 126 431 q 133 519 126 486 q 156 606 140 551 l 100 614 q 46 685 46 624 q 88 814 46 742 l 110 814 l 110 793 q 117 768 110 775 q 140 758 125 761 l 232 746 q 293 667 293 736 q 285 614 293 640 q 269 575 276 588 l 257 575 q 251 588 254 583 q 239 593 247 592 l 192 600 m 26 338 q -9 351 6 338 q -24 386 -24 365 q -9 422 -24 408 q 26 436 6 436 q 63 422 47 436 q 78 386 78 407 q 63 351 78 365 q 26 338 47 338 z "},"טּ":{"ha":739,"x_min":60,"x_max":671,"o":"m 526 765 q 640 681 608 765 q 671 475 671 596 q 654 300 671 381 q 613 157 638 219 q 547 0 589 94 l 143 0 l 138 35 q 93 378 93 294 q 108 493 93 428 q 144 608 122 558 l 114 614 q 73 635 86 618 q 60 683 60 651 q 69 742 60 714 q 88 790 79 771 q 99 814 97 810 l 122 814 l 122 790 q 128 768 122 775 q 150 758 135 761 l 214 747 q 275 664 275 738 q 268 619 275 643 q 253 579 261 594 l 240 579 q 201 600 233 594 l 185 603 q 163 524 172 574 q 153 411 153 475 q 163 289 153 347 q 183 190 174 231 q 196 139 193 150 l 553 139 q 617 422 617 290 q 586 568 617 518 q 500 618 556 618 q 443 594 475 618 q 381 492 411 571 l 364 447 l 333 447 l 340 507 q 405 694 354 624 q 526 765 456 765 m 386 272 q 351 286 365 272 q 336 321 336 300 q 351 357 336 343 q 386 371 365 371 q 422 356 407 371 q 438 321 438 342 q 422 286 438 300 q 386 272 407 272 z "},"יּ":{"ha":379,"x_min":39,"x_max":332,"o":"m 167 394 q 242 470 217 429 q 268 553 268 511 q 256 597 268 583 q 213 611 243 611 l 111 611 q 55 628 71 611 q 39 685 39 646 q 47 744 39 717 q 62 790 54 771 q 72 814 69 808 l 96 814 l 96 793 q 103 767 96 775 q 133 758 111 758 l 240 758 q 292 744 274 758 q 318 713 311 729 q 328 669 324 699 q 332 611 332 640 q 304 486 332 539 q 247 407 276 433 q 182 357 217 381 l 167 394 m 154 467 q 119 481 133 467 q 104 515 104 494 q 119 551 104 538 q 154 565 133 565 q 190 551 175 565 q 206 515 206 536 q 190 481 206 494 q 154 467 175 467 z "},"ךּ":{"ha":671,"x_min":46,"x_max":585,"o":"m 524 -222 q 497 -219 511 -222 l 497 -211 q 503 -188 501 -201 q 506 -136 506 -175 l 506 539 q 492 597 506 582 q 443 611 478 611 l 118 611 q 62 628 78 611 q 46 683 46 644 q 62 773 46 736 q 79 814 78 810 l 103 814 l 103 793 q 110 767 103 775 q 140 758 118 758 l 522 758 q 564 742 550 758 q 578 699 578 725 q 572 653 578 689 q 563 539 561 593 l 583 -128 q 571 -198 585 -174 q 524 -222 557 -222 m 283 338 q 248 351 263 338 q 233 386 233 365 q 248 422 233 408 q 283 436 263 436 q 319 422 304 436 q 335 386 335 407 q 319 351 335 365 q 283 338 304 338 z "},"כּ":{"ha":661,"x_min":53,"x_max":594,"o":"m 82 139 l 376 139 q 501 199 465 139 q 536 368 536 258 q 494 549 536 486 q 357 611 453 611 l 150 611 q 94 628 110 611 q 78 683 78 644 q 111 814 78 740 l 135 814 l 135 793 q 142 767 135 775 q 172 758 150 758 l 407 758 q 539 682 503 758 q 576 568 557 647 q 594 371 594 489 q 514 57 594 149 q 463 15 490 29 q 406 0 435 0 l 53 0 l 82 139 m 308 338 q 273 351 288 338 q 258 386 258 365 q 273 422 258 408 q 308 436 288 436 q 344 422 329 436 q 360 386 360 407 q 344 351 360 365 q 308 338 329 338 z "},"לּ":{"ha":675,"x_min":32,"x_max":615,"o":"m 304 -14 q 261 6 278 -14 q 244 58 244 26 q 273 147 244 103 q 343 226 301 190 l 482 356 q 520 421 510 382 q 531 507 531 460 q 513 588 531 564 q 439 611 496 611 l 128 611 q 82 631 96 611 q 68 692 68 651 q 103 885 68 750 l 114 935 l 115 944 q 96 965 115 961 l 61 972 q 40 988 49 975 q 32 1022 32 1001 q 44 1081 32 1053 q 57 1111 56 1108 l 79 1111 l 79 1090 q 83 1077 79 1082 q 97 1071 88 1072 l 149 1060 q 186 1008 186 1051 q 160 919 186 981 q 138 860 146 883 q 131 814 131 836 q 149 771 131 783 q 208 758 167 758 l 518 758 q 586 725 564 758 q 615 571 615 682 q 599 440 615 507 q 532 328 582 372 l 389 196 q 354 156 364 172 q 344 124 344 140 q 350 92 344 114 q 354 73 351 86 q 357 49 357 60 q 342 3 357 19 q 304 -14 326 -14 m 282 375 q 247 389 261 375 q 232 424 232 403 q 247 460 232 446 q 282 474 261 474 q 318 459 303 474 q 333 424 333 444 q 318 389 333 403 q 282 375 303 375 z "},"מּ":{"ha":746,"x_min":60,"x_max":679,"o":"m 74 0 q 101 310 76 200 q 168 507 125 421 l 197 567 q 203 582 203 578 q 183 597 203 594 l 113 610 q 60 683 60 619 q 69 740 60 713 q 87 788 78 768 q 99 814 96 807 l 122 814 l 122 790 q 128 764 122 772 q 150 753 135 756 l 206 744 q 265 663 265 733 q 251 593 265 625 l 256 592 q 332 660 292 613 q 385 768 372 707 l 397 768 q 486 751 433 768 q 578 700 539 733 q 656 572 632 653 q 679 392 679 490 q 669 237 679 318 q 640 47 658 156 q 633 0 639 31 l 276 0 l 304 139 l 608 139 q 622 335 622 239 q 577 531 622 458 q 432 604 532 604 q 303 568 357 604 q 217 478 250 532 q 151 304 175 415 q 126 0 126 193 l 74 0 m 404 325 q 369 339 383 325 q 354 374 354 353 q 369 410 354 396 q 404 424 383 424 q 440 409 425 424 q 456 374 456 394 q 440 339 456 353 q 404 325 425 325 z "},"נּ":{"ha":464,"x_min":39,"x_max":397,"o":"m 65 139 l 314 139 q 306 184 313 150 q 297 253 300 218 q 293 324 293 288 q 294 369 293 353 l 303 526 q 297 583 306 568 q 257 603 288 599 l 193 611 q 149 629 163 615 q 135 676 135 643 q 146 742 135 711 q 176 814 157 774 l 199 814 l 199 790 q 204 765 199 772 q 229 756 210 758 l 311 743 q 359 720 346 738 q 372 667 372 703 l 371 640 l 356 374 q 361 287 354 329 q 381 194 368 244 q 390 153 382 186 q 397 97 397 121 q 391 44 397 76 q 383 0 385 11 l 39 0 l 65 139 m 176 338 q 141 351 156 338 q 126 386 126 365 q 141 422 126 408 q 176 436 156 436 q 213 422 197 436 q 228 386 228 407 q 213 351 228 365 q 176 338 197 338 z "},"סּ":{"ha":704,"x_min":69,"x_max":638,"o":"m 582 682 q 619 575 601 647 q 638 388 638 503 q 571 88 638 192 q 353 -15 504 -15 q 140 74 210 -15 q 69 324 69 163 q 94 488 69 422 q 158 608 118 553 l 158 611 l 142 611 q 85 628 101 611 q 69 683 69 644 q 103 814 69 740 l 126 814 l 126 793 q 135 767 126 775 q 164 758 143 758 l 449 758 q 582 682 542 758 m 351 125 q 581 379 581 125 q 537 548 581 485 q 401 611 493 611 l 204 611 q 156 518 179 579 q 133 368 133 457 q 187 184 133 243 q 351 125 240 125 m 358 338 q 323 351 338 338 q 308 386 308 365 q 323 422 308 408 q 358 436 338 436 q 394 422 379 436 q 410 386 410 407 q 394 351 410 365 q 358 338 379 338 z "},"ףּ":{"ha":674,"x_min":39,"x_max":582,"o":"m 579 -126 q 522 -222 582 -222 q 496 -219 510 -222 l 496 -211 q 503 -192 501 -204 q 504 -139 504 -179 l 504 485 q 479 583 504 554 q 394 611 454 611 l 183 611 q 135 533 156 581 q 115 447 115 486 l 186 447 q 237 435 222 447 q 251 389 251 422 l 251 303 l 228 303 q 158 342 214 342 q 111 329 128 342 q 94 296 94 317 l 49 296 q 46 353 46 335 q 74 506 46 436 q 131 610 103 575 l 131 611 l 111 611 q 55 628 71 611 q 39 683 39 644 q 55 773 39 736 q 72 814 71 810 l 96 814 l 96 799 q 103 767 96 775 q 133 758 111 758 l 410 758 q 501 740 468 758 q 548 679 533 722 q 565 554 563 636 l 579 -126 m 379 338 q 344 351 358 338 q 329 386 329 365 q 344 422 329 408 q 379 436 358 436 q 415 422 400 436 q 431 386 431 407 q 415 351 431 365 q 379 338 400 338 z "},"פּ":{"ha":701,"x_min":64,"x_max":638,"o":"m 579 686 q 618 568 599 647 q 638 383 638 489 q 621 204 638 296 q 569 0 604 113 l 64 0 l 93 139 l 478 139 q 579 369 579 139 q 546 551 579 492 q 440 611 513 611 l 232 611 q 185 533 206 582 q 164 447 164 485 l 235 447 q 285 435 271 447 q 300 389 300 422 l 300 303 l 276 303 q 207 342 263 342 q 160 329 176 342 q 143 296 143 317 l 97 296 q 94 353 94 335 q 123 506 94 436 q 179 610 151 575 l 179 611 l 158 611 q 102 628 118 611 q 86 683 86 644 q 102 773 86 736 q 119 814 118 810 l 143 814 l 143 799 q 151 767 143 775 q 181 758 158 758 l 446 758 q 528 741 496 758 q 579 686 560 724 m 440 338 q 405 351 419 338 q 390 386 390 365 q 405 422 390 408 q 440 436 419 436 q 476 422 461 436 q 492 386 492 407 q 476 351 492 365 q 440 338 461 338 z "},"צּ":{"ha":663,"x_min":60,"x_max":601,"o":"m 456 507 q 421 433 433 476 q 408 350 408 390 l 535 243 q 578 146 578 207 q 569 90 578 126 l 546 0 l 76 0 l 103 138 l 454 138 q 458 156 458 149 q 426 208 458 181 l 268 343 q 223 401 235 372 q 211 471 211 429 l 211 585 q 206 606 211 600 q 186 611 201 611 l 124 611 q 76 628 92 611 q 60 686 60 646 q 67 744 60 717 q 83 790 75 771 q 93 814 90 808 l 117 814 l 117 799 q 124 767 117 775 q 151 758 132 758 l 222 758 q 253 745 242 758 q 265 707 265 732 l 265 532 q 273 478 265 497 q 296 444 281 458 l 347 401 q 372 469 353 432 q 418 542 390 507 l 474 611 l 439 617 q 385 690 385 626 q 403 774 385 738 q 422 814 421 810 l 444 814 l 444 793 q 452 767 444 775 q 476 757 460 760 l 539 749 q 587 721 572 744 q 601 667 601 697 q 594 617 601 642 q 581 579 588 593 l 568 579 q 560 594 564 589 q 549 600 556 599 l 524 604 l 456 507 m 268 249 q 253 214 268 228 q 217 200 238 200 q 181 214 196 200 q 167 249 167 228 q 181 285 167 271 q 217 299 196 299 q 253 284 238 299 q 268 249 268 269 z "},"קּ":{"ha":694,"x_min":74,"x_max":635,"o":"m 294 -14 q 261 17 261 -14 l 261 49 q 276 126 261 97 q 332 188 290 154 l 503 328 q 549 385 538 354 q 561 465 561 415 q 536 576 561 542 q 447 611 511 611 l 146 611 q 90 628 106 611 q 74 683 74 644 q 90 773 74 736 q 107 814 106 810 l 131 814 l 131 799 q 138 767 131 775 q 168 758 146 758 l 489 758 q 586 717 551 758 q 623 647 611 692 q 635 528 635 601 q 614 379 635 433 q 535 279 593 325 l 372 146 q 333 102 343 122 q 324 40 324 82 l 324 17 q 294 -14 324 -14 m 111 -222 q 86 -219 97 -222 l 86 -211 q 94 -192 92 -204 q 96 -149 96 -181 l 96 335 q 149 431 96 431 q 171 428 160 431 l 171 419 q 161 354 161 400 l 168 -132 q 155 -197 168 -172 q 111 -222 142 -222 m 357 375 q 322 389 336 375 q 307 424 307 403 q 322 460 307 446 q 357 474 336 474 q 393 459 378 474 q 408 424 408 444 q 393 389 408 403 q 357 375 378 375 z "},"רּ":{"ha":663,"x_min":32,"x_max":572,"o":"m 510 -4 q 483 -1 497 -4 l 483 7 q 491 27 489 14 q 493 79 493 40 l 493 513 q 470 590 493 568 q 392 611 447 611 l 104 611 q 48 628 64 611 q 32 683 32 644 q 48 773 32 736 q 65 814 64 810 l 89 814 l 89 793 q 97 767 89 775 q 126 758 104 758 l 392 758 q 515 721 479 758 q 553 590 550 683 l 567 93 q 510 -4 572 -4 m 283 338 q 248 351 263 338 q 233 386 233 365 q 248 422 233 408 q 283 436 263 436 q 319 422 304 436 q 335 386 335 407 q 319 351 335 365 q 283 338 304 338 z "},"שּ":{"ha":851,"x_min":53,"x_max":797,"o":"m 736 749 q 782 731 767 744 q 797 683 797 717 l 797 647 q 789 591 797 622 q 769 538 781 560 l 694 371 q 582 65 618 232 l 568 0 l 163 0 q 115 224 132 129 q 97 383 97 318 q 140 608 97 486 l 107 614 q 66 635 79 618 q 53 683 53 651 q 63 742 53 714 q 81 790 72 771 q 92 814 90 810 l 115 814 l 115 792 q 122 767 115 775 q 143 757 128 760 l 201 747 q 265 664 265 738 q 259 619 265 643 q 244 579 253 596 l 232 579 q 201 597 224 594 l 181 601 q 165 529 172 579 q 157 426 157 479 q 173 275 157 338 q 217 138 189 213 l 256 138 l 410 610 l 383 614 q 342 635 356 618 q 329 683 329 651 q 339 742 329 714 q 358 790 349 771 q 368 814 367 810 l 392 814 l 392 792 q 398 768 392 775 q 419 758 404 761 l 481 747 q 544 664 544 738 q 538 619 544 643 q 522 579 531 594 l 510 579 q 497 592 507 588 q 468 599 488 596 l 458 600 l 308 138 l 525 138 q 570 257 546 203 q 636 396 594 311 l 657 436 l 721 560 q 728 585 728 576 q 711 604 728 600 l 649 617 q 606 636 619 622 q 593 681 593 650 q 606 752 593 714 q 633 814 619 790 l 657 814 l 657 794 q 663 767 657 774 q 689 757 669 760 l 736 749 m 504 338 q 469 351 483 338 q 454 386 454 365 q 469 422 454 408 q 504 436 483 436 q 540 422 525 436 q 556 386 556 407 q 540 351 556 365 q 504 338 525 338 z "},"תּ":{"ha":786,"x_min":32,"x_max":696,"o":"m 693 93 q 635 -4 696 -4 q 608 -1 625 -4 l 608 7 q 616 27 614 14 q 618 79 618 40 l 618 513 q 595 590 618 568 q 518 611 572 611 l 294 611 q 267 574 285 607 q 237 490 250 540 q 224 388 224 440 q 243 229 224 335 q 260 101 260 135 q 232 0 260 49 l 32 0 l 58 139 l 165 139 q 163 246 167 174 q 160 358 160 318 q 161 413 160 396 q 232 608 168 513 l 232 611 l 188 611 q 131 628 147 611 q 115 683 115 644 q 131 773 115 736 q 149 814 147 810 l 172 814 l 172 799 q 180 767 172 775 q 210 758 188 758 l 518 758 q 640 721 606 758 q 678 590 675 683 l 693 93 m 425 338 q 390 351 404 338 q 375 386 375 365 q 390 422 375 408 q 425 436 404 436 q 461 422 446 436 q 476 386 476 407 q 461 351 476 365 q 425 338 446 338 z "},"וֹ":{"ha":382,"x_min":46,"x_max":290,"o":"m 231 -4 q 204 -1 218 -4 l 204 7 q 211 26 210 14 q 213 79 213 39 l 213 524 q 204 587 213 572 q 164 606 196 601 l 97 615 q 46 682 46 622 q 86 814 46 739 l 108 814 l 108 796 q 115 767 108 775 q 143 757 122 760 l 203 749 q 253 721 240 743 q 269 646 267 699 l 288 93 q 277 21 290 46 q 231 -4 264 -4 m 172 849 q 137 863 151 849 q 122 899 122 878 q 137 934 122 919 q 172 949 151 949 q 208 934 193 949 q 224 899 224 919 q 208 863 224 878 q 172 849 193 849 z "},"בֿ":{"ha":669,"x_min":53,"x_max":624,"o":"m 82 139 l 474 139 q 508 413 508 261 q 502 539 508 499 q 476 595 496 579 q 411 611 456 611 l 157 611 q 99 630 117 611 q 82 688 82 649 q 99 774 82 738 q 117 814 115 810 l 139 814 l 139 793 q 148 766 139 774 q 176 758 157 758 l 443 758 q 533 726 497 758 q 569 619 569 694 l 569 417 q 524 139 569 276 l 624 139 l 594 0 l 53 0 l 82 139 m 229 933 l 471 933 l 453 867 l 213 867 l 229 933 z "},"כֿ":{"ha":661,"x_min":53,"x_max":594,"o":"m 82 139 l 376 139 q 501 199 465 139 q 536 368 536 258 q 494 549 536 486 q 357 611 453 611 l 150 611 q 94 628 110 611 q 78 683 78 644 q 111 814 78 740 l 135 814 l 135 793 q 142 767 135 775 q 172 758 150 758 l 407 758 q 539 682 503 758 q 576 568 557 647 q 594 371 594 489 q 514 57 594 149 q 463 15 490 29 q 406 0 435 0 l 53 0 l 82 139 m 211 933 l 453 933 l 435 867 l 194 867 l 211 933 z "},"פֿ":{"ha":701,"x_min":64,"x_max":638,"o":"m 579 686 q 618 568 599 647 q 638 383 638 489 q 621 204 638 296 q 569 0 604 113 l 64 0 l 93 139 l 478 139 q 579 369 579 139 q 546 551 579 492 q 440 611 513 611 l 232 611 q 185 533 206 582 q 164 447 164 485 l 235 447 q 285 435 271 447 q 300 389 300 422 l 300 303 l 276 303 q 207 342 263 342 q 160 329 176 342 q 143 296 143 317 l 97 296 q 94 353 94 335 q 123 506 94 436 q 179 610 151 575 l 179 611 l 158 611 q 102 628 118 611 q 86 683 86 644 q 102 773 86 736 q 119 814 118 810 l 143 814 l 143 799 q 151 767 143 775 q 181 758 158 758 l 446 758 q 528 741 496 758 q 579 686 560 724 m 233 933 l 475 933 l 457 867 l 217 867 l 233 933 z "},"⁄":{"ha":81,"x_min":-247,"x_max":326,"o":"m 267 933 l 326 933 l -189 -17 l -247 -17 l 267 933 z "},"½":{"ha":1197,"x_min":101,"x_max":1097,"o":"m 806 933 l 865 933 l 350 -17 l 292 -17 l 806 933 m 136 396 l 182 396 q 216 403 208 396 q 224 433 224 410 l 224 842 q 101 793 136 804 l 101 828 q 181 869 140 843 q 249 917 221 894 l 318 917 l 318 433 q 326 403 318 410 q 361 396 333 396 l 408 396 l 408 367 l 136 367 l 136 396 m 696 6 q 729 108 696 63 q 847 222 763 153 q 919 285 894 261 q 963 342 944 308 q 982 421 982 376 q 956 499 982 472 q 881 526 929 526 q 829 516 850 526 q 808 489 808 506 q 817 467 808 482 q 826 440 826 453 q 812 403 826 417 q 772 389 797 389 q 734 404 749 389 q 719 446 719 419 q 771 528 719 497 q 903 560 822 560 q 1035 524 985 560 q 1085 417 1085 488 q 1048 318 1085 358 q 925 225 1011 278 q 809 143 846 176 q 764 79 772 110 l 982 79 q 1047 94 1026 79 q 1071 136 1067 108 l 1097 136 l 1065 0 l 696 0 l 696 6 z "},"¼":{"ha":1151,"x_min":106,"x_max":1035,"o":"m 821 933 l 881 933 l 365 -17 l 307 -17 l 821 933 m 140 396 l 186 396 q 220 403 213 396 q 228 433 228 410 l 228 842 q 106 793 140 804 l 106 828 q 185 869 144 843 q 253 917 225 894 l 322 917 l 322 433 q 330 403 322 410 q 365 396 338 396 l 413 396 l 413 367 l 140 367 l 140 396 m 797 29 l 838 29 q 855 36 850 29 q 860 58 860 43 l 860 150 l 613 150 l 613 203 q 888 557 742 388 l 951 557 l 951 213 l 1035 213 l 1035 150 l 951 150 l 951 58 q 956 35 951 42 q 975 29 960 29 l 1013 29 l 1013 0 l 797 0 l 797 29 m 860 213 l 860 467 l 857 467 q 661 213 772 368 l 860 213 z "},"¾":{"ha":1154,"x_min":88,"x_max":1056,"o":"m 850 933 l 910 933 l 394 -17 l 336 -17 l 850 933 m 267 356 q 138 386 188 356 q 88 467 88 417 q 103 511 88 494 q 146 528 119 528 q 182 515 168 528 q 196 481 196 501 q 188 454 196 467 q 181 435 181 442 q 203 403 181 417 q 260 390 225 390 q 348 426 317 390 q 379 526 379 461 q 256 651 379 651 q 210 647 239 651 l 210 683 q 250 682 225 682 q 328 713 301 682 q 354 793 354 743 q 331 869 354 843 q 265 894 307 894 q 213 883 233 894 q 193 851 193 871 q 201 831 193 843 q 208 806 208 819 q 195 772 208 783 q 158 760 182 760 q 117 774 132 760 q 101 817 101 789 q 152 897 101 865 q 279 928 203 928 q 408 892 361 928 q 456 796 456 856 q 420 710 456 746 q 324 669 385 675 l 324 668 q 437 623 394 665 q 479 517 479 581 q 422 399 479 443 q 267 356 364 356 m 818 29 l 858 29 q 876 36 871 29 q 881 58 881 43 l 881 150 l 633 150 l 633 203 q 908 557 763 388 l 972 557 l 972 213 l 1056 213 l 1056 150 l 972 150 l 972 58 q 976 35 972 42 q 996 29 981 29 l 1033 29 l 1033 0 l 818 0 l 818 29 m 882 213 l 882 467 l 879 467 q 683 213 794 368 l 882 213 z "},"₀":{"ha":524,"x_min":46,"x_max":476,"o":"m 261 -11 q 104 63 163 -11 q 46 275 46 138 q 104 487 46 413 q 261 561 163 561 q 418 487 360 561 q 476 275 476 413 q 418 63 476 138 q 261 -11 360 -11 m 261 22 q 349 78 322 22 q 376 274 376 135 q 350 472 376 415 q 263 528 324 528 q 174 472 200 528 q 147 274 147 415 q 159 122 147 176 q 195 45 171 68 q 261 22 219 22 z "},"₁":{"ha":421,"x_min":64,"x_max":371,"o":"m 99 29 l 144 29 q 178 36 171 29 q 186 67 186 43 l 186 475 q 64 426 99 438 l 64 461 q 143 502 103 476 q 211 550 183 528 l 281 550 l 281 67 q 288 36 281 43 q 324 29 296 29 l 371 29 l 371 0 l 99 0 l 99 29 z "},"₂":{"ha":489,"x_min":42,"x_max":443,"o":"m 42 6 q 75 109 42 64 q 193 222 108 154 q 265 285 240 261 q 309 342 290 308 q 328 421 328 376 q 301 499 328 472 q 226 526 275 526 q 175 516 196 526 q 154 489 154 506 q 163 467 154 482 q 172 440 172 453 q 158 403 172 417 q 118 389 143 389 q 80 404 94 389 q 65 446 65 419 q 117 528 65 497 q 249 560 168 560 q 381 524 331 560 q 431 417 431 488 q 394 318 431 358 q 271 225 357 278 q 155 143 192 176 q 110 79 118 110 l 328 79 q 392 94 372 79 q 417 136 413 108 l 443 136 l 411 0 l 42 0 l 42 6 z "},"₃":{"ha":493,"x_min":36,"x_max":428,"o":"m 215 -11 q 86 19 136 -11 q 36 100 36 50 q 52 144 36 128 q 94 161 68 161 q 131 148 117 161 q 144 114 144 135 q 137 88 144 100 q 129 68 129 75 q 151 37 129 50 q 208 24 174 24 q 297 59 265 24 q 328 160 328 94 q 204 285 328 285 q 158 281 188 285 l 158 317 q 199 315 174 315 q 276 346 250 315 q 303 426 303 376 q 279 502 303 476 q 214 528 256 528 q 162 516 182 528 q 142 485 142 504 q 149 465 142 476 q 157 439 157 453 q 144 405 157 417 q 107 393 131 393 q 65 408 81 393 q 50 450 50 422 q 101 530 50 499 q 228 561 151 561 q 357 525 310 561 q 404 429 404 489 q 369 344 404 379 q 272 303 333 308 l 272 301 q 385 256 343 299 q 428 150 428 214 q 370 33 428 76 q 215 -11 313 -11 z "},"₄":{"ha":483,"x_min":28,"x_max":450,"o":"m 213 29 l 253 29 q 270 36 265 29 q 275 58 275 43 l 275 150 l 28 150 l 28 203 q 303 557 157 388 l 367 557 l 367 213 l 450 213 l 450 150 l 367 150 l 367 58 q 371 35 367 42 q 390 29 375 29 l 428 29 l 428 0 l 213 0 l 213 29 m 276 213 l 276 467 l 274 467 q 78 213 189 368 l 276 213 z "},"₅":{"ha":474,"x_min":46,"x_max":422,"o":"m 207 -11 q 91 17 136 -11 q 46 90 46 44 q 61 133 46 115 q 103 151 76 151 q 140 138 125 151 q 154 104 154 125 q 145 76 154 90 q 136 54 136 63 q 201 24 136 24 q 325 165 325 24 q 210 307 325 307 q 96 256 150 307 l 72 256 l 100 550 l 335 550 q 365 554 357 550 q 378 571 372 558 l 400 571 l 376 472 l 125 472 l 107 303 l 110 301 q 246 347 164 347 q 374 300 325 347 q 422 178 422 253 q 364 41 422 93 q 207 -11 306 -11 z "},"₆":{"ha":508,"x_min":46,"x_max":457,"o":"m 258 -10 q 101 53 157 -10 q 46 231 46 117 q 87 405 46 329 q 207 524 128 481 q 396 571 286 568 l 396 544 q 222 469 294 539 q 146 268 150 399 l 146 267 q 288 350 193 350 q 408 303 358 350 q 457 172 457 257 q 403 40 457 89 q 258 -10 349 -10 m 260 24 q 335 60 310 24 q 361 163 361 96 q 335 267 361 232 q 258 301 308 301 q 178 267 208 301 q 147 167 147 233 q 176 65 147 106 q 260 24 204 24 z "},"₇":{"ha":475,"x_min":32,"x_max":421,"o":"m 185 -10 q 133 54 133 -10 q 163 171 133 107 q 246 314 193 235 q 360 471 335 440 l 129 471 q 86 463 100 471 q 64 435 72 456 l 58 421 l 32 421 l 47 550 l 421 550 l 421 490 q 361 415 397 464 q 304 335 325 365 q 251 219 264 271 q 238 113 238 168 l 238 53 q 185 -10 235 -10 z "},"₈":{"ha":481,"x_min":42,"x_max":429,"o":"m 225 -11 q 92 24 143 -11 q 42 122 42 58 q 167 275 42 219 q 88 336 114 303 q 63 414 63 369 q 117 523 63 485 q 247 561 172 561 q 363 531 313 561 q 413 440 413 501 q 307 306 413 357 q 399 237 369 274 q 429 150 429 200 q 374 33 429 78 q 225 -11 318 -11 m 276 319 q 360 436 360 375 q 330 503 360 478 q 247 529 300 529 q 168 507 200 529 q 136 446 136 485 q 164 387 136 410 q 228 344 192 364 q 276 319 265 325 m 229 21 q 320 47 283 21 q 357 115 357 72 q 319 184 357 154 q 196 260 282 214 q 96 129 96 201 q 134 51 96 81 q 229 21 172 21 z "},"₉":{"ha":508,"x_min":50,"x_max":461,"o":"m 111 7 q 285 81 213 11 q 361 285 357 151 q 304 224 340 246 q 219 201 268 201 q 99 249 149 201 q 50 381 50 297 q 104 512 50 463 q 249 561 158 561 q 406 498 350 561 q 461 321 461 435 q 420 146 461 222 q 300 26 379 69 q 111 -19 221 -18 l 111 7 m 251 250 q 331 284 300 250 q 361 383 361 318 q 333 486 361 446 q 250 526 306 526 q 173 490 199 526 q 147 389 147 454 q 174 285 147 321 q 251 250 201 250 z "},"⁰":{"ha":524,"x_min":46,"x_max":476,"o":"m 261 356 q 104 430 163 356 q 46 642 46 504 q 104 853 46 779 q 261 928 163 928 q 418 853 360 928 q 476 642 476 779 q 418 430 476 504 q 261 356 360 356 m 261 389 q 349 445 322 389 q 376 640 376 501 q 350 838 376 782 q 263 894 324 894 q 174 838 200 894 q 147 640 147 782 q 159 489 147 543 q 195 412 171 435 q 261 389 219 389 z "},"¹":{"ha":421,"x_min":64,"x_max":371,"o":"m 99 396 l 144 396 q 178 403 171 396 q 186 433 186 410 l 186 842 q 64 793 99 804 l 64 828 q 143 869 103 843 q 211 917 183 894 l 281 917 l 281 433 q 288 403 281 410 q 324 396 296 396 l 371 396 l 371 367 l 99 367 l 99 396 z "},"²":{"ha":489,"x_min":42,"x_max":443,"o":"m 42 372 q 75 476 42 431 q 193 589 108 521 q 265 651 240 628 q 309 709 290 675 q 328 788 328 743 q 301 866 328 839 q 226 893 275 893 q 175 883 196 893 q 154 856 154 872 q 163 834 154 849 q 172 807 172 819 q 158 769 172 783 q 118 756 143 756 q 80 771 94 756 q 65 813 65 786 q 117 895 65 864 q 249 926 168 926 q 381 890 331 926 q 431 783 431 854 q 394 685 431 725 q 271 592 357 644 q 155 510 192 543 q 110 446 118 476 l 328 446 q 392 460 372 446 q 417 503 413 475 l 443 503 l 411 367 l 42 367 l 42 372 z "},"³":{"ha":493,"x_min":36,"x_max":428,"o":"m 215 356 q 86 386 136 356 q 36 467 36 417 q 52 511 36 494 q 94 528 68 528 q 131 515 117 528 q 144 481 144 501 q 137 454 144 467 q 129 435 129 442 q 151 403 129 417 q 208 390 174 390 q 297 426 265 390 q 328 526 328 461 q 204 651 328 651 q 158 647 188 651 l 158 683 q 199 682 174 682 q 276 713 250 682 q 303 793 303 743 q 279 869 303 843 q 214 894 256 894 q 162 883 182 894 q 142 851 142 871 q 149 831 142 843 q 157 806 157 819 q 144 772 157 783 q 107 760 131 760 q 65 774 81 760 q 50 817 50 789 q 101 897 50 865 q 228 928 151 928 q 357 892 310 928 q 404 796 404 856 q 369 710 404 746 q 272 669 333 675 l 272 668 q 385 623 343 665 q 428 517 428 581 q 370 399 428 443 q 215 356 313 356 z "},"⁴":{"ha":483,"x_min":28,"x_max":450,"o":"m 213 396 l 253 396 q 270 403 265 396 q 275 425 275 410 l 275 517 l 28 517 l 28 569 q 303 924 157 754 l 367 924 l 367 579 l 450 579 l 450 517 l 367 517 l 367 425 q 371 402 367 408 q 390 396 375 396 l 428 396 l 428 367 l 213 367 l 213 396 m 276 579 l 276 833 l 274 833 q 78 579 189 735 l 276 579 z "},"⁵":{"ha":474,"x_min":46,"x_max":422,"o":"m 207 356 q 91 383 136 356 q 46 457 46 411 q 61 500 46 482 q 103 518 76 518 q 140 505 125 518 q 154 471 154 492 q 145 443 154 457 q 136 421 136 429 q 201 390 136 390 q 325 532 325 390 q 210 674 325 674 q 96 622 150 674 l 72 622 l 100 917 l 335 917 q 365 921 357 917 q 378 938 372 925 l 400 938 l 376 839 l 125 839 l 107 669 l 110 668 q 246 714 164 714 q 374 667 325 714 q 422 544 422 619 q 364 408 422 460 q 207 356 306 356 z "},"⁶":{"ha":508,"x_min":46,"x_max":457,"o":"m 258 357 q 101 420 157 357 q 46 597 46 483 q 87 772 46 696 q 207 891 128 847 q 396 938 286 935 l 396 911 q 222 835 294 906 q 146 635 150 765 l 146 633 q 288 717 193 717 q 408 670 358 717 q 457 539 457 624 q 403 406 457 456 q 258 357 349 357 m 260 390 q 335 426 310 390 q 361 529 361 463 q 335 633 361 599 q 258 668 308 668 q 178 634 208 668 q 147 533 147 600 q 176 431 147 472 q 260 390 204 390 z "},"⁷":{"ha":475,"x_min":32,"x_max":421,"o":"m 185 357 q 133 421 133 357 q 163 538 133 474 q 246 681 193 601 q 360 838 335 807 l 129 838 q 86 830 100 838 q 64 801 72 822 l 58 788 l 32 788 l 47 917 l 421 917 l 421 857 q 361 781 397 831 q 304 701 325 732 q 251 586 264 638 q 238 479 238 535 l 238 419 q 185 357 235 357 z "},"⁸":{"ha":481,"x_min":42,"x_max":429,"o":"m 225 356 q 92 390 143 356 q 42 489 42 425 q 167 642 42 586 q 88 703 114 669 q 63 781 63 736 q 117 890 63 851 q 247 928 172 928 q 363 898 313 928 q 413 807 413 868 q 307 672 413 724 q 399 603 369 640 q 429 517 429 567 q 374 400 429 444 q 225 356 318 356 m 276 686 q 360 803 360 742 q 330 870 360 844 q 247 896 300 896 q 168 874 200 896 q 136 813 136 851 q 164 753 136 776 q 228 711 192 731 q 276 686 265 692 m 229 388 q 320 413 283 388 q 357 482 357 439 q 319 551 357 521 q 196 626 282 581 q 96 496 96 568 q 134 417 96 447 q 229 388 172 388 z "},"⁹":{"ha":508,"x_min":50,"x_max":461,"o":"m 111 374 q 285 448 213 378 q 361 651 357 518 q 304 590 340 613 q 219 568 268 568 q 99 616 149 568 q 50 747 50 664 q 104 878 50 829 q 249 928 158 928 q 406 865 350 928 q 461 688 461 801 q 420 513 461 589 q 300 392 379 436 q 111 347 221 349 l 111 374 m 251 617 q 331 651 300 617 q 361 750 361 685 q 333 853 361 813 q 250 893 306 893 q 173 857 199 893 q 147 756 147 821 q 174 652 147 688 q 251 617 201 617 z "},"*":{"ha":478,"x_min":32,"x_max":444,"o":"m 238 475 q 203 484 217 475 q 192 508 189 493 l 214 653 l 210 656 l 94 563 q 81 558 88 558 q 43 588 58 558 q 32 621 32 607 q 47 644 32 638 l 185 699 l 185 703 l 49 757 q 32 781 32 764 q 43 814 32 796 q 60 836 50 828 q 79 844 69 844 q 94 839 86 844 l 211 746 l 214 749 l 192 894 q 203 918 190 910 q 238 926 217 926 q 274 918 261 926 q 285 894 288 910 l 264 747 l 267 744 l 383 839 q 397 844 392 844 q 417 836 407 844 q 433 814 426 828 q 444 781 444 796 q 429 757 444 763 l 290 701 l 290 699 l 429 644 q 444 622 444 639 q 433 588 444 607 q 397 558 417 558 q 383 564 389 558 l 267 656 l 264 654 l 285 508 q 274 484 288 493 q 238 475 261 475 z "},"\\":{"ha":456,"x_min":1,"x_max":453,"o":"m 1 932 l 88 932 l 453 -17 l 367 -17 l 1 932 z "},"·":{"ha":429,"x_min":131,"x_max":299,"o":"m 214 303 q 155 327 179 303 q 131 386 131 351 q 155 446 131 421 q 214 471 179 471 q 274 447 250 471 q 299 386 299 422 q 274 327 299 351 q 214 303 249 303 z "},"•":{"ha":579,"x_min":78,"x_max":501,"o":"m 290 247 q 184 276 233 247 q 106 353 135 304 q 78 460 78 401 q 106 565 78 517 q 183 642 135 614 q 290 671 232 671 q 396 642 347 671 q 473 565 444 614 q 501 460 501 517 q 473 353 501 403 q 396 276 444 304 q 290 247 347 247 z "},":":{"ha":386,"x_min":115,"x_max":271,"o":"m 193 396 q 138 418 161 396 q 115 472 115 440 q 138 528 115 504 q 193 551 161 551 q 249 528 226 551 q 271 472 271 506 q 249 418 271 440 q 193 396 226 396 m 193 -12 q 138 10 161 -12 q 115 65 115 33 q 138 120 115 97 q 193 143 161 143 q 249 120 226 143 q 271 65 271 97 q 249 10 271 33 q 193 -12 226 -12 z "},",":{"ha":367,"x_min":110,"x_max":271,"o":"m 114 -112 q 177 -83 153 -103 q 201 -31 201 -62 q 178 -3 201 -8 q 110 74 110 13 q 133 131 110 110 q 189 153 156 153 q 248 126 225 153 q 271 44 271 100 q 234 -80 271 -25 q 119 -149 197 -135 l 114 -112 z "},"…":{"ha":1240,"x_min":140,"x_max":1100,"o":"m 218 -12 q 164 11 188 -12 q 140 65 140 35 q 164 121 140 97 q 218 144 188 144 q 272 121 249 144 q 296 65 296 97 q 273 11 296 35 q 218 -12 250 -12 m 619 -12 q 565 11 589 -12 q 542 65 542 35 q 565 121 542 97 q 619 144 589 144 q 674 121 650 144 q 697 65 697 97 q 674 11 697 35 q 619 -12 651 -12 m 1022 -12 q 968 11 992 -12 q 944 65 944 35 q 968 121 944 97 q 1022 144 992 144 q 1076 121 1053 144 q 1100 65 1100 97 q 1077 11 1100 35 q 1022 -12 1054 -12 z "},"!":{"ha":396,"x_min":118,"x_max":278,"o":"m 131 751 q 124 849 124 821 q 141 912 124 888 q 199 936 158 936 q 275 844 275 936 q 268 751 275 832 l 225 247 l 174 247 l 131 751 m 197 -14 q 140 9 163 -14 q 118 67 118 32 q 141 124 118 100 q 197 149 164 149 q 255 124 232 149 q 278 67 278 100 q 254 9 276 32 q 197 -14 232 -14 z "},"¡":{"ha":396,"x_min":119,"x_max":279,"o":"m 200 500 q 142 524 165 500 q 119 582 119 547 q 142 640 119 617 q 200 663 165 663 q 256 640 235 663 q 279 582 278 617 q 257 524 279 547 q 200 500 235 500 m 199 -279 q 141 -256 158 -279 q 124 -193 124 -232 q 131 -94 124 -171 l 174 408 l 225 408 l 268 -94 l 271 -122 q 274 -151 272 -135 q 275 -187 275 -168 q 199 -279 275 -279 z "},"#":{"ha":690,"x_min":33,"x_max":657,"o":"m 531 553 l 503 350 l 621 350 l 621 289 l 494 289 l 454 0 l 385 0 l 425 289 l 224 289 l 183 0 l 114 0 l 154 289 l 33 289 l 33 350 l 163 350 l 190 553 l 69 553 l 69 613 l 199 613 l 240 917 l 310 917 l 268 613 l 469 613 l 511 917 l 581 917 l 539 613 l 657 613 l 657 553 l 531 553 m 461 553 l 260 553 l 232 350 l 433 350 l 461 553 z "},".":{"ha":386,"x_min":115,"x_max":271,"o":"m 193 -12 q 138 10 161 -12 q 115 65 115 33 q 138 120 115 97 q 193 143 161 143 q 248 120 225 143 q 271 65 271 97 q 248 10 271 33 q 193 -12 225 -12 z "},"?":{"ha":649,"x_min":97,"x_max":567,"o":"m 258 301 q 281 426 258 378 q 350 533 304 475 q 416 635 394 590 q 438 749 438 681 q 407 860 438 818 q 319 901 376 901 q 241 885 278 901 q 204 836 204 868 q 209 817 204 825 q 221 801 214 808 q 238 779 232 790 q 243 749 243 768 q 224 699 243 717 q 172 681 206 681 q 117 706 136 681 q 97 772 97 732 q 165 894 97 853 q 328 936 233 936 q 497 891 428 936 q 567 746 567 846 q 548 649 567 692 q 502 576 529 607 q 431 503 475 544 q 340 404 371 447 q 310 301 310 361 l 310 247 l 258 247 l 258 301 m 289 -12 q 233 10 256 -12 q 211 65 211 33 q 233 120 211 97 q 289 143 256 143 q 344 120 321 143 q 367 65 367 97 q 344 10 367 33 q 289 -12 321 -12 z "},"¿":{"ha":649,"x_min":81,"x_max":550,"o":"m 360 510 q 305 533 328 510 q 282 588 282 556 q 305 643 282 619 q 360 667 328 667 q 415 644 393 667 q 438 589 438 621 q 415 533 438 556 q 360 510 393 510 m 319 -283 q 150 -238 219 -283 q 81 -93 81 -193 q 99 3 81 -39 q 145 77 118 46 q 217 150 172 108 q 307 249 276 206 q 338 351 338 292 l 338 407 l 388 407 l 388 351 q 365 226 388 275 q 296 119 342 178 q 231 17 253 63 q 210 -96 210 -28 q 240 -207 210 -165 q 328 -249 271 -249 q 406 -232 369 -249 q 443 -183 443 -215 q 439 -165 443 -172 q 425 -149 435 -158 q 408 -126 414 -136 q 403 -96 403 -115 q 422 -46 403 -64 q 475 -28 442 -28 q 531 -53 511 -28 q 550 -119 550 -78 q 482 -242 550 -200 q 319 -283 414 -283 z "},"\"":{"ha":506,"x_min":101,"x_max":403,"o":"m 156 646 q 138 653 143 646 q 131 674 133 660 l 108 817 q 101 882 101 854 q 114 922 101 906 q 156 938 126 938 q 210 882 210 938 q 204 817 210 846 l 181 674 q 174 653 179 660 q 156 646 169 646 m 349 646 q 324 674 326 646 l 300 817 q 294 882 294 861 q 349 938 294 938 q 403 882 403 938 q 396 817 403 854 l 374 674 q 349 646 371 646 z "},"'":{"ha":294,"x_min":93,"x_max":201,"o":"m 147 646 q 130 653 135 646 q 122 674 125 660 l 100 817 q 93 882 93 854 q 106 922 93 906 q 147 938 118 938 q 201 882 201 938 q 196 817 201 861 l 172 674 q 165 653 169 660 q 147 646 160 646 z "},";":{"ha":379,"x_min":113,"x_max":274,"o":"m 193 396 q 138 418 161 396 q 115 472 115 440 q 138 528 115 504 q 193 551 161 551 q 248 528 225 551 q 271 472 271 504 q 248 418 271 440 q 193 396 225 396 m 117 -112 q 180 -83 156 -103 q 204 -31 204 -62 q 181 -3 204 -8 q 113 74 113 13 q 135 131 113 110 q 192 153 158 153 q 251 126 228 153 q 274 44 274 100 q 237 -80 274 -25 q 122 -149 200 -135 l 117 -112 z "},"/":{"ha":444,"x_min":1,"x_max":442,"o":"m 361 932 l 442 932 l 83 -17 l 1 -17 l 361 932 z "},"_":{"ha":690,"x_min":21,"x_max":669,"o":"m 21 -97 l 669 -97 l 669 -158 l 21 -158 l 21 -97 z "},"{":{"ha":393,"x_min":56,"x_max":351,"o":"m 319 -174 q 208 -144 243 -174 q 164 -72 172 -115 q 156 47 156 -28 l 156 225 q 56 357 156 357 l 56 389 q 156 515 156 388 l 156 696 q 164 813 156 768 q 208 887 172 857 q 318 917 243 917 l 351 917 l 351 876 q 279 857 301 875 q 252 812 257 839 q 247 735 247 785 l 247 556 q 240 470 247 503 q 208 413 233 438 q 133 376 183 389 l 133 368 q 208 333 183 356 q 240 277 232 310 q 247 193 247 244 l 247 10 q 252 -69 247 -42 q 279 -114 257 -96 q 351 -133 301 -132 l 351 -174 l 319 -174 z "},"}":{"ha":393,"x_min":42,"x_max":338,"o":"m 42 -133 q 114 -114 92 -132 q 141 -69 136 -96 q 146 10 146 -42 l 146 193 q 153 277 146 244 q 185 333 161 310 q 260 368 210 356 l 260 376 q 185 413 210 389 q 153 470 160 438 q 146 556 146 503 l 146 733 q 141 813 146 786 q 114 858 136 839 q 42 876 92 876 l 42 917 l 75 917 q 185 887 150 917 q 229 813 221 857 q 238 696 238 768 l 238 515 q 338 389 238 388 l 338 357 q 238 225 238 357 l 238 47 q 229 -72 238 -28 q 185 -144 221 -115 q 74 -174 150 -174 l 42 -174 l 42 -133 z "},"[":{"ha":406,"x_min":138,"x_max":351,"o":"m 138 917 l 351 917 l 351 876 l 226 876 l 226 -132 l 351 -132 l 351 -174 l 138 -174 l 138 917 z "},"]":{"ha":406,"x_min":53,"x_max":267,"o":"m 53 -132 l 178 -132 l 178 876 l 53 876 l 53 917 l 267 917 l 267 -174 l 53 -174 l 53 -132 z "},"(":{"ha":463,"x_min":118,"x_max":429,"o":"m 428 -172 q 185 -3 253 -162 q 118 369 118 156 q 185 743 118 583 q 428 913 253 903 l 429 882 q 268 708 325 854 q 211 369 211 561 q 236 136 211 246 q 310 -49 261 26 q 429 -144 360 -125 l 428 -172 z "},")":{"ha":463,"x_min":33,"x_max":344,"o":"m 33 -144 q 152 -49 103 -125 q 226 136 201 26 q 251 369 251 246 q 194 708 251 561 q 33 882 138 854 l 35 913 q 277 743 210 903 q 344 369 344 583 q 277 -3 344 156 q 35 -172 210 -162 l 33 -144 z "},"—":{"ha":1113,"x_min":0,"x_max":1113,"o":"m 0 406 l 1113 406 l 1113 329 l 0 329 l 0 406 z "},"–":{"ha":539,"x_min":0,"x_max":539,"o":"m 0 406 l 539 406 l 539 329 l 0 329 l 0 406 z "},"-":{"ha":476,"x_min":81,"x_max":394,"o":"m 81 414 l 394 414 l 394 321 l 81 321 l 81 414 z "},"«":{"ha":665,"x_min":58,"x_max":611,"o":"m 58 335 l 326 629 l 357 629 l 196 335 l 357 40 l 326 40 l 58 335 m 313 335 l 581 629 l 611 629 l 450 335 l 611 40 l 581 40 l 313 335 z "}}}
